%TF.GenerationSoftware,KiCad,Pcbnew,9.0.7*%
%TF.CreationDate,2026-01-18T16:43:15-05:00*%
%TF.ProjectId,advanced_soldering_practice,61647661-6e63-4656-945f-736f6c646572,rev?*%
%TF.SameCoordinates,Original*%
%TF.FileFunction,Legend,Bot*%
%TF.FilePolarity,Positive*%
%FSLAX46Y46*%
G04 Gerber Fmt 4.6, Leading zero omitted, Abs format (unit mm)*
G04 Created by KiCad (PCBNEW 9.0.7) date 2026-01-18 16:43:15*
%MOMM*%
%LPD*%
G01*
G04 APERTURE LIST*
%ADD10C,0.100000*%
%ADD11C,0.218750*%
%ADD12C,0.508000*%
%ADD13C,0.000000*%
G04 APERTURE END LIST*
D10*
X69000000Y-75000000D02*
X126000000Y-75000000D01*
X126000000Y-98000000D01*
X69000000Y-98000000D01*
X69000000Y-75000000D01*
D11*
G36*
X93848602Y-96521844D02*
G01*
X93848602Y-96705636D01*
X93010635Y-96705636D01*
X93010635Y-97102501D01*
X92802372Y-97102501D01*
X92802372Y-96705636D01*
X92547627Y-96705636D01*
X92547627Y-96512013D01*
X92802372Y-96512013D01*
X92802372Y-95573708D01*
X92998346Y-95573708D01*
X93005720Y-95744037D01*
X93010635Y-95960848D01*
X93010635Y-96512013D01*
X93637881Y-96512013D01*
X93113538Y-95764767D01*
X93057224Y-95674153D01*
X93008177Y-95573708D01*
X92998346Y-95573708D01*
X92802372Y-95573708D01*
X92802372Y-95343433D01*
X93025381Y-95343433D01*
X93848602Y-96521844D01*
G37*
G36*
X91929486Y-95337054D02*
G01*
X92026759Y-95361047D01*
X92112722Y-95399746D01*
X92189619Y-95453695D01*
X92254254Y-95520992D01*
X92307521Y-95603094D01*
X92345273Y-95693785D01*
X92368962Y-95798278D01*
X92377298Y-95919174D01*
X92367591Y-96044831D01*
X92340365Y-96149474D01*
X92297392Y-96236885D01*
X92238919Y-96309948D01*
X92165643Y-96369576D01*
X92082013Y-96412453D01*
X91986028Y-96439026D01*
X91874967Y-96448327D01*
X91770177Y-96440924D01*
X91684370Y-96420371D01*
X91614131Y-96388380D01*
X91522679Y-96320935D01*
X91458548Y-96244979D01*
X91443802Y-96244979D01*
X91454992Y-96384972D01*
X91478103Y-96515753D01*
X91517371Y-96637996D01*
X91573632Y-96741113D01*
X91622333Y-96800701D01*
X91681189Y-96851601D01*
X91751334Y-96894238D01*
X91827715Y-96924189D01*
X91920894Y-96943561D01*
X92034289Y-96950551D01*
X92150552Y-96942234D01*
X92249818Y-96918708D01*
X92249818Y-97102501D01*
X92143283Y-97120880D01*
X92029374Y-97126971D01*
X91866163Y-97116038D01*
X91732746Y-97085752D01*
X91623855Y-97038814D01*
X91525397Y-96972510D01*
X91444274Y-96893974D01*
X91378833Y-96802341D01*
X91327360Y-96700922D01*
X91287302Y-96591023D01*
X91258834Y-96471621D01*
X91234024Y-96287942D01*
X91225708Y-96100403D01*
X91233712Y-95958391D01*
X91443802Y-95958391D01*
X91455409Y-96034444D01*
X91491567Y-96110233D01*
X91547905Y-96176459D01*
X91625137Y-96231515D01*
X91684026Y-96257453D01*
X91751265Y-96273619D01*
X91828484Y-96279280D01*
X91938589Y-96267189D01*
X92020834Y-96234289D01*
X92082054Y-96182575D01*
X92125992Y-96113606D01*
X92153983Y-96026617D01*
X92164120Y-95916717D01*
X92156983Y-95812671D01*
X92137379Y-95729406D01*
X92107255Y-95663037D01*
X92067415Y-95610467D01*
X91997414Y-95555052D01*
X91915675Y-95521651D01*
X91818654Y-95510022D01*
X91737841Y-95518098D01*
X91669298Y-95541139D01*
X91610498Y-95578624D01*
X91537784Y-95655505D01*
X91485476Y-95750128D01*
X91454088Y-95854307D01*
X91443802Y-95958391D01*
X91233712Y-95958391D01*
X91235503Y-95926622D01*
X91262560Y-95784237D01*
X91304141Y-95668062D01*
X91364683Y-95561150D01*
X91435642Y-95477253D01*
X91517319Y-95413210D01*
X91610224Y-95366433D01*
X91710044Y-95338276D01*
X91818654Y-95328687D01*
X91929486Y-95337054D01*
G37*
G36*
X90497634Y-95774435D02*
G01*
X90598549Y-95802400D01*
X90689183Y-95848115D01*
X90769061Y-95910615D01*
X90836647Y-95989121D01*
X90892530Y-96085763D01*
X90931427Y-96191018D01*
X90956054Y-96313328D01*
X90964765Y-96455700D01*
X90955121Y-96599351D01*
X90927969Y-96721084D01*
X90885157Y-96824461D01*
X90824239Y-96917565D01*
X90750305Y-96992486D01*
X90662255Y-97051103D01*
X90564066Y-97092554D01*
X90454914Y-97118115D01*
X90332711Y-97126971D01*
X90202506Y-97121343D01*
X90099871Y-97106134D01*
X90002386Y-97079918D01*
X89901439Y-97041272D01*
X89901439Y-96852564D01*
X90004310Y-96891988D01*
X90101153Y-96919990D01*
X90201627Y-96937107D01*
X90322880Y-96943285D01*
X90419859Y-96935252D01*
X90501239Y-96912600D01*
X90569899Y-96876535D01*
X90627954Y-96826918D01*
X90673559Y-96766126D01*
X90708365Y-96691325D01*
X90731713Y-96599657D01*
X90741863Y-96487543D01*
X89842668Y-96487543D01*
X89842668Y-96357712D01*
X89845393Y-96316039D01*
X90068028Y-96316039D01*
X90736948Y-96316039D01*
X90715983Y-96201752D01*
X90679938Y-96111437D01*
X90630305Y-96040456D01*
X90564835Y-95986124D01*
X90485023Y-95952927D01*
X90386566Y-95941187D01*
X90305574Y-95948541D01*
X90240589Y-95968957D01*
X90188301Y-96001124D01*
X90146460Y-96045372D01*
X90105374Y-96118360D01*
X90078708Y-96207322D01*
X90068028Y-96316039D01*
X89845393Y-96316039D01*
X89850373Y-96239894D01*
X89872394Y-96136498D01*
X89907636Y-96045372D01*
X89957737Y-95962197D01*
X90019509Y-95893682D01*
X90093780Y-95838284D01*
X90177509Y-95798318D01*
X90273437Y-95773470D01*
X90384108Y-95764767D01*
X90497634Y-95774435D01*
G37*
G36*
X88897311Y-95764767D02*
G01*
X88817703Y-95768507D01*
X88743010Y-95779513D01*
X88769938Y-95977945D01*
X88839822Y-95965764D01*
X88912057Y-95960848D01*
X88977472Y-95966938D01*
X89040036Y-95985142D01*
X89100765Y-96015986D01*
X89155065Y-96057106D01*
X89201877Y-96108156D01*
X89241601Y-96170287D01*
X89270214Y-96238231D01*
X89287981Y-96314872D01*
X89294175Y-96401844D01*
X89294175Y-97102501D01*
X89509811Y-97102501D01*
X89509811Y-95789344D01*
X89333391Y-95789344D01*
X89308921Y-96029450D01*
X89299090Y-96029450D01*
X89226388Y-95929176D01*
X89134959Y-95843200D01*
X89064539Y-95799918D01*
X88986063Y-95773771D01*
X88897311Y-95764767D01*
G37*
G36*
X88609654Y-96541398D02*
G01*
X88609654Y-96350339D01*
X88016708Y-96350339D01*
X88016708Y-96541398D01*
X88609654Y-96541398D01*
G37*
G36*
X87098706Y-95764767D02*
G01*
X87019098Y-95768507D01*
X86944406Y-95779513D01*
X86971334Y-95977945D01*
X87041218Y-95965764D01*
X87113452Y-95960848D01*
X87178868Y-95966938D01*
X87241431Y-95985142D01*
X87302161Y-96015986D01*
X87356461Y-96057106D01*
X87403272Y-96108156D01*
X87442997Y-96170287D01*
X87471610Y-96238231D01*
X87489376Y-96314872D01*
X87495570Y-96401844D01*
X87495570Y-97102501D01*
X87711206Y-97102501D01*
X87711206Y-95789344D01*
X87534787Y-95789344D01*
X87510317Y-96029450D01*
X87500486Y-96029450D01*
X87427784Y-95929176D01*
X87336355Y-95843200D01*
X87265935Y-95799918D01*
X87187459Y-95773771D01*
X87098706Y-95764767D01*
G37*
G36*
X86350843Y-95776721D02*
G01*
X86469038Y-95810696D01*
X86570518Y-95865312D01*
X86658031Y-95941187D01*
X86726747Y-96033432D01*
X86777820Y-96145080D01*
X86810461Y-96280075D01*
X86822162Y-96443411D01*
X86812706Y-96587127D01*
X86786013Y-96709754D01*
X86743837Y-96814630D01*
X86684016Y-96910048D01*
X86612800Y-96986932D01*
X86529483Y-97047363D01*
X86435944Y-97091101D01*
X86333280Y-97117788D01*
X86219493Y-97126971D01*
X86080937Y-97114903D01*
X85962573Y-97080555D01*
X85860629Y-97025228D01*
X85772407Y-96948200D01*
X85703022Y-96854696D01*
X85651556Y-96742122D01*
X85618736Y-96606646D01*
X85606993Y-96443411D01*
X85829895Y-96443411D01*
X85841602Y-96596311D01*
X85873672Y-96717118D01*
X85923074Y-96812279D01*
X85974880Y-96870615D01*
X86038829Y-96912485D01*
X86117429Y-96938786D01*
X86214578Y-96948200D01*
X86313077Y-96938721D01*
X86392221Y-96912327D01*
X86456102Y-96870453D01*
X86507364Y-96812279D01*
X86556050Y-96717214D01*
X86587699Y-96596407D01*
X86599260Y-96443411D01*
X86587767Y-96290379D01*
X86556480Y-96171009D01*
X86508646Y-96078390D01*
X86458165Y-96022008D01*
X86394810Y-95981225D01*
X86315826Y-95955403D01*
X86217035Y-95946102D01*
X86118271Y-95955365D01*
X86038815Y-95981141D01*
X85974640Y-96021938D01*
X85923074Y-96078390D01*
X85873809Y-96171205D01*
X85841681Y-96290576D01*
X85829895Y-96443411D01*
X85606993Y-96443411D01*
X85616358Y-96299690D01*
X85642697Y-96177981D01*
X85684143Y-96074757D01*
X85743072Y-95980961D01*
X85813867Y-95904839D01*
X85897322Y-95844482D01*
X85990863Y-95800852D01*
X86095052Y-95774048D01*
X86212120Y-95764767D01*
X86350843Y-95776721D01*
G37*
G36*
X85268045Y-97102501D02*
G01*
X85113745Y-97102501D01*
X85069613Y-96935912D01*
X85052409Y-96935912D01*
X84987187Y-97007490D01*
X84898109Y-97070657D01*
X84830474Y-97100648D01*
X84747463Y-97119988D01*
X84645714Y-97126971D01*
X84527672Y-97115732D01*
X84424866Y-97083376D01*
X84334249Y-97030445D01*
X84253766Y-96955466D01*
X84192308Y-96866666D01*
X84145664Y-96755545D01*
X84115305Y-96617257D01*
X84104274Y-96445869D01*
X84104431Y-96443411D01*
X84327283Y-96443411D01*
X84338608Y-96605254D01*
X84368917Y-96727361D01*
X84414264Y-96818370D01*
X84462866Y-96874750D01*
X84521433Y-96914674D01*
X84591927Y-96939426D01*
X84677558Y-96948200D01*
X84784952Y-96938652D01*
X84866337Y-96912808D01*
X84927619Y-96873132D01*
X84972801Y-96819545D01*
X85014135Y-96729943D01*
X85041970Y-96609064D01*
X85052409Y-96448327D01*
X85052409Y-96438603D01*
X85041500Y-96270984D01*
X85013000Y-96150618D01*
X84971626Y-96066209D01*
X84926469Y-96016305D01*
X84866020Y-95979197D01*
X84786494Y-95955016D01*
X84682473Y-95946102D01*
X84589598Y-95955937D01*
X84514283Y-95983550D01*
X84452623Y-96028060D01*
X84402373Y-96091229D01*
X84363269Y-96177208D01*
X84337060Y-96292079D01*
X84327283Y-96443411D01*
X84104431Y-96443411D01*
X84115250Y-96274343D01*
X84145421Y-96136282D01*
X84191705Y-96025662D01*
X84252590Y-95937554D01*
X84332371Y-95863308D01*
X84422882Y-95810720D01*
X84526274Y-95778463D01*
X84645714Y-95767225D01*
X84747456Y-95774220D01*
X84830467Y-95793595D01*
X84898109Y-95823645D01*
X84986794Y-95887704D01*
X85052409Y-95963199D01*
X85064698Y-95963199D01*
X85056149Y-95849397D01*
X85052409Y-95693708D01*
X85052409Y-95240530D01*
X85268045Y-95240530D01*
X85268045Y-97102501D01*
G37*
G36*
X83363997Y-95776721D02*
G01*
X83482192Y-95810696D01*
X83583672Y-95865312D01*
X83671185Y-95941187D01*
X83739901Y-96033432D01*
X83790974Y-96145080D01*
X83823615Y-96280075D01*
X83835317Y-96443411D01*
X83825860Y-96587127D01*
X83799167Y-96709754D01*
X83756991Y-96814630D01*
X83697170Y-96910048D01*
X83625954Y-96986932D01*
X83542637Y-97047363D01*
X83449099Y-97091101D01*
X83346435Y-97117788D01*
X83232647Y-97126971D01*
X83094091Y-97114903D01*
X82975727Y-97080555D01*
X82873783Y-97025228D01*
X82785561Y-96948200D01*
X82716176Y-96854696D01*
X82664710Y-96742122D01*
X82631890Y-96606646D01*
X82620147Y-96443411D01*
X82843049Y-96443411D01*
X82854756Y-96596311D01*
X82886826Y-96717118D01*
X82936228Y-96812279D01*
X82988034Y-96870615D01*
X83051983Y-96912485D01*
X83130583Y-96938786D01*
X83227732Y-96948200D01*
X83326231Y-96938721D01*
X83405376Y-96912327D01*
X83469256Y-96870453D01*
X83520518Y-96812279D01*
X83569204Y-96717214D01*
X83600853Y-96596407D01*
X83612414Y-96443411D01*
X83600921Y-96290379D01*
X83569635Y-96171009D01*
X83521800Y-96078390D01*
X83471320Y-96022008D01*
X83407964Y-95981225D01*
X83328980Y-95955403D01*
X83230190Y-95946102D01*
X83131425Y-95955365D01*
X83051970Y-95981141D01*
X82987794Y-96021938D01*
X82936228Y-96078390D01*
X82886964Y-96171205D01*
X82854835Y-96290576D01*
X82843049Y-96443411D01*
X82620147Y-96443411D01*
X82629512Y-96299690D01*
X82655851Y-96177981D01*
X82697298Y-96074757D01*
X82756226Y-95980961D01*
X82827022Y-95904839D01*
X82910476Y-95844482D01*
X83004017Y-95800852D01*
X83108206Y-95774048D01*
X83225274Y-95764767D01*
X83363997Y-95776721D01*
G37*
G36*
X81842661Y-96950551D02*
G01*
X81742216Y-96942002D01*
X81658869Y-96923623D01*
X81658869Y-97087754D01*
X81697201Y-97102430D01*
X81756963Y-97115964D01*
X81879420Y-97126971D01*
X81979401Y-97117903D01*
X82069303Y-97091494D01*
X82123001Y-97062363D01*
X82169752Y-97021606D01*
X82210247Y-96967755D01*
X82238386Y-96906483D01*
X82257134Y-96825685D01*
X82264102Y-96720276D01*
X82264102Y-95955933D01*
X82450246Y-95955933D01*
X82450246Y-95853030D01*
X82261645Y-95767225D01*
X82175839Y-95487903D01*
X82048466Y-95487903D01*
X82048466Y-95789344D01*
X81668699Y-95789344D01*
X81668699Y-95955933D01*
X82048466Y-95955933D01*
X82048466Y-96715360D01*
X82041075Y-96793390D01*
X82021240Y-96850968D01*
X81990871Y-96893062D01*
X81949387Y-96924674D01*
X81900687Y-96943850D01*
X81842661Y-96950551D01*
G37*
G36*
X81287009Y-95296844D02*
G01*
X81240978Y-95305065D01*
X81200135Y-95329969D01*
X81172500Y-95370122D01*
X81162094Y-95434047D01*
X81172356Y-95496056D01*
X81200135Y-95536950D01*
X81241065Y-95562771D01*
X81287009Y-95571251D01*
X81337082Y-95562519D01*
X81377730Y-95536950D01*
X81404526Y-95496179D01*
X81414488Y-95434047D01*
X81404384Y-95369992D01*
X81377730Y-95329969D01*
X81337173Y-95305310D01*
X81287009Y-95296844D01*
G37*
G36*
X81181649Y-95789344D02*
G01*
X81181649Y-97102501D01*
X81397284Y-97102501D01*
X81397284Y-95789344D01*
X81181649Y-95789344D01*
G37*
G36*
X80239711Y-97126971D02*
G01*
X80353852Y-97118712D01*
X80456534Y-97094803D01*
X80549594Y-97055911D01*
X80632763Y-97000608D01*
X80703533Y-96927896D01*
X80762772Y-96835467D01*
X80803762Y-96732891D01*
X80830320Y-96607093D01*
X80839922Y-96453242D01*
X80829799Y-96292875D01*
X80801935Y-96163230D01*
X80759139Y-96058836D01*
X80697469Y-95964837D01*
X80624660Y-95891306D01*
X80539870Y-95835827D01*
X80445204Y-95796939D01*
X80340844Y-95773026D01*
X80224965Y-95764767D01*
X80125758Y-95770042D01*
X80031448Y-95785604D01*
X79943134Y-95809826D01*
X79879498Y-95835827D01*
X79945642Y-96014704D01*
X80082953Y-95973137D01*
X80160372Y-95958189D01*
X80229880Y-95953475D01*
X80333276Y-95963772D01*
X80416363Y-95992482D01*
X80483557Y-96038240D01*
X80537592Y-96102300D01*
X80579151Y-96188355D01*
X80606769Y-96302101D01*
X80617020Y-96450784D01*
X80610043Y-96571788D01*
X80590807Y-96670340D01*
X80561298Y-96750223D01*
X80522666Y-96814630D01*
X80470877Y-96868929D01*
X80408484Y-96907853D01*
X80333333Y-96932179D01*
X80242168Y-96940827D01*
X80137845Y-96934977D01*
X80052285Y-96918815D01*
X79972468Y-96893863D01*
X79901618Y-96864852D01*
X79901618Y-97055911D01*
X79970304Y-97085933D01*
X80047370Y-97108591D01*
X80131173Y-97121976D01*
X80239711Y-97126971D01*
G37*
G36*
X78736778Y-96739937D02*
G01*
X78746301Y-96832615D01*
X78773286Y-96909701D01*
X78816995Y-96974486D01*
X78878896Y-97028983D01*
X78951266Y-97069700D01*
X79037362Y-97100328D01*
X79139672Y-97119958D01*
X79261121Y-97126971D01*
X79393518Y-97121022D01*
X79497594Y-97104958D01*
X79592880Y-97077970D01*
X79672732Y-97043730D01*
X79672732Y-96847648D01*
X79589574Y-96883991D01*
X79482848Y-96919990D01*
X79370339Y-96944772D01*
X79256206Y-96953009D01*
X79147149Y-96945796D01*
X79070667Y-96927138D01*
X79018558Y-96900328D01*
X78977286Y-96860699D01*
X78953276Y-96814528D01*
X78945040Y-96759492D01*
X78951845Y-96712834D01*
X78972075Y-96671336D01*
X79006420Y-96634834D01*
X79068780Y-96592903D01*
X79146786Y-96554282D01*
X79268494Y-96504747D01*
X79390679Y-96453935D01*
X79486588Y-96406759D01*
X79568567Y-96351335D01*
X79626249Y-96289111D01*
X79652595Y-96241103D01*
X79669243Y-96183090D01*
X79675189Y-96112691D01*
X79666359Y-96032703D01*
X79641029Y-95964755D01*
X79599329Y-95906186D01*
X79539268Y-95855488D01*
X79444434Y-95807050D01*
X79327332Y-95775982D01*
X79182689Y-95764767D01*
X79065017Y-95770764D01*
X78958611Y-95788062D01*
X78856997Y-95816217D01*
X78763705Y-95853030D01*
X78837223Y-96024535D01*
X79011291Y-95965764D01*
X79102941Y-95947357D01*
X79197435Y-95941187D01*
X79285137Y-95946831D01*
X79350952Y-95961862D01*
X79399607Y-95984143D01*
X79439293Y-96017166D01*
X79461781Y-96055267D01*
X79469384Y-96100403D01*
X79461252Y-96150876D01*
X79437541Y-96192406D01*
X79398570Y-96227242D01*
X79331005Y-96265923D01*
X79131291Y-96350339D01*
X79011578Y-96399303D01*
X78918113Y-96445976D01*
X78838808Y-96501518D01*
X78783367Y-96564800D01*
X78758223Y-96613353D01*
X78742397Y-96671044D01*
X78736778Y-96739937D01*
G37*
G36*
X78450830Y-96970212D02*
G01*
X78445020Y-96911481D01*
X78429773Y-96870634D01*
X78406806Y-96842840D01*
X78358827Y-96815421D01*
X78301445Y-96806081D01*
X78241657Y-96815480D01*
X78192345Y-96842840D01*
X78168641Y-96870750D01*
X78152987Y-96911614D01*
X78147038Y-96970212D01*
X78152867Y-97027158D01*
X78168437Y-97068268D01*
X78192345Y-97097585D01*
X78241839Y-97126840D01*
X78301445Y-97136801D01*
X78358644Y-97126906D01*
X78406806Y-97097585D01*
X78429975Y-97068379D01*
X78445138Y-97027282D01*
X78450830Y-96970212D01*
G37*
G36*
X77235768Y-97126971D02*
G01*
X77349909Y-97118712D01*
X77452591Y-97094803D01*
X77545651Y-97055911D01*
X77628820Y-97000608D01*
X77699590Y-96927896D01*
X77758829Y-96835467D01*
X77799820Y-96732891D01*
X77826377Y-96607093D01*
X77835980Y-96453242D01*
X77825856Y-96292875D01*
X77797992Y-96163230D01*
X77755196Y-96058836D01*
X77693526Y-95964837D01*
X77620717Y-95891306D01*
X77535927Y-95835827D01*
X77441261Y-95796939D01*
X77336901Y-95773026D01*
X77221022Y-95764767D01*
X77121815Y-95770042D01*
X77027505Y-95785604D01*
X76939191Y-95809826D01*
X76875556Y-95835827D01*
X76941700Y-96014704D01*
X77079010Y-95973137D01*
X77156429Y-95958189D01*
X77225937Y-95953475D01*
X77329333Y-95963772D01*
X77412420Y-95992482D01*
X77479614Y-96038240D01*
X77533649Y-96102300D01*
X77575208Y-96188355D01*
X77602826Y-96302101D01*
X77613077Y-96450784D01*
X77606101Y-96571788D01*
X77586865Y-96670340D01*
X77557355Y-96750223D01*
X77518723Y-96814630D01*
X77466935Y-96868929D01*
X77404541Y-96907853D01*
X77329390Y-96932179D01*
X77238226Y-96940827D01*
X77133902Y-96934977D01*
X77048342Y-96918815D01*
X76968525Y-96893863D01*
X76897675Y-96864852D01*
X76897675Y-97055911D01*
X76966361Y-97085933D01*
X77043427Y-97108591D01*
X77127230Y-97121976D01*
X77235768Y-97126971D01*
G37*
G36*
X76190096Y-95776721D02*
G01*
X76308291Y-95810696D01*
X76409771Y-95865312D01*
X76497284Y-95941187D01*
X76566000Y-96033432D01*
X76617073Y-96145080D01*
X76649714Y-96280075D01*
X76661416Y-96443411D01*
X76651959Y-96587127D01*
X76625266Y-96709754D01*
X76583090Y-96814630D01*
X76523270Y-96910048D01*
X76452053Y-96986932D01*
X76368736Y-97047363D01*
X76275198Y-97091101D01*
X76172534Y-97117788D01*
X76058746Y-97126971D01*
X75920190Y-97114903D01*
X75801826Y-97080555D01*
X75699882Y-97025228D01*
X75611660Y-96948200D01*
X75542275Y-96854696D01*
X75490809Y-96742122D01*
X75457989Y-96606646D01*
X75446246Y-96443411D01*
X75669149Y-96443411D01*
X75680855Y-96596311D01*
X75712925Y-96717118D01*
X75762327Y-96812279D01*
X75814133Y-96870615D01*
X75878082Y-96912485D01*
X75956682Y-96938786D01*
X76053831Y-96948200D01*
X76152330Y-96938721D01*
X76231475Y-96912327D01*
X76295355Y-96870453D01*
X76346617Y-96812279D01*
X76395303Y-96717214D01*
X76426952Y-96596407D01*
X76438514Y-96443411D01*
X76427020Y-96290379D01*
X76395734Y-96171009D01*
X76347899Y-96078390D01*
X76297419Y-96022008D01*
X76234063Y-95981225D01*
X76155079Y-95955403D01*
X76056289Y-95946102D01*
X75957524Y-95955365D01*
X75878069Y-95981141D01*
X75813893Y-96021938D01*
X75762327Y-96078390D01*
X75713063Y-96171205D01*
X75680934Y-96290576D01*
X75669149Y-96443411D01*
X75446246Y-96443411D01*
X75455611Y-96299690D01*
X75481950Y-96177981D01*
X75523397Y-96074757D01*
X75582325Y-95980961D01*
X75653121Y-95904839D01*
X75736575Y-95844482D01*
X75830116Y-95800852D01*
X75934305Y-95774048D01*
X76051373Y-95764767D01*
X76190096Y-95776721D01*
G37*
G36*
X73666663Y-95764767D02*
G01*
X73554727Y-95773044D01*
X73464456Y-95795902D01*
X73391762Y-95831347D01*
X73333485Y-95878783D01*
X73288794Y-95938282D01*
X73254393Y-96016329D01*
X73231617Y-96117494D01*
X73223209Y-96247437D01*
X73223209Y-97102501D01*
X73436387Y-97102501D01*
X73436387Y-96257268D01*
X73445467Y-96153093D01*
X73469750Y-96076172D01*
X73506538Y-96020039D01*
X73555724Y-95980296D01*
X73619801Y-95955226D01*
X73703421Y-95946102D01*
X73798744Y-95954150D01*
X73873364Y-95976191D01*
X73931632Y-96010307D01*
X73976653Y-96056378D01*
X74019613Y-96134307D01*
X74048102Y-96238743D01*
X74058718Y-96377267D01*
X74058718Y-97102501D01*
X74271896Y-97102501D01*
X74271896Y-96257268D01*
X74281021Y-96153292D01*
X74305441Y-96076435D01*
X74342485Y-96020266D01*
X74392094Y-95980432D01*
X74456821Y-95955268D01*
X74541388Y-95946102D01*
X74639804Y-95955075D01*
X74715188Y-95979501D01*
X74772704Y-96017277D01*
X74815795Y-96068666D01*
X74855206Y-96153953D01*
X74881724Y-96268832D01*
X74891663Y-96421399D01*
X74891663Y-97102501D01*
X75107298Y-97102501D01*
X75107298Y-95789344D01*
X74933336Y-95789344D01*
X74901493Y-95968115D01*
X74889312Y-95968115D01*
X74843216Y-95904852D01*
X74788363Y-95854195D01*
X74723898Y-95814990D01*
X74616592Y-95777372D01*
X74502172Y-95764767D01*
X74378196Y-95775180D01*
X74280710Y-95803751D01*
X74204212Y-95848038D01*
X74144760Y-95907861D01*
X74100392Y-95985318D01*
X74088104Y-95985318D01*
X74038189Y-95916126D01*
X73978498Y-95861037D01*
X73908051Y-95818730D01*
X73830611Y-95788753D01*
X73750435Y-95770806D01*
X73666663Y-95764767D01*
G37*
D12*
%TO.C,BT1*%
X71865300Y-84500001D02*
G75*
G02*
X71103300Y-84500001I-381000J0D01*
G01*
X71103300Y-84500001D02*
G75*
G02*
X71865300Y-84500001I381000J0D01*
G01*
D13*
%TO.C,G\u002A\u002A\u002A*%
G36*
X115489518Y-87773102D02*
G01*
X115476863Y-87817322D01*
X115424296Y-87899325D01*
X115408236Y-87920749D01*
X115346404Y-87997154D01*
X115313323Y-88028041D01*
X115311882Y-88026858D01*
X115327354Y-87984212D01*
X115373548Y-87899325D01*
X115381911Y-87885507D01*
X115441449Y-87803923D01*
X115484521Y-87770609D01*
X115489518Y-87773102D01*
G37*
G36*
X106720430Y-84771181D02*
G01*
X106906142Y-84806835D01*
X107047203Y-84873139D01*
X107123685Y-84962227D01*
X107132206Y-84986503D01*
X107155363Y-85186059D01*
X107111829Y-85396657D01*
X107010028Y-85593258D01*
X106858384Y-85750823D01*
X106822103Y-85774835D01*
X106688708Y-85823056D01*
X106500475Y-85838506D01*
X106391097Y-85837043D01*
X106286888Y-85820890D01*
X106209637Y-85775853D01*
X106125052Y-85688203D01*
X106084829Y-85639584D01*
X106012258Y-85510367D01*
X105991891Y-85366271D01*
X105995647Y-85294228D01*
X106021690Y-85202791D01*
X106084657Y-85107263D01*
X106198531Y-84981615D01*
X106233154Y-84945877D01*
X106336624Y-84846595D01*
X106418325Y-84793115D01*
X106506581Y-84771354D01*
X106629716Y-84767230D01*
X106720430Y-84771181D01*
G37*
G36*
X122220470Y-85038816D02*
G01*
X122351038Y-85088814D01*
X122494071Y-85159863D01*
X122618227Y-85236057D01*
X122692164Y-85301488D01*
X122701337Y-85323189D01*
X122717603Y-85417594D01*
X122724343Y-85546910D01*
X122722800Y-85624411D01*
X122704300Y-85722481D01*
X122650976Y-85803298D01*
X122545655Y-85900880D01*
X122522152Y-85920758D01*
X122404674Y-86005688D01*
X122296394Y-86044889D01*
X122156686Y-86054392D01*
X122091577Y-86052443D01*
X121955933Y-86036663D01*
X121864515Y-86010215D01*
X121854064Y-86004226D01*
X121754610Y-85899975D01*
X121686067Y-85744250D01*
X121653778Y-85565077D01*
X121663084Y-85390482D01*
X121719327Y-85248491D01*
X121818996Y-85148648D01*
X121980342Y-85059407D01*
X122146732Y-85024663D01*
X122220470Y-85038816D01*
G37*
G36*
X116612888Y-86863383D02*
G01*
X116607912Y-86911794D01*
X116559131Y-87298037D01*
X116499214Y-87645822D01*
X116432162Y-87931502D01*
X116402391Y-88018640D01*
X116280882Y-88251248D01*
X116110513Y-88479889D01*
X115912976Y-88677915D01*
X115709966Y-88818676D01*
X115658894Y-88839473D01*
X115496154Y-88872663D01*
X115296457Y-88884764D01*
X115092238Y-88874827D01*
X114915933Y-88841903D01*
X114815585Y-88817585D01*
X114651689Y-88786582D01*
X114476306Y-88760093D01*
X114231271Y-88710810D01*
X113992124Y-88607464D01*
X113791836Y-88443635D01*
X113610602Y-88206659D01*
X113597454Y-88185979D01*
X113506265Y-88031549D01*
X113434448Y-87891868D01*
X113396570Y-87794953D01*
X113388758Y-87766254D01*
X113342289Y-87634372D01*
X113281659Y-87494616D01*
X113268989Y-87465036D01*
X113226830Y-87321876D01*
X113188221Y-87131730D01*
X113156634Y-86920638D01*
X113135540Y-86714645D01*
X113134860Y-86697973D01*
X113537068Y-86697973D01*
X113567008Y-86944679D01*
X113588747Y-87059765D01*
X113662245Y-87291608D01*
X113769645Y-87540741D01*
X113897207Y-87776822D01*
X114031185Y-87969507D01*
X114071864Y-88015612D01*
X114216207Y-88147554D01*
X114378024Y-88261358D01*
X114532909Y-88341323D01*
X114656457Y-88371749D01*
X114700836Y-88375052D01*
X114830628Y-88398204D01*
X114976667Y-88436107D01*
X115054358Y-88458929D01*
X115160332Y-88487088D01*
X115212646Y-88496675D01*
X115241768Y-88491090D01*
X115363977Y-88451442D01*
X115509929Y-88389872D01*
X115644388Y-88322157D01*
X115732121Y-88264073D01*
X115765150Y-88231679D01*
X115908291Y-88030561D01*
X116027094Y-87757567D01*
X116118107Y-87422218D01*
X116177879Y-87034037D01*
X116203294Y-86790877D01*
X115998246Y-86746902D01*
X115959762Y-86739438D01*
X115852055Y-86724712D01*
X115710662Y-86713214D01*
X115526900Y-86704695D01*
X115292084Y-86698909D01*
X114997529Y-86695607D01*
X114634550Y-86694542D01*
X114194463Y-86695466D01*
X113537068Y-86697973D01*
X113134860Y-86697973D01*
X113128410Y-86539791D01*
X113138714Y-86422120D01*
X113140526Y-86415111D01*
X113155636Y-86377822D01*
X113186892Y-86351295D01*
X113248213Y-86332648D01*
X113353515Y-86319001D01*
X113516716Y-86307470D01*
X113751733Y-86295174D01*
X113923284Y-86288330D01*
X114255018Y-86281981D01*
X114613905Y-86282182D01*
X114981129Y-86288403D01*
X115337873Y-86300115D01*
X115665322Y-86316789D01*
X115944659Y-86337894D01*
X116157068Y-86362900D01*
X116201503Y-86369991D01*
X116400465Y-86411938D01*
X116528495Y-86468428D01*
X116598183Y-86553284D01*
X116622118Y-86680328D01*
X116616544Y-86790877D01*
X116612888Y-86863383D01*
G37*
G36*
X124972860Y-91778561D02*
G01*
X124976040Y-92012903D01*
X124976847Y-92197959D01*
X124975184Y-92321567D01*
X124970952Y-92371568D01*
X124965633Y-92409329D01*
X124959909Y-92521342D01*
X124955215Y-92692491D01*
X124951933Y-92908268D01*
X124950443Y-93154165D01*
X124949073Y-93905228D01*
X124834587Y-93985144D01*
X124797170Y-94006230D01*
X124672780Y-94056873D01*
X124502740Y-94112126D01*
X124312500Y-94163301D01*
X124219357Y-94186177D01*
X124027339Y-94235819D01*
X123863168Y-94281365D01*
X123754729Y-94315221D01*
X123450246Y-94413636D01*
X123037906Y-94525298D01*
X122576130Y-94632190D01*
X122084316Y-94730473D01*
X121581864Y-94816305D01*
X121088170Y-94885847D01*
X120622635Y-94935259D01*
X120419433Y-94952638D01*
X120171800Y-94973807D01*
X119946994Y-94993015D01*
X119776350Y-95007584D01*
X119466382Y-95034028D01*
X119491055Y-95918112D01*
X119502199Y-96234782D01*
X119525172Y-96631663D01*
X119556632Y-96956293D01*
X119597222Y-97216537D01*
X119604318Y-97252798D01*
X119647135Y-97486188D01*
X119670202Y-97652234D01*
X119674152Y-97765074D01*
X119659617Y-97838851D01*
X119627229Y-97887703D01*
X119541915Y-97931003D01*
X119430497Y-97931890D01*
X119344399Y-97885558D01*
X119336590Y-97872735D01*
X119305278Y-97785488D01*
X119268288Y-97644767D01*
X119232058Y-97474144D01*
X119220349Y-97413414D01*
X119188022Y-97255788D01*
X119161253Y-97139120D01*
X119144913Y-97085150D01*
X119143304Y-97079857D01*
X119136113Y-97009511D01*
X119127915Y-96870015D01*
X119119312Y-96674614D01*
X119110906Y-96436556D01*
X119103299Y-96169085D01*
X119101828Y-96112849D01*
X119093313Y-95842210D01*
X119083353Y-95597740D01*
X119072709Y-95394346D01*
X119062141Y-95246934D01*
X119052407Y-95170411D01*
X119046483Y-95148003D01*
X119017832Y-95088650D01*
X118960689Y-95069946D01*
X118847140Y-95079532D01*
X118835411Y-95080945D01*
X118713832Y-95091076D01*
X118519190Y-95102882D01*
X118262481Y-95115973D01*
X117954701Y-95129962D01*
X117606847Y-95144459D01*
X117229914Y-95159076D01*
X116834899Y-95173424D01*
X116432798Y-95187114D01*
X116034606Y-95199757D01*
X115651321Y-95210965D01*
X115293938Y-95220349D01*
X114973453Y-95227521D01*
X114700862Y-95232090D01*
X114487162Y-95233670D01*
X114206572Y-95231962D01*
X113465702Y-95214003D01*
X112694241Y-95177767D01*
X111929807Y-95124856D01*
X111582080Y-95096645D01*
X111553422Y-95327292D01*
X111536421Y-95460893D01*
X111509977Y-95662502D01*
X111483603Y-95858277D01*
X111463145Y-96010988D01*
X111434812Y-96227818D01*
X111403322Y-96472729D01*
X111372476Y-96716386D01*
X111368068Y-96750970D01*
X111338297Y-96960549D01*
X111308017Y-97138462D01*
X111280539Y-97266833D01*
X111259177Y-97327788D01*
X111180480Y-97372643D01*
X111070181Y-97374786D01*
X110977500Y-97329933D01*
X110944406Y-97259129D01*
X110928266Y-97115427D01*
X110936141Y-96922509D01*
X110968291Y-96698240D01*
X110979187Y-96635629D01*
X111004865Y-96462602D01*
X111032140Y-96252644D01*
X111056685Y-96038077D01*
X111067645Y-95935527D01*
X111092176Y-95713577D01*
X111115751Y-95508944D01*
X111134491Y-95355652D01*
X111135606Y-95347011D01*
X111150636Y-95212343D01*
X111146838Y-95139212D01*
X111117729Y-95105294D01*
X111056824Y-95088265D01*
X110994467Y-95077316D01*
X110827403Y-95053922D01*
X110599230Y-95026489D01*
X110325463Y-94996747D01*
X110021618Y-94966427D01*
X109703209Y-94937260D01*
X109404466Y-94908577D01*
X108587815Y-94805957D01*
X107793919Y-94672300D01*
X107610981Y-94636897D01*
X107303014Y-94576348D01*
X106973558Y-94510639D01*
X106637714Y-94442859D01*
X106310584Y-94376095D01*
X106007268Y-94313437D01*
X105742868Y-94257971D01*
X105532483Y-94212786D01*
X105391216Y-94180969D01*
X105253389Y-94148748D01*
X105071463Y-94107300D01*
X104927327Y-94075627D01*
X104683937Y-94013123D01*
X104424903Y-93928611D01*
X104202123Y-93838702D01*
X104088018Y-93773957D01*
X103993682Y-93671012D01*
X103952363Y-93528903D01*
X103953937Y-93376031D01*
X104333727Y-93376031D01*
X104347485Y-93425769D01*
X104411265Y-93474224D01*
X104540642Y-93535950D01*
X104602011Y-93560501D01*
X104775856Y-93618828D01*
X104985467Y-93679099D01*
X105198141Y-93731584D01*
X105317583Y-93758705D01*
X105500573Y-93802117D01*
X105647501Y-93839232D01*
X105734459Y-93864141D01*
X105773949Y-93874777D01*
X105894616Y-93901920D01*
X106077773Y-93940258D01*
X106310347Y-93987128D01*
X106579265Y-94039865D01*
X106871452Y-94095806D01*
X107058017Y-94131154D01*
X107347168Y-94186142D01*
X107609826Y-94236334D01*
X107831532Y-94278954D01*
X107997828Y-94311230D01*
X108094256Y-94330388D01*
X108190137Y-94348447D01*
X108419594Y-94384917D01*
X108712777Y-94425695D01*
X109055723Y-94469247D01*
X109434471Y-94514044D01*
X109835057Y-94558554D01*
X110243518Y-94601247D01*
X110645891Y-94640591D01*
X111028214Y-94675056D01*
X111376524Y-94703109D01*
X111676858Y-94723221D01*
X111754482Y-94727702D01*
X112056837Y-94745344D01*
X112397699Y-94765460D01*
X112740790Y-94785900D01*
X113049831Y-94804518D01*
X113223142Y-94813652D01*
X113639731Y-94827630D01*
X114122381Y-94835144D01*
X114657954Y-94836497D01*
X115233311Y-94831990D01*
X115835313Y-94821925D01*
X116450821Y-94806604D01*
X117066698Y-94786327D01*
X117669804Y-94761397D01*
X118247001Y-94732115D01*
X118785151Y-94698783D01*
X119271114Y-94661703D01*
X119429261Y-94648215D01*
X119742441Y-94621517D01*
X120058138Y-94594617D01*
X120347014Y-94570015D01*
X120579729Y-94550211D01*
X121222555Y-94477569D01*
X121987374Y-94350810D01*
X122762862Y-94182401D01*
X123518750Y-93978232D01*
X123555074Y-93967415D01*
X123715894Y-93920038D01*
X123913960Y-93862209D01*
X124114607Y-93804061D01*
X124204717Y-93777805D01*
X124356951Y-93732101D01*
X124464642Y-93697924D01*
X124508777Y-93681200D01*
X124516694Y-93650241D01*
X124527368Y-93542914D01*
X124537781Y-93371556D01*
X124547532Y-93148626D01*
X124556222Y-92886582D01*
X124563453Y-92597884D01*
X124568824Y-92294990D01*
X124571937Y-91990360D01*
X124572392Y-91696453D01*
X124572010Y-91628840D01*
X124567249Y-91296902D01*
X124557900Y-90903016D01*
X124544641Y-90463597D01*
X124528146Y-89995062D01*
X124509094Y-89513827D01*
X124488160Y-89036308D01*
X124466021Y-88578922D01*
X124443354Y-88158085D01*
X124420834Y-87790214D01*
X124399138Y-87491723D01*
X124395799Y-87451409D01*
X124357110Y-87039803D01*
X124306861Y-86580050D01*
X124248813Y-86104823D01*
X124186728Y-85646791D01*
X124185971Y-85641504D01*
X124164440Y-85485456D01*
X124148761Y-85361441D01*
X124142282Y-85295886D01*
X124133274Y-85261525D01*
X124083428Y-85187869D01*
X124076263Y-85180384D01*
X124044264Y-85134651D01*
X124015442Y-85063964D01*
X123985630Y-84953375D01*
X123950663Y-84787937D01*
X123906373Y-84552703D01*
X123887463Y-84452312D01*
X123823340Y-84140427D01*
X123750252Y-83817345D01*
X123675640Y-83515054D01*
X123606945Y-83265541D01*
X123578846Y-83170506D01*
X123533907Y-83016118D01*
X123501197Y-82900845D01*
X123478567Y-82830632D01*
X123424988Y-82688899D01*
X123360710Y-82536149D01*
X123311722Y-82416970D01*
X123238689Y-82214331D01*
X123178787Y-82021284D01*
X123136361Y-81879206D01*
X123085775Y-81732594D01*
X123044241Y-81635136D01*
X123043110Y-81633020D01*
X123001187Y-81550604D01*
X122932055Y-81410680D01*
X122845055Y-81232285D01*
X122749526Y-81034460D01*
X122653731Y-80838696D01*
X122545566Y-80624719D01*
X122447238Y-80436940D01*
X122372009Y-80301123D01*
X122339122Y-80244656D01*
X122241230Y-80074879D01*
X122127733Y-79876378D01*
X122017060Y-79681330D01*
X122010572Y-79669923D01*
X121858140Y-79431035D01*
X121671593Y-79179205D01*
X121480743Y-78954821D01*
X121385443Y-78851847D01*
X121233367Y-78686403D01*
X121097734Y-78537602D01*
X120999602Y-78428482D01*
X120931177Y-78362181D01*
X120781264Y-78243368D01*
X120589798Y-78110979D01*
X120377474Y-77979934D01*
X120203342Y-77876343D01*
X119996558Y-77747904D01*
X119813088Y-77628501D01*
X119678716Y-77534567D01*
X119654434Y-77516910D01*
X119525767Y-77431559D01*
X119354077Y-77326095D01*
X119153927Y-77208569D01*
X118939883Y-77087032D01*
X118726508Y-76969537D01*
X118528367Y-76864136D01*
X118360024Y-76778881D01*
X118236044Y-76721823D01*
X118170989Y-76701014D01*
X118145412Y-76698044D01*
X118064586Y-76657222D01*
X118042349Y-76641665D01*
X117943293Y-76593417D01*
X117783528Y-76526842D01*
X117577168Y-76446993D01*
X117338327Y-76358924D01*
X117081118Y-76267687D01*
X116819655Y-76178334D01*
X116568053Y-76095918D01*
X116340424Y-76025493D01*
X116150883Y-75972111D01*
X115889695Y-75920768D01*
X115492866Y-75886269D01*
X115037323Y-75887071D01*
X114533979Y-75923064D01*
X113993750Y-75994136D01*
X113852680Y-76017063D01*
X113619005Y-76056880D01*
X113416277Y-76093667D01*
X113262455Y-76124117D01*
X113175501Y-76144918D01*
X113062714Y-76173601D01*
X112969171Y-76186149D01*
X112945587Y-76188843D01*
X112844486Y-76212344D01*
X112695533Y-76254810D01*
X112521711Y-76309887D01*
X112361148Y-76362372D01*
X112043408Y-76462369D01*
X111727124Y-76557499D01*
X111438790Y-76639882D01*
X111204898Y-76701635D01*
X111042440Y-76743499D01*
X110370530Y-76959617D01*
X109746016Y-77235691D01*
X109151067Y-77579341D01*
X109101377Y-77611267D01*
X108895261Y-77739359D01*
X108682441Y-77866207D01*
X108501858Y-77968470D01*
X108479586Y-77980572D01*
X108213073Y-78129361D01*
X108007537Y-78253431D01*
X107847035Y-78362909D01*
X107715622Y-78467923D01*
X107608988Y-78567770D01*
X107458040Y-78722937D01*
X107289597Y-78906498D01*
X107116538Y-79103460D01*
X106951739Y-79298828D01*
X106808078Y-79477607D01*
X106698431Y-79624803D01*
X106635678Y-79725422D01*
X106601936Y-79792203D01*
X106545424Y-79891291D01*
X106508459Y-79939320D01*
X106494284Y-79951552D01*
X106434615Y-80030300D01*
X106354126Y-80158664D01*
X106264310Y-80316009D01*
X106176661Y-80481699D01*
X106102671Y-80635100D01*
X106053833Y-80755575D01*
X106048492Y-80771167D01*
X105988801Y-80923018D01*
X105906483Y-81108810D01*
X105817676Y-81291892D01*
X105805242Y-81316492D01*
X105679227Y-81595019D01*
X105553605Y-81920411D01*
X105433428Y-82274829D01*
X105323747Y-82640433D01*
X105229613Y-82999386D01*
X105156079Y-83333848D01*
X105108196Y-83625980D01*
X105091015Y-83857944D01*
X105090754Y-83878619D01*
X105076513Y-84054244D01*
X105047256Y-84222640D01*
X105038024Y-84264973D01*
X105011808Y-84415520D01*
X104984192Y-84607628D01*
X104959812Y-84810136D01*
X104933797Y-85050745D01*
X104909620Y-85268039D01*
X104890932Y-85423791D01*
X104875889Y-85530918D01*
X104862645Y-85602334D01*
X104849357Y-85650955D01*
X104834178Y-85689696D01*
X104820322Y-85732206D01*
X104795871Y-85854399D01*
X104778317Y-86001195D01*
X104767983Y-86083724D01*
X104735695Y-86216845D01*
X104694433Y-86301533D01*
X104688406Y-86309372D01*
X104666382Y-86360604D01*
X104647189Y-86450433D01*
X104629817Y-86588296D01*
X104613254Y-86783631D01*
X104596492Y-87045873D01*
X104578519Y-87384460D01*
X104575373Y-87446558D01*
X104556228Y-87791920D01*
X104533817Y-88153308D01*
X104509858Y-88505281D01*
X104486066Y-88822400D01*
X104464158Y-89079223D01*
X104446964Y-89302336D01*
X104429198Y-89628762D01*
X104413687Y-90022773D01*
X104400751Y-90474669D01*
X104390709Y-90974752D01*
X104383882Y-91513321D01*
X104382451Y-91658462D01*
X104377892Y-92032376D01*
X104372447Y-92378148D01*
X104366346Y-92686165D01*
X104359819Y-92946818D01*
X104353096Y-93150495D01*
X104346407Y-93287585D01*
X104339981Y-93348476D01*
X104333727Y-93376031D01*
X103953937Y-93376031D01*
X103954434Y-93327768D01*
X103956527Y-93297169D01*
X103962030Y-93166465D01*
X103967912Y-92964943D01*
X103973959Y-92703241D01*
X103979960Y-92391998D01*
X103985702Y-92041851D01*
X103990973Y-91663439D01*
X103995561Y-91267399D01*
X103997699Y-91076613D01*
X104002858Y-90698813D01*
X104008836Y-90349778D01*
X104015396Y-90039016D01*
X104022302Y-89776033D01*
X104029318Y-89570337D01*
X104036206Y-89431435D01*
X104042732Y-89368835D01*
X104048490Y-89347275D01*
X104048547Y-89287105D01*
X104003887Y-89283927D01*
X103909489Y-89339265D01*
X103760336Y-89454646D01*
X103614437Y-89571624D01*
X103421013Y-89714251D01*
X103267198Y-89807224D01*
X103140407Y-89857734D01*
X103028051Y-89872973D01*
X102882384Y-89848318D01*
X102796936Y-89772959D01*
X102781419Y-89650082D01*
X102813798Y-89576759D01*
X102924155Y-89507828D01*
X102937808Y-89503101D01*
X103097201Y-89429509D01*
X103280497Y-89310635D01*
X103503462Y-89136367D01*
X103584003Y-89074002D01*
X103728112Y-88977503D01*
X103850121Y-88912338D01*
X103872161Y-88902760D01*
X103981093Y-88844903D01*
X104049073Y-88792091D01*
X104065072Y-88763280D01*
X104083577Y-88699232D01*
X104100819Y-88596997D01*
X104117533Y-88448647D01*
X104134457Y-88246256D01*
X104152330Y-87981894D01*
X104171888Y-87647636D01*
X104193869Y-87235552D01*
X104207917Y-86989658D01*
X104228740Y-86700948D01*
X104250796Y-86471822D01*
X104273208Y-86311018D01*
X104295098Y-86227275D01*
X104317214Y-86159178D01*
X104346624Y-86018371D01*
X104375966Y-85833037D01*
X104401329Y-85625338D01*
X104417515Y-85472315D01*
X104444419Y-85224755D01*
X104470438Y-84992321D01*
X104491677Y-84810136D01*
X104500994Y-84731685D01*
X104525731Y-84515990D01*
X104552837Y-84272041D01*
X104577928Y-84039038D01*
X104593966Y-83905510D01*
X104623124Y-83718264D01*
X104654303Y-83568910D01*
X104683014Y-83481268D01*
X104697941Y-83446269D01*
X104735119Y-83324495D01*
X104776112Y-83155897D01*
X104814440Y-82965883D01*
X104833385Y-82865035D01*
X104868773Y-82693988D01*
X104900124Y-82562829D01*
X104922328Y-82493923D01*
X104946564Y-82433659D01*
X104990883Y-82308196D01*
X105048177Y-82137568D01*
X105111994Y-81940601D01*
X105158887Y-81801031D01*
X105260507Y-81527528D01*
X105373021Y-81251700D01*
X105479529Y-81016057D01*
X105553738Y-80859999D01*
X105625156Y-80701855D01*
X105673668Y-80584858D01*
X105691554Y-80526818D01*
X105708038Y-80463049D01*
X105762480Y-80341807D01*
X105843116Y-80192033D01*
X105937636Y-80036371D01*
X106033727Y-79897467D01*
X106070698Y-79846781D01*
X106160708Y-79711244D01*
X106225764Y-79597129D01*
X106247446Y-79553968D01*
X106333794Y-79404925D01*
X106446455Y-79243879D01*
X106594573Y-79059235D01*
X106787295Y-78839401D01*
X107033764Y-78572781D01*
X107132724Y-78467492D01*
X107260417Y-78333165D01*
X107370184Y-78223286D01*
X107473602Y-78129520D01*
X107582248Y-78043530D01*
X107707701Y-77956980D01*
X107861537Y-77861534D01*
X108055334Y-77748855D01*
X108300669Y-77610607D01*
X108609121Y-77438453D01*
X108710165Y-77379603D01*
X108877923Y-77276025D01*
X109039205Y-77171019D01*
X109273542Y-77029109D01*
X109573820Y-76873048D01*
X109909352Y-76717767D01*
X110255702Y-76573965D01*
X110588433Y-76452343D01*
X110883108Y-76363601D01*
X110997172Y-76334052D01*
X111494192Y-76199717D01*
X111958163Y-76065372D01*
X112363344Y-75938411D01*
X112411866Y-75922782D01*
X112620027Y-75862649D01*
X112861824Y-75803792D01*
X113150163Y-75743464D01*
X113497951Y-75678917D01*
X113918092Y-75607403D01*
X114000112Y-75594362D01*
X114419601Y-75541237D01*
X114842770Y-75508260D01*
X115252247Y-75495623D01*
X115630664Y-75503521D01*
X115960648Y-75532147D01*
X116224831Y-75581695D01*
X116296981Y-75601753D01*
X116470539Y-75653498D01*
X116681741Y-75719481D01*
X116913500Y-75794043D01*
X117148725Y-75871524D01*
X117370331Y-75946268D01*
X117561227Y-76012614D01*
X117704325Y-76064907D01*
X117782538Y-76097486D01*
X117793040Y-76102740D01*
X117880310Y-76142827D01*
X118016512Y-76202667D01*
X118177027Y-76271405D01*
X118291673Y-76322107D01*
X118524241Y-76433495D01*
X118787747Y-76567692D01*
X119064101Y-76714796D01*
X119335209Y-76864903D01*
X119582981Y-77008113D01*
X119789325Y-77134522D01*
X119936148Y-77234230D01*
X120051801Y-77315489D01*
X120230510Y-77432389D01*
X120436363Y-77560805D01*
X120644087Y-77684658D01*
X120918436Y-77855030D01*
X121138067Y-78015607D01*
X121287399Y-78155720D01*
X121332529Y-78206974D01*
X121459431Y-78347728D01*
X121610553Y-78512264D01*
X121762183Y-78674663D01*
X121834774Y-78753934D01*
X121978369Y-78922920D01*
X122102597Y-79084023D01*
X122186670Y-79210980D01*
X122215515Y-79261431D01*
X122307364Y-79418028D01*
X122418855Y-79604352D01*
X122531985Y-79790203D01*
X122634075Y-79961184D01*
X122824200Y-80302731D01*
X123013618Y-80669472D01*
X123193115Y-81041979D01*
X123353478Y-81400826D01*
X123485492Y-81726586D01*
X123579945Y-81999831D01*
X123622033Y-82126180D01*
X123683896Y-82296267D01*
X123751670Y-82471791D01*
X123816464Y-82642075D01*
X123889905Y-82850868D01*
X123946941Y-83029561D01*
X123982575Y-83149616D01*
X124027014Y-83295064D01*
X124058827Y-83394257D01*
X124083327Y-83486554D01*
X124114499Y-83634020D01*
X124144739Y-83801859D01*
X124175631Y-83963330D01*
X124215625Y-84128818D01*
X124253308Y-84246879D01*
X124258528Y-84259906D01*
X124296900Y-84375830D01*
X124312764Y-84461406D01*
X124331451Y-84545869D01*
X124377064Y-84654034D01*
X124410360Y-84738323D01*
X124452086Y-84888397D01*
X124485594Y-85055333D01*
X124507639Y-85180335D01*
X124552914Y-85400616D01*
X124600021Y-85597584D01*
X124627745Y-85720029D01*
X124656162Y-85903731D01*
X124665271Y-86054392D01*
X124667018Y-86144148D01*
X124677867Y-86314393D01*
X124696396Y-86522185D01*
X124720463Y-86740879D01*
X124737698Y-86898837D01*
X124761537Y-87157030D01*
X124785607Y-87455441D01*
X124807881Y-87768576D01*
X124826328Y-88070946D01*
X124840231Y-88322079D01*
X124856708Y-88615705D01*
X124872358Y-88890741D01*
X124885908Y-89124821D01*
X124896083Y-89295581D01*
X124919850Y-89683561D01*
X125183752Y-89917710D01*
X125400797Y-90112462D01*
X125570242Y-90270775D01*
X125688570Y-90391156D01*
X125763514Y-90482094D01*
X125802809Y-90552077D01*
X125814189Y-90609591D01*
X125800040Y-90712587D01*
X125740336Y-90794314D01*
X125642584Y-90808782D01*
X125516194Y-90755477D01*
X125370581Y-90633883D01*
X125293779Y-90558167D01*
X125167053Y-90443022D01*
X125063344Y-90359636D01*
X124934628Y-90268399D01*
X124962359Y-91304217D01*
X124967405Y-91507095D01*
X124971210Y-91696453D01*
X124972860Y-91778561D01*
G37*
%TD*%
M02*
