%TF.GenerationSoftware,KiCad,Pcbnew,9.0.7*%
%TF.CreationDate,2026-01-18T16:43:15-05:00*%
%TF.ProjectId,advanced_soldering_practice,61647661-6e63-4656-945f-736f6c646572,rev?*%
%TF.SameCoordinates,Original*%
%TF.FileFunction,Legend,Top*%
%TF.FilePolarity,Positive*%
%FSLAX46Y46*%
G04 Gerber Fmt 4.6, Leading zero omitted, Abs format (unit mm)*
G04 Created by KiCad (PCBNEW 9.0.7) date 2026-01-18 16:43:15*
%MOMM*%
%LPD*%
G01*
G04 APERTURE LIST*
%ADD10C,0.100000*%
%ADD11C,0.150000*%
%ADD12C,0.120000*%
%ADD13C,0.152400*%
G04 APERTURE END LIST*
D10*
X69000000Y-75000000D02*
X126000000Y-75000000D01*
X126000000Y-98000000D01*
X69000000Y-98000000D01*
X69000000Y-75000000D01*
G36*
X71778510Y-96653268D02*
G01*
X71770491Y-96734068D01*
X71747613Y-96802643D01*
X71710412Y-96861499D01*
X71657763Y-96912242D01*
X71595695Y-96951047D01*
X71522232Y-96979978D01*
X71435262Y-96998412D01*
X71332233Y-97004978D01*
X71229362Y-97000897D01*
X71137984Y-96989255D01*
X71053047Y-96969529D01*
X70989224Y-96945520D01*
X70989224Y-96795006D01*
X71056482Y-96820585D01*
X71145845Y-96845762D01*
X71240623Y-96862774D01*
X71339255Y-96868507D01*
X71431358Y-96861427D01*
X71499822Y-96842542D01*
X71550067Y-96814240D01*
X71589502Y-96773728D01*
X71612862Y-96725568D01*
X71620974Y-96667236D01*
X71614052Y-96609447D01*
X71594718Y-96564043D01*
X71561340Y-96525535D01*
X71504577Y-96486115D01*
X71433873Y-96451572D01*
X71326967Y-96410018D01*
X71223578Y-96365616D01*
X71144833Y-96318192D01*
X71086387Y-96268281D01*
X71051789Y-96224050D01*
X71026528Y-96172162D01*
X71010646Y-96111129D01*
X71005024Y-96038998D01*
X71010964Y-95974130D01*
X71028016Y-95917819D01*
X71055781Y-95868409D01*
X71093284Y-95825405D01*
X71139800Y-95789008D01*
X71196602Y-95759034D01*
X71257836Y-95738109D01*
X71326567Y-95725046D01*
X71403979Y-95720490D01*
X71504813Y-95725519D01*
X71592962Y-95739800D01*
X71676150Y-95762527D01*
X71748743Y-95790481D01*
X71699742Y-95925272D01*
X71633120Y-95899779D01*
X71558845Y-95878026D01*
X71481650Y-95863598D01*
X71400468Y-95858716D01*
X71323719Y-95865151D01*
X71266280Y-95882426D01*
X71223698Y-95908633D01*
X71190747Y-95945341D01*
X71171079Y-95988673D01*
X71164240Y-96040753D01*
X71171210Y-96100090D01*
X71190496Y-96145778D01*
X71223294Y-96184021D01*
X71276210Y-96221035D01*
X71341535Y-96253465D01*
X71437257Y-96292781D01*
X71542322Y-96336129D01*
X71623569Y-96379411D01*
X71671499Y-96413369D01*
X71709634Y-96450364D01*
X71739126Y-96490542D01*
X71760282Y-96535325D01*
X71773716Y-96588933D01*
X71778510Y-96653268D01*
G37*
G36*
X72580848Y-96987500D02*
G01*
X72169604Y-95891994D01*
X72162659Y-95891994D01*
X72171360Y-96038158D01*
X72174871Y-96229736D01*
X72174871Y-96987500D01*
X72029623Y-96987500D01*
X72029623Y-95737968D01*
X72262340Y-95737968D01*
X72647404Y-96761728D01*
X72654350Y-96761728D01*
X73046360Y-95737968D01*
X73277398Y-95737968D01*
X73277398Y-96987500D01*
X73121617Y-96987500D01*
X73121617Y-96219279D01*
X73125968Y-96038998D01*
X73133906Y-95893750D01*
X73126884Y-95893750D01*
X72710373Y-96987500D01*
X72580848Y-96987500D01*
G37*
G36*
X74125369Y-95746314D02*
G01*
X74233609Y-95770089D01*
X74328177Y-95808036D01*
X74393713Y-95847363D01*
X74450709Y-95894428D01*
X74499915Y-95949613D01*
X74541737Y-96013657D01*
X74573362Y-96082077D01*
X74596903Y-96160038D01*
X74611768Y-96248966D01*
X74616994Y-96350484D01*
X74609004Y-96479597D01*
X74586538Y-96589070D01*
X74551257Y-96681937D01*
X74503967Y-96760730D01*
X74444574Y-96827368D01*
X74373726Y-96882738D01*
X74292081Y-96926795D01*
X74198036Y-96959518D01*
X74089556Y-96980203D01*
X73964255Y-96987500D01*
X73615980Y-96987500D01*
X73615980Y-96852784D01*
X73773517Y-96852784D01*
X73943265Y-96852784D01*
X74058550Y-96845520D01*
X74153803Y-96825323D01*
X74232363Y-96793968D01*
X74296990Y-96752335D01*
X74349725Y-96700338D01*
X74391743Y-96636936D01*
X74423255Y-96560222D01*
X74443492Y-96467565D01*
X74450756Y-96355750D01*
X74444824Y-96252448D01*
X74428325Y-96166702D01*
X74402774Y-96095728D01*
X74369050Y-96037162D01*
X74327337Y-95989157D01*
X74262719Y-95940282D01*
X74184893Y-95904081D01*
X74091195Y-95881013D01*
X73978223Y-95872760D01*
X73773517Y-95872760D01*
X73773517Y-96852784D01*
X73615980Y-96852784D01*
X73615980Y-95737968D01*
X74000968Y-95737968D01*
X74125369Y-95746314D01*
G37*
G36*
X76056424Y-96653268D02*
G01*
X76048405Y-96734068D01*
X76025527Y-96802643D01*
X75988325Y-96861499D01*
X75935676Y-96912242D01*
X75873608Y-96951047D01*
X75800145Y-96979978D01*
X75713175Y-96998412D01*
X75610146Y-97004978D01*
X75507276Y-97000897D01*
X75415897Y-96989255D01*
X75330961Y-96969529D01*
X75267138Y-96945520D01*
X75267138Y-96795006D01*
X75334396Y-96820585D01*
X75423759Y-96845762D01*
X75518537Y-96862774D01*
X75617168Y-96868507D01*
X75709271Y-96861427D01*
X75777735Y-96842542D01*
X75827981Y-96814240D01*
X75867415Y-96773728D01*
X75890776Y-96725568D01*
X75898887Y-96667236D01*
X75891965Y-96609447D01*
X75872631Y-96564043D01*
X75839253Y-96525535D01*
X75782490Y-96486115D01*
X75711787Y-96451572D01*
X75604880Y-96410018D01*
X75501491Y-96365616D01*
X75422747Y-96318192D01*
X75364301Y-96268281D01*
X75329703Y-96224050D01*
X75304441Y-96172162D01*
X75288559Y-96111129D01*
X75282937Y-96038998D01*
X75288877Y-95974130D01*
X75305929Y-95917819D01*
X75333694Y-95868409D01*
X75371197Y-95825405D01*
X75417714Y-95789008D01*
X75474515Y-95759034D01*
X75535749Y-95738109D01*
X75604481Y-95725046D01*
X75681893Y-95720490D01*
X75782727Y-95725519D01*
X75870876Y-95739800D01*
X75954064Y-95762527D01*
X76026657Y-95790481D01*
X75977656Y-95925272D01*
X75911034Y-95899779D01*
X75836758Y-95878026D01*
X75759563Y-95863598D01*
X75678382Y-95858716D01*
X75601633Y-95865151D01*
X75544193Y-95882426D01*
X75501611Y-95908633D01*
X75468660Y-95945341D01*
X75448993Y-95988673D01*
X75442153Y-96040753D01*
X75449124Y-96100090D01*
X75468409Y-96145778D01*
X75501207Y-96184021D01*
X75554123Y-96221035D01*
X75619448Y-96253465D01*
X75715171Y-96292781D01*
X75820235Y-96336129D01*
X75901482Y-96379411D01*
X75949412Y-96413369D01*
X75987547Y-96450364D01*
X76017040Y-96490542D01*
X76038196Y-96535325D01*
X76051630Y-96588933D01*
X76056424Y-96653268D01*
G37*
G36*
X76753399Y-96038605D02*
G01*
X76827820Y-96057751D01*
X76894635Y-96088915D01*
X76954245Y-96132027D01*
X77004813Y-96186400D01*
X77046905Y-96253397D01*
X77076510Y-96327128D01*
X77095323Y-96414063D01*
X77102012Y-96516721D01*
X77093625Y-96633318D01*
X77070182Y-96730086D01*
X77033420Y-96810496D01*
X76983860Y-96877285D01*
X76920844Y-96932305D01*
X76848027Y-96971824D01*
X76763481Y-96996359D01*
X76664512Y-97004978D01*
X76583236Y-96998419D01*
X76509904Y-96979357D01*
X76443091Y-96948115D01*
X76383579Y-96904950D01*
X76332710Y-96850033D01*
X76289981Y-96781878D01*
X76259855Y-96706966D01*
X76240789Y-96619376D01*
X76234034Y-96516721D01*
X76393250Y-96516721D01*
X76401508Y-96626004D01*
X76424115Y-96712295D01*
X76458890Y-96780198D01*
X76495506Y-96821752D01*
X76541135Y-96851661D01*
X76597667Y-96870514D01*
X76668023Y-96877285D01*
X76737415Y-96870560D01*
X76793558Y-96851774D01*
X76839236Y-96821867D01*
X76876240Y-96780198D01*
X76911527Y-96712226D01*
X76934434Y-96625935D01*
X76942797Y-96516721D01*
X76934378Y-96407554D01*
X76911429Y-96322288D01*
X76876240Y-96255992D01*
X76839408Y-96215669D01*
X76793568Y-96186529D01*
X76736814Y-96168117D01*
X76666268Y-96161501D01*
X76595703Y-96168144D01*
X76539286Y-96186588D01*
X76494032Y-96215719D01*
X76457974Y-96255992D01*
X76423807Y-96322149D01*
X76401460Y-96407413D01*
X76393250Y-96516721D01*
X76234034Y-96516721D01*
X76242393Y-96400052D01*
X76265708Y-96303628D01*
X76302188Y-96223879D01*
X76351271Y-96157990D01*
X76413780Y-96103794D01*
X76486266Y-96064782D01*
X76570691Y-96040514D01*
X76669779Y-96031976D01*
X76753399Y-96038605D01*
G37*
G36*
X77498144Y-96987500D02*
G01*
X77344118Y-96987500D01*
X77344118Y-95657521D01*
X77498144Y-95657521D01*
X77498144Y-96987500D01*
G37*
G36*
X78573499Y-96987500D02*
G01*
X78449241Y-96987500D01*
X78426495Y-96861485D01*
X78419474Y-96861485D01*
X78371274Y-96915919D01*
X78307503Y-96962999D01*
X78259073Y-96985398D01*
X78199782Y-96999791D01*
X78127222Y-97004978D01*
X78041854Y-96996941D01*
X77968134Y-96973895D01*
X77903762Y-96936357D01*
X77847182Y-96883391D01*
X77804134Y-96820488D01*
X77771377Y-96741474D01*
X77750010Y-96642822D01*
X77742457Y-96523743D01*
X77901450Y-96523743D01*
X77909426Y-96634477D01*
X77930972Y-96719624D01*
X77963579Y-96784549D01*
X77998295Y-96824816D01*
X78040139Y-96853334D01*
X78090516Y-96871017D01*
X78151722Y-96877285D01*
X78226355Y-96871221D01*
X78283792Y-96854761D01*
X78327731Y-96829567D01*
X78360855Y-96795922D01*
X78392165Y-96738270D01*
X78413264Y-96658528D01*
X78421229Y-96550000D01*
X78421229Y-96521988D01*
X78413672Y-96406049D01*
X78393486Y-96318544D01*
X78363450Y-96253397D01*
X78330674Y-96214341D01*
X78286306Y-96185465D01*
X78227485Y-96166680D01*
X78149967Y-96159745D01*
X78090143Y-96166292D01*
X78040457Y-96184893D01*
X77998687Y-96215234D01*
X77963579Y-96258664D01*
X77930693Y-96327366D01*
X77909271Y-96414263D01*
X77901450Y-96523743D01*
X77742457Y-96523743D01*
X77742234Y-96520232D01*
X77750042Y-96397778D01*
X77771541Y-96298814D01*
X77804580Y-96219162D01*
X77848098Y-96155395D01*
X77905193Y-96101518D01*
X77969894Y-96063430D01*
X78043730Y-96040098D01*
X78128977Y-96031976D01*
X78200449Y-96036962D01*
X78258871Y-96050789D01*
X78306588Y-96072276D01*
X78370069Y-96117483D01*
X78419474Y-96170278D01*
X78430006Y-96170278D01*
X78423824Y-96102882D01*
X78419474Y-96031976D01*
X78419474Y-95657521D01*
X78573499Y-95657521D01*
X78573499Y-96987500D01*
G37*
G36*
X79311929Y-96038192D02*
G01*
X79380449Y-96055940D01*
X79440256Y-96084488D01*
X79493307Y-96124057D01*
X79537429Y-96172997D01*
X79573216Y-96232407D01*
X79598389Y-96297498D01*
X79614118Y-96371352D01*
X79619622Y-96455508D01*
X79619622Y-96548244D01*
X78977339Y-96548244D01*
X78984590Y-96628326D01*
X79001267Y-96693803D01*
X79026128Y-96747232D01*
X79058703Y-96790655D01*
X79100171Y-96826096D01*
X79149214Y-96851857D01*
X79207343Y-96868037D01*
X79276613Y-96873774D01*
X79363222Y-96869362D01*
X79434989Y-96857135D01*
X79504163Y-96837134D01*
X79577643Y-96808973D01*
X79577643Y-96943765D01*
X79505537Y-96971369D01*
X79435905Y-96990095D01*
X79362595Y-97000959D01*
X79269591Y-97004978D01*
X79182303Y-96998653D01*
X79104337Y-96980395D01*
X79034202Y-96950787D01*
X78971309Y-96908918D01*
X78918500Y-96855403D01*
X78874986Y-96788900D01*
X78844407Y-96715059D01*
X78825012Y-96628107D01*
X78818124Y-96525499D01*
X78824228Y-96425741D01*
X78980850Y-96425741D01*
X79458650Y-96425741D01*
X79451022Y-96348087D01*
X79431974Y-96284542D01*
X79402627Y-96232407D01*
X79372741Y-96200802D01*
X79335392Y-96177825D01*
X79288974Y-96163243D01*
X79231123Y-96157990D01*
X79160797Y-96166376D01*
X79103788Y-96190087D01*
X79057024Y-96228896D01*
X79021572Y-96279597D01*
X78995825Y-96344108D01*
X78980850Y-96425741D01*
X78824228Y-96425741D01*
X78824346Y-96423805D01*
X78841937Y-96336441D01*
X78869720Y-96261259D01*
X78909636Y-96192229D01*
X78957913Y-96136153D01*
X79014968Y-96091510D01*
X79079707Y-96058856D01*
X79151789Y-96038881D01*
X79232879Y-96031976D01*
X79311929Y-96038192D01*
G37*
G36*
X80294877Y-96031976D02*
G01*
X80351740Y-96034647D01*
X80405092Y-96042509D01*
X80385857Y-96184246D01*
X80335940Y-96175545D01*
X80284344Y-96172034D01*
X80237619Y-96176383D01*
X80192931Y-96189386D01*
X80149552Y-96211418D01*
X80110766Y-96240789D01*
X80077330Y-96277254D01*
X80048955Y-96321632D01*
X80028517Y-96370164D01*
X80015827Y-96424907D01*
X80011403Y-96487031D01*
X80011403Y-96987500D01*
X79857377Y-96987500D01*
X79857377Y-96049531D01*
X79983391Y-96049531D01*
X80000870Y-96221035D01*
X80007892Y-96221035D01*
X80059821Y-96149411D01*
X80125128Y-96087999D01*
X80175428Y-96057083D01*
X80231482Y-96038407D01*
X80294877Y-96031976D01*
G37*
G36*
X80657883Y-95697745D02*
G01*
X80690762Y-95703617D01*
X80719936Y-95721406D01*
X80739675Y-95750086D01*
X80747108Y-95795747D01*
X80739778Y-95840039D01*
X80719936Y-95869249D01*
X80690700Y-95887693D01*
X80657883Y-95893750D01*
X80622117Y-95887513D01*
X80593082Y-95869249D01*
X80573942Y-95840127D01*
X80566826Y-95795747D01*
X80574043Y-95749993D01*
X80593082Y-95721406D01*
X80622052Y-95703792D01*
X80657883Y-95697745D01*
G37*
G36*
X80733140Y-96049531D02*
G01*
X80733140Y-96987500D01*
X80579115Y-96987500D01*
X80579115Y-96049531D01*
X80733140Y-96049531D01*
G37*
G36*
X81481210Y-96031976D02*
G01*
X81565824Y-96037897D01*
X81634475Y-96054269D01*
X81690070Y-96079625D01*
X81734918Y-96113415D01*
X81770004Y-96156420D01*
X81796709Y-96212401D01*
X81814256Y-96284506D01*
X81820708Y-96376740D01*
X81820708Y-96987500D01*
X81668514Y-96987500D01*
X81668514Y-96387273D01*
X81661638Y-96312964D01*
X81643122Y-96257571D01*
X81614750Y-96216614D01*
X81576270Y-96187189D01*
X81525453Y-96168393D01*
X81458465Y-96161501D01*
X81380476Y-96168052D01*
X81321173Y-96185766D01*
X81276402Y-96212829D01*
X81243226Y-96249047D01*
X81212188Y-96310376D01*
X81191491Y-96392442D01*
X81183768Y-96500998D01*
X81183768Y-96987500D01*
X81029743Y-96987500D01*
X81029743Y-96049531D01*
X81154001Y-96049531D01*
X81176746Y-96177224D01*
X81185447Y-96177224D01*
X81219708Y-96132396D01*
X81261418Y-96096148D01*
X81311461Y-96067849D01*
X81394036Y-96040970D01*
X81481210Y-96031976D01*
G37*
G36*
X82532376Y-96040998D02*
G01*
X82610070Y-96067009D01*
X82656774Y-96094069D01*
X82698955Y-96129371D01*
X82737000Y-96173713D01*
X82745778Y-96173713D01*
X82766767Y-96049531D01*
X82889270Y-96049531D01*
X82889270Y-97003223D01*
X82881860Y-97104277D01*
X82861354Y-97186185D01*
X82829502Y-97252506D01*
X82786841Y-97306007D01*
X82733107Y-97347747D01*
X82664663Y-97379361D01*
X82578131Y-97399989D01*
X82469249Y-97407521D01*
X82332189Y-97400024D01*
X82221067Y-97379426D01*
X82131507Y-97347987D01*
X82131507Y-97206250D01*
X82201040Y-97236989D01*
X82280908Y-97260001D01*
X82372656Y-97274600D01*
X82478026Y-97279751D01*
X82555572Y-97271221D01*
X82617690Y-97247334D01*
X82667849Y-97208845D01*
X82705299Y-97157710D01*
X82728649Y-97094416D01*
X82737000Y-97015511D01*
X82737000Y-96978722D01*
X82738756Y-96918348D01*
X82742267Y-96863241D01*
X82735245Y-96863241D01*
X82693842Y-96913816D01*
X82645321Y-96952739D01*
X82588757Y-96981020D01*
X82522592Y-96998728D01*
X82444748Y-97004978D01*
X82356018Y-96996451D01*
X82280681Y-96972154D01*
X82216053Y-96932766D01*
X82160358Y-96877285D01*
X82117834Y-96811490D01*
X82085896Y-96731947D01*
X82065372Y-96635953D01*
X82058117Y-96521988D01*
X82217221Y-96521988D01*
X82225508Y-96636237D01*
X82247728Y-96722593D01*
X82281106Y-96787144D01*
X82316587Y-96827206D01*
X82358506Y-96855444D01*
X82408122Y-96872839D01*
X82467493Y-96878964D01*
X82538541Y-96873396D01*
X82594779Y-96858113D01*
X82639176Y-96834504D01*
X82673955Y-96802867D01*
X82699900Y-96763756D01*
X82720175Y-96711961D01*
X82733728Y-96644316D01*
X82738756Y-96557021D01*
X82738756Y-96520232D01*
X82733485Y-96420500D01*
X82719386Y-96344291D01*
X82698543Y-96286970D01*
X82672276Y-96244620D01*
X82636200Y-96209640D01*
X82590943Y-96183911D01*
X82534479Y-96167452D01*
X82463982Y-96161501D01*
X82407558Y-96167600D01*
X82359500Y-96185097D01*
X82317983Y-96213856D01*
X82281945Y-96255153D01*
X82248039Y-96320819D01*
X82225569Y-96407819D01*
X82217221Y-96521988D01*
X82058117Y-96521988D01*
X82058005Y-96520232D01*
X82065243Y-96407585D01*
X82085574Y-96312460D01*
X82117499Y-96232066D01*
X82160358Y-96164096D01*
X82216341Y-96106369D01*
X82280824Y-96065668D01*
X82355495Y-96040704D01*
X82442993Y-96031976D01*
X82532376Y-96040998D01*
G37*
G36*
X84118080Y-95745372D02*
G01*
X84216092Y-95765400D01*
X84291729Y-95795497D01*
X84349385Y-95834215D01*
X84397502Y-95886022D01*
X84432151Y-95947128D01*
X84453781Y-96019395D01*
X84461431Y-96105478D01*
X84456223Y-96173196D01*
X84440786Y-96237396D01*
X84415025Y-96298887D01*
X84378428Y-96353666D01*
X84327357Y-96402278D01*
X84259320Y-96445051D01*
X84184181Y-96474317D01*
X84087038Y-96493797D01*
X83962718Y-96500998D01*
X83819225Y-96500998D01*
X83819225Y-96987500D01*
X83661688Y-96987500D01*
X83661688Y-96366283D01*
X83819225Y-96366283D01*
X83945163Y-96366283D01*
X84063632Y-96358545D01*
X84149792Y-96338214D01*
X84211158Y-96308504D01*
X84248141Y-96276133D01*
X84275136Y-96234281D01*
X84292417Y-96180807D01*
X84298704Y-96112500D01*
X84293332Y-96052992D01*
X84278321Y-96004482D01*
X84254530Y-95964756D01*
X84221691Y-95932294D01*
X84166817Y-95901677D01*
X84088305Y-95880756D01*
X83978441Y-95872760D01*
X83819225Y-95872760D01*
X83819225Y-96366283D01*
X83661688Y-96366283D01*
X83661688Y-95737968D01*
X83992408Y-95737968D01*
X84118080Y-95745372D01*
G37*
G36*
X85135770Y-96031976D02*
G01*
X85192633Y-96034647D01*
X85245985Y-96042509D01*
X85226751Y-96184246D01*
X85176834Y-96175545D01*
X85125237Y-96172034D01*
X85078512Y-96176383D01*
X85033824Y-96189386D01*
X84990446Y-96211418D01*
X84951660Y-96240789D01*
X84918223Y-96277254D01*
X84889848Y-96321632D01*
X84869411Y-96370164D01*
X84856720Y-96424907D01*
X84852296Y-96487031D01*
X84852296Y-96987500D01*
X84698270Y-96987500D01*
X84698270Y-96049531D01*
X84824284Y-96049531D01*
X84841763Y-96221035D01*
X84848785Y-96221035D01*
X84900715Y-96149411D01*
X84966021Y-96087999D01*
X85016321Y-96057083D01*
X85072375Y-96038407D01*
X85135770Y-96031976D01*
G37*
G36*
X85828209Y-96039366D02*
G01*
X85897415Y-96054765D01*
X85952015Y-96078245D01*
X85994742Y-96108989D01*
X86028678Y-96148995D01*
X86054255Y-96200375D01*
X86070925Y-96265798D01*
X86077021Y-96348728D01*
X86077021Y-96987500D01*
X85965051Y-96987500D01*
X85935284Y-96854463D01*
X85928338Y-96854463D01*
X85863474Y-96923220D01*
X85799653Y-96968265D01*
X85753214Y-96987419D01*
X85692307Y-97000222D01*
X85613341Y-97004978D01*
X85530512Y-96996991D01*
X85460793Y-96974312D01*
X85401537Y-96937659D01*
X85366207Y-96901106D01*
X85340216Y-96855272D01*
X85323589Y-96798110D01*
X85317726Y-96728526D01*
X85476794Y-96728526D01*
X85482740Y-96778688D01*
X85498999Y-96816126D01*
X85524880Y-96844007D01*
X85558743Y-96863860D01*
X85599331Y-96876299D01*
X85648299Y-96880720D01*
X85725255Y-96872993D01*
X85790358Y-96850969D01*
X85846059Y-96815156D01*
X85879198Y-96779746D01*
X85903599Y-96735632D01*
X85919197Y-96680911D01*
X85924827Y-96612968D01*
X85924827Y-96529010D01*
X85786525Y-96534276D01*
X85669497Y-96545560D01*
X85592401Y-96565311D01*
X85544190Y-96590223D01*
X85506862Y-96627210D01*
X85484597Y-96672420D01*
X85476794Y-96728526D01*
X85317726Y-96728526D01*
X85317578Y-96726770D01*
X85324802Y-96659251D01*
X85345465Y-96602052D01*
X85379320Y-96552944D01*
X85427793Y-96510615D01*
X85483351Y-96479910D01*
X85555808Y-96454852D01*
X85648987Y-96436746D01*
X85767291Y-96427496D01*
X85926583Y-96422230D01*
X85926583Y-96366283D01*
X85919698Y-96289612D01*
X85901925Y-96237642D01*
X85875826Y-96203480D01*
X85839404Y-96179199D01*
X85792560Y-96163655D01*
X85732333Y-96157990D01*
X85660163Y-96163530D01*
X85592275Y-96179895D01*
X85468017Y-96229736D01*
X85420771Y-96114255D01*
X85485606Y-96084235D01*
X85566019Y-96057392D01*
X85651356Y-96039705D01*
X85741034Y-96033731D01*
X85828209Y-96039366D01*
G37*
G36*
X86742659Y-97004978D02*
G01*
X86661130Y-96999079D01*
X86587786Y-96982001D01*
X86521314Y-96954221D01*
X86461908Y-96914719D01*
X86411357Y-96862782D01*
X86369044Y-96796761D01*
X86339765Y-96723493D01*
X86320795Y-96633637D01*
X86313937Y-96523743D01*
X86321168Y-96409195D01*
X86341071Y-96316592D01*
X86371639Y-96242025D01*
X86415689Y-96174883D01*
X86467696Y-96122360D01*
X86528260Y-96082732D01*
X86595878Y-96054956D01*
X86670421Y-96037875D01*
X86753192Y-96031976D01*
X86824054Y-96035743D01*
X86891418Y-96046859D01*
X86954500Y-96064160D01*
X86999954Y-96082732D01*
X86952708Y-96210502D01*
X86854629Y-96180811D01*
X86799330Y-96170134D01*
X86749681Y-96166767D01*
X86675827Y-96174122D01*
X86616479Y-96194629D01*
X86568484Y-96227314D01*
X86529887Y-96273071D01*
X86500202Y-96334538D01*
X86480475Y-96415786D01*
X86473152Y-96521988D01*
X86478136Y-96608419D01*
X86491876Y-96678814D01*
X86512954Y-96735872D01*
X86540548Y-96781878D01*
X86577540Y-96820662D01*
X86622107Y-96848466D01*
X86675786Y-96865842D01*
X86740904Y-96872018D01*
X86815421Y-96867840D01*
X86876535Y-96856295D01*
X86933547Y-96838473D01*
X86984154Y-96817751D01*
X86984154Y-96954221D01*
X86935093Y-96975666D01*
X86880046Y-96991850D01*
X86820186Y-97001410D01*
X86742659Y-97004978D01*
G37*
G36*
X87518664Y-96878964D02*
G01*
X87590411Y-96872858D01*
X87649945Y-96859730D01*
X87649945Y-96976967D01*
X87622565Y-96987449D01*
X87579878Y-96997117D01*
X87492408Y-97004978D01*
X87420993Y-96998501D01*
X87356777Y-96979638D01*
X87318422Y-96958830D01*
X87285028Y-96929717D01*
X87256103Y-96891253D01*
X87236004Y-96847487D01*
X87222612Y-96789774D01*
X87217635Y-96714482D01*
X87217635Y-96168523D01*
X87084675Y-96168523D01*
X87084675Y-96095021D01*
X87219391Y-96033731D01*
X87280680Y-95834215D01*
X87371661Y-95834215D01*
X87371661Y-96049531D01*
X87642923Y-96049531D01*
X87642923Y-96168523D01*
X87371661Y-96168523D01*
X87371661Y-96710971D01*
X87376940Y-96766707D01*
X87391108Y-96807833D01*
X87412800Y-96837901D01*
X87442432Y-96860481D01*
X87477218Y-96874178D01*
X87518664Y-96878964D01*
G37*
G36*
X87915559Y-95697745D02*
G01*
X87948438Y-95703617D01*
X87977612Y-95721406D01*
X87997351Y-95750086D01*
X88004784Y-95795747D01*
X87997454Y-95840039D01*
X87977612Y-95869249D01*
X87948376Y-95887693D01*
X87915559Y-95893750D01*
X87879793Y-95887513D01*
X87850758Y-95869249D01*
X87831618Y-95840127D01*
X87824502Y-95795747D01*
X87831720Y-95749993D01*
X87850758Y-95721406D01*
X87879728Y-95703792D01*
X87915559Y-95697745D01*
G37*
G36*
X87990816Y-96049531D02*
G01*
X87990816Y-96987500D01*
X87836791Y-96987500D01*
X87836791Y-96049531D01*
X87990816Y-96049531D01*
G37*
G36*
X88663629Y-97004978D02*
G01*
X88582100Y-96999079D01*
X88508756Y-96982001D01*
X88442284Y-96954221D01*
X88382878Y-96914719D01*
X88332327Y-96862782D01*
X88290014Y-96796761D01*
X88260735Y-96723493D01*
X88241765Y-96633637D01*
X88234907Y-96523743D01*
X88242138Y-96409195D01*
X88262041Y-96316592D01*
X88292609Y-96242025D01*
X88336659Y-96174883D01*
X88388666Y-96122360D01*
X88449230Y-96082732D01*
X88516848Y-96054956D01*
X88591391Y-96037875D01*
X88674162Y-96031976D01*
X88745024Y-96035743D01*
X88812388Y-96046859D01*
X88875470Y-96064160D01*
X88920924Y-96082732D01*
X88873678Y-96210502D01*
X88775599Y-96180811D01*
X88720300Y-96170134D01*
X88670651Y-96166767D01*
X88596797Y-96174122D01*
X88537449Y-96194629D01*
X88489453Y-96227314D01*
X88450857Y-96273071D01*
X88421172Y-96334538D01*
X88401445Y-96415786D01*
X88394122Y-96521988D01*
X88399106Y-96608419D01*
X88412846Y-96678814D01*
X88433924Y-96735872D01*
X88461518Y-96781878D01*
X88498510Y-96820662D01*
X88543077Y-96848466D01*
X88596756Y-96865842D01*
X88661874Y-96872018D01*
X88736391Y-96867840D01*
X88797505Y-96856295D01*
X88854517Y-96838473D01*
X88905124Y-96817751D01*
X88905124Y-96954221D01*
X88856063Y-96975666D01*
X88801016Y-96991850D01*
X88741156Y-97001410D01*
X88663629Y-97004978D01*
G37*
G36*
X89567686Y-96038192D02*
G01*
X89636207Y-96055940D01*
X89696013Y-96084488D01*
X89749064Y-96124057D01*
X89793187Y-96172997D01*
X89828973Y-96232407D01*
X89854146Y-96297498D01*
X89869875Y-96371352D01*
X89875379Y-96455508D01*
X89875379Y-96548244D01*
X89233097Y-96548244D01*
X89240347Y-96628326D01*
X89257024Y-96693803D01*
X89281885Y-96747232D01*
X89314460Y-96790655D01*
X89355928Y-96826096D01*
X89404971Y-96851857D01*
X89463100Y-96868037D01*
X89532370Y-96873774D01*
X89618979Y-96869362D01*
X89690747Y-96857135D01*
X89759920Y-96837134D01*
X89833400Y-96808973D01*
X89833400Y-96943765D01*
X89761294Y-96971369D01*
X89691663Y-96990095D01*
X89618352Y-97000959D01*
X89525348Y-97004978D01*
X89438060Y-96998653D01*
X89360094Y-96980395D01*
X89289959Y-96950787D01*
X89227066Y-96908918D01*
X89174257Y-96855403D01*
X89130744Y-96788900D01*
X89100164Y-96715059D01*
X89080769Y-96628107D01*
X89073881Y-96525499D01*
X89079985Y-96425741D01*
X89236608Y-96425741D01*
X89714408Y-96425741D01*
X89706779Y-96348087D01*
X89687732Y-96284542D01*
X89658384Y-96232407D01*
X89628498Y-96200802D01*
X89591150Y-96177825D01*
X89544731Y-96163243D01*
X89486880Y-96157990D01*
X89416554Y-96166376D01*
X89359545Y-96190087D01*
X89312781Y-96228896D01*
X89277329Y-96279597D01*
X89251582Y-96344108D01*
X89236608Y-96425741D01*
X89079985Y-96425741D01*
X89080103Y-96423805D01*
X89097694Y-96336441D01*
X89125477Y-96261259D01*
X89165394Y-96192229D01*
X89213670Y-96136153D01*
X89270725Y-96091510D01*
X89335464Y-96058856D01*
X89407546Y-96038881D01*
X89488636Y-96031976D01*
X89567686Y-96038192D01*
G37*
G36*
X91501884Y-96987500D02*
G01*
X91316412Y-96987500D01*
X90873645Y-96390784D01*
X90745952Y-96502754D01*
X90745952Y-96987500D01*
X90588415Y-96987500D01*
X90588415Y-95737968D01*
X90745952Y-95737968D01*
X90745952Y-96353995D01*
X90852656Y-96235003D01*
X90961191Y-96116010D01*
X91298933Y-95737968D01*
X91482650Y-95737968D01*
X90987447Y-96282248D01*
X91501884Y-96987500D01*
G37*
G36*
X91729411Y-95697745D02*
G01*
X91762290Y-95703617D01*
X91791464Y-95721406D01*
X91811203Y-95750086D01*
X91818636Y-95795747D01*
X91811306Y-95840039D01*
X91791464Y-95869249D01*
X91762229Y-95887693D01*
X91729411Y-95893750D01*
X91693645Y-95887513D01*
X91664610Y-95869249D01*
X91645471Y-95840127D01*
X91638354Y-95795747D01*
X91645572Y-95749993D01*
X91664610Y-95721406D01*
X91693580Y-95703792D01*
X91729411Y-95697745D01*
G37*
G36*
X91804668Y-96049531D02*
G01*
X91804668Y-96987500D01*
X91650643Y-96987500D01*
X91650643Y-96049531D01*
X91804668Y-96049531D01*
G37*
G36*
X92414512Y-96878964D02*
G01*
X92486259Y-96872858D01*
X92545793Y-96859730D01*
X92545793Y-96976967D01*
X92518413Y-96987449D01*
X92475726Y-96997117D01*
X92388256Y-97004978D01*
X92316841Y-96998501D01*
X92252625Y-96979638D01*
X92214270Y-96958830D01*
X92180876Y-96929717D01*
X92151951Y-96891253D01*
X92131852Y-96847487D01*
X92118460Y-96789774D01*
X92113483Y-96714482D01*
X92113483Y-96168523D01*
X91980523Y-96168523D01*
X91980523Y-96095021D01*
X92115239Y-96033731D01*
X92176528Y-95834215D01*
X92267509Y-95834215D01*
X92267509Y-96049531D01*
X92538771Y-96049531D01*
X92538771Y-96168523D01*
X92267509Y-96168523D01*
X92267509Y-96710971D01*
X92272788Y-96766707D01*
X92286956Y-96807833D01*
X92308648Y-96837901D01*
X92338280Y-96860481D01*
X92373066Y-96874178D01*
X92414512Y-96878964D01*
G37*
D11*
X114904819Y-92916666D02*
X114428628Y-93249999D01*
X114904819Y-93488094D02*
X113904819Y-93488094D01*
X113904819Y-93488094D02*
X113904819Y-93107142D01*
X113904819Y-93107142D02*
X113952438Y-93011904D01*
X113952438Y-93011904D02*
X114000057Y-92964285D01*
X114000057Y-92964285D02*
X114095295Y-92916666D01*
X114095295Y-92916666D02*
X114238152Y-92916666D01*
X114238152Y-92916666D02*
X114333390Y-92964285D01*
X114333390Y-92964285D02*
X114381009Y-93011904D01*
X114381009Y-93011904D02*
X114428628Y-93107142D01*
X114428628Y-93107142D02*
X114428628Y-93488094D01*
X113904819Y-92583332D02*
X113904819Y-91964285D01*
X113904819Y-91964285D02*
X114285771Y-92297618D01*
X114285771Y-92297618D02*
X114285771Y-92154761D01*
X114285771Y-92154761D02*
X114333390Y-92059523D01*
X114333390Y-92059523D02*
X114381009Y-92011904D01*
X114381009Y-92011904D02*
X114476247Y-91964285D01*
X114476247Y-91964285D02*
X114714342Y-91964285D01*
X114714342Y-91964285D02*
X114809580Y-92011904D01*
X114809580Y-92011904D02*
X114857200Y-92059523D01*
X114857200Y-92059523D02*
X114904819Y-92154761D01*
X114904819Y-92154761D02*
X114904819Y-92440475D01*
X114904819Y-92440475D02*
X114857200Y-92535713D01*
X114857200Y-92535713D02*
X114809580Y-92583332D01*
X82014285Y-85981009D02*
X82157142Y-86028628D01*
X82157142Y-86028628D02*
X82204761Y-86076247D01*
X82204761Y-86076247D02*
X82252380Y-86171485D01*
X82252380Y-86171485D02*
X82252380Y-86314342D01*
X82252380Y-86314342D02*
X82204761Y-86409580D01*
X82204761Y-86409580D02*
X82157142Y-86457200D01*
X82157142Y-86457200D02*
X82061904Y-86504819D01*
X82061904Y-86504819D02*
X81680952Y-86504819D01*
X81680952Y-86504819D02*
X81680952Y-85504819D01*
X81680952Y-85504819D02*
X82014285Y-85504819D01*
X82014285Y-85504819D02*
X82109523Y-85552438D01*
X82109523Y-85552438D02*
X82157142Y-85600057D01*
X82157142Y-85600057D02*
X82204761Y-85695295D01*
X82204761Y-85695295D02*
X82204761Y-85790533D01*
X82204761Y-85790533D02*
X82157142Y-85885771D01*
X82157142Y-85885771D02*
X82109523Y-85933390D01*
X82109523Y-85933390D02*
X82014285Y-85981009D01*
X82014285Y-85981009D02*
X81680952Y-85981009D01*
X82538095Y-85504819D02*
X83109523Y-85504819D01*
X82823809Y-86504819D02*
X82823809Y-85504819D01*
X83966666Y-86504819D02*
X83395238Y-86504819D01*
X83680952Y-86504819D02*
X83680952Y-85504819D01*
X83680952Y-85504819D02*
X83585714Y-85647676D01*
X83585714Y-85647676D02*
X83490476Y-85742914D01*
X83490476Y-85742914D02*
X83395238Y-85790533D01*
X122374819Y-91988094D02*
X121374819Y-91988094D01*
X121374819Y-91988094D02*
X121374819Y-91749999D01*
X121374819Y-91749999D02*
X121422438Y-91607142D01*
X121422438Y-91607142D02*
X121517676Y-91511904D01*
X121517676Y-91511904D02*
X121612914Y-91464285D01*
X121612914Y-91464285D02*
X121803390Y-91416666D01*
X121803390Y-91416666D02*
X121946247Y-91416666D01*
X121946247Y-91416666D02*
X122136723Y-91464285D01*
X122136723Y-91464285D02*
X122231961Y-91511904D01*
X122231961Y-91511904D02*
X122327200Y-91607142D01*
X122327200Y-91607142D02*
X122374819Y-91749999D01*
X122374819Y-91749999D02*
X122374819Y-91988094D01*
X121470057Y-91035713D02*
X121422438Y-90988094D01*
X121422438Y-90988094D02*
X121374819Y-90892856D01*
X121374819Y-90892856D02*
X121374819Y-90654761D01*
X121374819Y-90654761D02*
X121422438Y-90559523D01*
X121422438Y-90559523D02*
X121470057Y-90511904D01*
X121470057Y-90511904D02*
X121565295Y-90464285D01*
X121565295Y-90464285D02*
X121660533Y-90464285D01*
X121660533Y-90464285D02*
X121803390Y-90511904D01*
X121803390Y-90511904D02*
X122374819Y-91083332D01*
X122374819Y-91083332D02*
X122374819Y-90464285D01*
X96507200Y-91083332D02*
X96554819Y-90940475D01*
X96554819Y-90940475D02*
X96554819Y-90702380D01*
X96554819Y-90702380D02*
X96507200Y-90607142D01*
X96507200Y-90607142D02*
X96459580Y-90559523D01*
X96459580Y-90559523D02*
X96364342Y-90511904D01*
X96364342Y-90511904D02*
X96269104Y-90511904D01*
X96269104Y-90511904D02*
X96173866Y-90559523D01*
X96173866Y-90559523D02*
X96126247Y-90607142D01*
X96126247Y-90607142D02*
X96078628Y-90702380D01*
X96078628Y-90702380D02*
X96031009Y-90892856D01*
X96031009Y-90892856D02*
X95983390Y-90988094D01*
X95983390Y-90988094D02*
X95935771Y-91035713D01*
X95935771Y-91035713D02*
X95840533Y-91083332D01*
X95840533Y-91083332D02*
X95745295Y-91083332D01*
X95745295Y-91083332D02*
X95650057Y-91035713D01*
X95650057Y-91035713D02*
X95602438Y-90988094D01*
X95602438Y-90988094D02*
X95554819Y-90892856D01*
X95554819Y-90892856D02*
X95554819Y-90654761D01*
X95554819Y-90654761D02*
X95602438Y-90511904D01*
X95554819Y-90178570D02*
X96554819Y-89940475D01*
X96554819Y-89940475D02*
X95840533Y-89749999D01*
X95840533Y-89749999D02*
X96554819Y-89559523D01*
X96554819Y-89559523D02*
X95554819Y-89321428D01*
X96554819Y-88416666D02*
X96554819Y-88988094D01*
X96554819Y-88702380D02*
X95554819Y-88702380D01*
X95554819Y-88702380D02*
X95697676Y-88797618D01*
X95697676Y-88797618D02*
X95792914Y-88892856D01*
X95792914Y-88892856D02*
X95840533Y-88988094D01*
X111888095Y-83204819D02*
X111888095Y-84014342D01*
X111888095Y-84014342D02*
X111935714Y-84109580D01*
X111935714Y-84109580D02*
X111983333Y-84157200D01*
X111983333Y-84157200D02*
X112078571Y-84204819D01*
X112078571Y-84204819D02*
X112269047Y-84204819D01*
X112269047Y-84204819D02*
X112364285Y-84157200D01*
X112364285Y-84157200D02*
X112411904Y-84109580D01*
X112411904Y-84109580D02*
X112459523Y-84014342D01*
X112459523Y-84014342D02*
X112459523Y-83204819D01*
X113459523Y-84204819D02*
X112888095Y-84204819D01*
X113173809Y-84204819D02*
X113173809Y-83204819D01*
X113173809Y-83204819D02*
X113078571Y-83347676D01*
X113078571Y-83347676D02*
X112983333Y-83442914D01*
X112983333Y-83442914D02*
X112888095Y-83490533D01*
X123283333Y-87784819D02*
X122950000Y-87308628D01*
X122711905Y-87784819D02*
X122711905Y-86784819D01*
X122711905Y-86784819D02*
X123092857Y-86784819D01*
X123092857Y-86784819D02*
X123188095Y-86832438D01*
X123188095Y-86832438D02*
X123235714Y-86880057D01*
X123235714Y-86880057D02*
X123283333Y-86975295D01*
X123283333Y-86975295D02*
X123283333Y-87118152D01*
X123283333Y-87118152D02*
X123235714Y-87213390D01*
X123235714Y-87213390D02*
X123188095Y-87261009D01*
X123188095Y-87261009D02*
X123092857Y-87308628D01*
X123092857Y-87308628D02*
X122711905Y-87308628D01*
X124235714Y-87784819D02*
X123664286Y-87784819D01*
X123950000Y-87784819D02*
X123950000Y-86784819D01*
X123950000Y-86784819D02*
X123854762Y-86927676D01*
X123854762Y-86927676D02*
X123759524Y-87022914D01*
X123759524Y-87022914D02*
X123664286Y-87070533D01*
X123183333Y-97604819D02*
X122850000Y-97128628D01*
X122611905Y-97604819D02*
X122611905Y-96604819D01*
X122611905Y-96604819D02*
X122992857Y-96604819D01*
X122992857Y-96604819D02*
X123088095Y-96652438D01*
X123088095Y-96652438D02*
X123135714Y-96700057D01*
X123135714Y-96700057D02*
X123183333Y-96795295D01*
X123183333Y-96795295D02*
X123183333Y-96938152D01*
X123183333Y-96938152D02*
X123135714Y-97033390D01*
X123135714Y-97033390D02*
X123088095Y-97081009D01*
X123088095Y-97081009D02*
X122992857Y-97128628D01*
X122992857Y-97128628D02*
X122611905Y-97128628D01*
X123564286Y-96700057D02*
X123611905Y-96652438D01*
X123611905Y-96652438D02*
X123707143Y-96604819D01*
X123707143Y-96604819D02*
X123945238Y-96604819D01*
X123945238Y-96604819D02*
X124040476Y-96652438D01*
X124040476Y-96652438D02*
X124088095Y-96700057D01*
X124088095Y-96700057D02*
X124135714Y-96795295D01*
X124135714Y-96795295D02*
X124135714Y-96890533D01*
X124135714Y-96890533D02*
X124088095Y-97033390D01*
X124088095Y-97033390D02*
X123516667Y-97604819D01*
X123516667Y-97604819D02*
X124135714Y-97604819D01*
X122404819Y-82588094D02*
X121404819Y-82588094D01*
X121404819Y-82588094D02*
X121404819Y-82349999D01*
X121404819Y-82349999D02*
X121452438Y-82207142D01*
X121452438Y-82207142D02*
X121547676Y-82111904D01*
X121547676Y-82111904D02*
X121642914Y-82064285D01*
X121642914Y-82064285D02*
X121833390Y-82016666D01*
X121833390Y-82016666D02*
X121976247Y-82016666D01*
X121976247Y-82016666D02*
X122166723Y-82064285D01*
X122166723Y-82064285D02*
X122261961Y-82111904D01*
X122261961Y-82111904D02*
X122357200Y-82207142D01*
X122357200Y-82207142D02*
X122404819Y-82349999D01*
X122404819Y-82349999D02*
X122404819Y-82588094D01*
X122404819Y-81064285D02*
X122404819Y-81635713D01*
X122404819Y-81349999D02*
X121404819Y-81349999D01*
X121404819Y-81349999D02*
X121547676Y-81445237D01*
X121547676Y-81445237D02*
X121642914Y-81540475D01*
X121642914Y-81540475D02*
X121690533Y-81635713D01*
X106133333Y-90759580D02*
X106085714Y-90807200D01*
X106085714Y-90807200D02*
X105942857Y-90854819D01*
X105942857Y-90854819D02*
X105847619Y-90854819D01*
X105847619Y-90854819D02*
X105704762Y-90807200D01*
X105704762Y-90807200D02*
X105609524Y-90711961D01*
X105609524Y-90711961D02*
X105561905Y-90616723D01*
X105561905Y-90616723D02*
X105514286Y-90426247D01*
X105514286Y-90426247D02*
X105514286Y-90283390D01*
X105514286Y-90283390D02*
X105561905Y-90092914D01*
X105561905Y-90092914D02*
X105609524Y-89997676D01*
X105609524Y-89997676D02*
X105704762Y-89902438D01*
X105704762Y-89902438D02*
X105847619Y-89854819D01*
X105847619Y-89854819D02*
X105942857Y-89854819D01*
X105942857Y-89854819D02*
X106085714Y-89902438D01*
X106085714Y-89902438D02*
X106133333Y-89950057D01*
X107085714Y-90854819D02*
X106514286Y-90854819D01*
X106800000Y-90854819D02*
X106800000Y-89854819D01*
X106800000Y-89854819D02*
X106704762Y-89997676D01*
X106704762Y-89997676D02*
X106609524Y-90092914D01*
X106609524Y-90092914D02*
X106514286Y-90140533D01*
D12*
%TO.C,R3*%
X111722936Y-93485000D02*
X112177064Y-93485000D01*
X111722936Y-92015000D02*
X112177064Y-92015000D01*
D13*
%TO.C,BT1*%
X72119300Y-78373000D02*
X72119300Y-83038269D01*
X72119300Y-89061732D02*
X72119300Y-94121000D01*
X72119300Y-94121000D02*
X78428696Y-94121000D01*
X77614656Y-78373000D02*
X72119300Y-78373000D01*
X87171304Y-94121000D02*
X93480700Y-94121000D01*
X93480700Y-78373000D02*
X87985345Y-78373000D01*
X93480700Y-83038269D02*
X93480700Y-78373000D01*
X93480700Y-94121000D02*
X93480700Y-89061732D01*
D12*
%TO.C,D2*%
X124085000Y-91910000D02*
X124085000Y-89450000D01*
X122615000Y-91910000D02*
X124085000Y-91910000D01*
X122615000Y-89450000D02*
X122615000Y-91910000D01*
%TO.C,SW1*%
X103600000Y-92000000D02*
X103600000Y-87500000D01*
X101100000Y-86250000D02*
X99600000Y-86250000D01*
X99600000Y-93250000D02*
X101100000Y-93250000D01*
X97100000Y-87500000D02*
X97100000Y-92000000D01*
%TO.C,U1*%
X110050000Y-84680000D02*
X109810000Y-84350000D01*
X110290000Y-84350000D01*
X110050000Y-84680000D01*
G36*
X110050000Y-84680000D02*
G01*
X109810000Y-84350000D01*
X110290000Y-84350000D01*
X110050000Y-84680000D01*
G37*
X114710000Y-89710000D02*
X110590000Y-89710000D01*
X114710000Y-89615000D02*
X114710000Y-89710000D01*
X114710000Y-84590000D02*
X114710000Y-84685000D01*
X110590000Y-89710000D02*
X110590000Y-89615000D01*
X110590000Y-84685000D02*
X110590000Y-84590000D01*
X110590000Y-84590000D02*
X114710000Y-84590000D01*
%TO.C,R1*%
X122477064Y-86410000D02*
X119422936Y-86410000D01*
X122477064Y-83690000D02*
X119422936Y-83690000D01*
%TO.C,R2*%
X122377064Y-96210000D02*
X119322936Y-96210000D01*
X122377064Y-93490000D02*
X119322936Y-93490000D01*
%TO.C,D1*%
X124085000Y-81850000D02*
X124085000Y-79390000D01*
X124085000Y-79390000D02*
X122615000Y-79390000D01*
X122615000Y-79390000D02*
X122615000Y-81850000D01*
%TO.C,C1*%
X105565000Y-87538748D02*
X105565000Y-88061252D01*
X107035000Y-87538748D02*
X107035000Y-88061252D01*
%TD*%
M02*
