%TF.GenerationSoftware,KiCad,Pcbnew,9.0.7*%
%TF.CreationDate,2026-01-18T16:43:15-05:00*%
%TF.ProjectId,advanced_soldering_practice,61647661-6e63-4656-945f-736f6c646572,rev?*%
%TF.SameCoordinates,Original*%
%TF.FileFunction,Copper,L2,Bot*%
%TF.FilePolarity,Positive*%
%FSLAX46Y46*%
G04 Gerber Fmt 4.6, Leading zero omitted, Abs format (unit mm)*
G04 Created by KiCad (PCBNEW 9.0.7) date 2026-01-18 16:43:15*
%MOMM*%
%LPD*%
G01*
G04 APERTURE LIST*
%TA.AperFunction,ComponentPad*%
%ADD10C,2.311400*%
%TD*%
%TA.AperFunction,ComponentPad*%
%ADD11C,2.000000*%
%TD*%
%TA.AperFunction,ViaPad*%
%ADD12C,0.600000*%
%TD*%
%TA.AperFunction,Conductor*%
%ADD13C,0.400000*%
%TD*%
G04 APERTURE END LIST*
D10*
%TO.P,BT1,1,+*%
%TO.N,VCC*%
X72400001Y-84500001D03*
X72400001Y-87600000D03*
X93200000Y-84500001D03*
X93200000Y-87600000D03*
%TD*%
D11*
%TO.P,SW1,2,B*%
%TO.N,Net-(D1-A)*%
X102600000Y-86500000D03*
X102600000Y-93000000D03*
%TO.P,SW1,1,A*%
%TO.N,VCC*%
X98100000Y-86500000D03*
X98100000Y-93000000D03*
%TD*%
D12*
%TO.N,GND*%
X114200000Y-83100000D03*
X118500000Y-88700000D03*
X100500000Y-83800000D03*
X90800000Y-93000000D03*
X73800000Y-91900000D03*
X90000000Y-77800000D03*
X70100000Y-76300000D03*
X70100000Y-87200000D03*
X70000000Y-96500000D03*
X116100000Y-77200000D03*
X123054983Y-77636913D03*
X97522765Y-82870225D03*
X97600000Y-96500000D03*
X105500000Y-96700000D03*
X108700000Y-93900000D03*
X109900000Y-91100000D03*
X114500000Y-90700000D03*
X120300000Y-91800000D03*
%TO.N,Net-(D2-A)*%
X108200000Y-87800000D03*
X107900000Y-92800000D03*
%TD*%
D13*
%TO.N,Net-(D2-A)*%
X107900000Y-92800000D02*
X107900000Y-89200000D01*
X107900000Y-89200000D02*
X108200000Y-88900000D01*
X108200000Y-88900000D02*
X108200000Y-87800000D01*
%TD*%
%TA.AperFunction,Conductor*%
%TO.N,GND*%
G36*
X126442539Y-74520185D02*
G01*
X126488294Y-74572989D01*
X126499500Y-74624500D01*
X126499500Y-98375500D01*
X126479815Y-98442539D01*
X126427011Y-98488294D01*
X126375500Y-98499500D01*
X68624500Y-98499500D01*
X68557461Y-98479815D01*
X68511706Y-98427011D01*
X68500500Y-98375500D01*
X68500500Y-92881902D01*
X96599500Y-92881902D01*
X96599500Y-93118097D01*
X96636446Y-93351368D01*
X96709433Y-93575996D01*
X96721919Y-93600500D01*
X96816657Y-93786433D01*
X96955483Y-93977510D01*
X97122490Y-94144517D01*
X97313567Y-94283343D01*
X97412991Y-94334002D01*
X97524003Y-94390566D01*
X97524005Y-94390566D01*
X97524008Y-94390568D01*
X97644412Y-94429689D01*
X97748631Y-94463553D01*
X97981903Y-94500500D01*
X97981908Y-94500500D01*
X98218097Y-94500500D01*
X98451368Y-94463553D01*
X98675992Y-94390568D01*
X98886433Y-94283343D01*
X99077510Y-94144517D01*
X99244517Y-93977510D01*
X99383343Y-93786433D01*
X99490568Y-93575992D01*
X99563553Y-93351368D01*
X99570059Y-93310289D01*
X99600500Y-93118097D01*
X99600500Y-92881902D01*
X101099500Y-92881902D01*
X101099500Y-93118097D01*
X101136446Y-93351368D01*
X101209433Y-93575996D01*
X101221919Y-93600500D01*
X101316657Y-93786433D01*
X101455483Y-93977510D01*
X101622490Y-94144517D01*
X101813567Y-94283343D01*
X101912991Y-94334002D01*
X102024003Y-94390566D01*
X102024005Y-94390566D01*
X102024008Y-94390568D01*
X102144412Y-94429689D01*
X102248631Y-94463553D01*
X102481903Y-94500500D01*
X102481908Y-94500500D01*
X102718097Y-94500500D01*
X102951368Y-94463553D01*
X103175992Y-94390568D01*
X103386433Y-94283343D01*
X103577510Y-94144517D01*
X103744517Y-93977510D01*
X103883343Y-93786433D01*
X103990568Y-93575992D01*
X104063553Y-93351368D01*
X104070059Y-93310289D01*
X104100500Y-93118097D01*
X104100500Y-92881902D01*
X104077148Y-92734464D01*
X104075040Y-92721153D01*
X107099500Y-92721153D01*
X107099500Y-92878846D01*
X107130261Y-93033489D01*
X107130264Y-93033501D01*
X107190602Y-93179172D01*
X107190609Y-93179185D01*
X107278210Y-93310288D01*
X107278213Y-93310292D01*
X107389707Y-93421786D01*
X107389711Y-93421789D01*
X107520814Y-93509390D01*
X107520827Y-93509397D01*
X107666498Y-93569735D01*
X107666503Y-93569737D01*
X107821153Y-93600499D01*
X107821156Y-93600500D01*
X107821158Y-93600500D01*
X107978844Y-93600500D01*
X107978845Y-93600499D01*
X108133497Y-93569737D01*
X108279179Y-93509394D01*
X108410289Y-93421789D01*
X108521789Y-93310289D01*
X108609394Y-93179179D01*
X108669737Y-93033497D01*
X108700500Y-92878842D01*
X108700500Y-92721158D01*
X108700500Y-92721155D01*
X108700499Y-92721153D01*
X108669737Y-92566503D01*
X108609939Y-92422136D01*
X108600500Y-92374684D01*
X108600500Y-89541519D01*
X108620185Y-89474480D01*
X108636814Y-89453842D01*
X108744114Y-89346543D01*
X108820775Y-89231811D01*
X108873580Y-89104328D01*
X108891049Y-89016508D01*
X108900500Y-88968996D01*
X108900500Y-88225316D01*
X108909939Y-88177864D01*
X108969735Y-88033501D01*
X108969737Y-88033497D01*
X109000500Y-87878842D01*
X109000500Y-87721158D01*
X109000500Y-87721155D01*
X109000499Y-87721153D01*
X108969738Y-87566510D01*
X108969737Y-87566503D01*
X108932876Y-87477511D01*
X108909397Y-87420827D01*
X108909390Y-87420814D01*
X108821789Y-87289711D01*
X108821786Y-87289707D01*
X108710292Y-87178213D01*
X108710288Y-87178210D01*
X108579185Y-87090609D01*
X108579172Y-87090602D01*
X108433501Y-87030264D01*
X108433489Y-87030261D01*
X108278845Y-86999500D01*
X108278842Y-86999500D01*
X108121158Y-86999500D01*
X108121155Y-86999500D01*
X107966510Y-87030261D01*
X107966498Y-87030264D01*
X107820827Y-87090602D01*
X107820814Y-87090609D01*
X107689711Y-87178210D01*
X107689707Y-87178213D01*
X107578213Y-87289707D01*
X107578210Y-87289711D01*
X107490609Y-87420814D01*
X107490602Y-87420827D01*
X107430264Y-87566498D01*
X107430261Y-87566510D01*
X107399500Y-87721153D01*
X107399500Y-87878846D01*
X107430261Y-88033489D01*
X107430264Y-88033501D01*
X107490061Y-88177864D01*
X107499500Y-88225316D01*
X107499500Y-88558480D01*
X107479815Y-88625519D01*
X107463181Y-88646161D01*
X107355890Y-88753451D01*
X107355887Y-88753454D01*
X107304070Y-88831006D01*
X107304069Y-88831007D01*
X107279229Y-88868180D01*
X107279221Y-88868195D01*
X107226421Y-88995667D01*
X107226418Y-88995677D01*
X107199500Y-89131004D01*
X107199500Y-92374684D01*
X107190061Y-92422136D01*
X107130264Y-92566498D01*
X107130261Y-92566510D01*
X107099500Y-92721153D01*
X104075040Y-92721153D01*
X104063553Y-92648631D01*
X103990566Y-92424003D01*
X103883342Y-92213566D01*
X103744517Y-92022490D01*
X103577510Y-91855483D01*
X103386433Y-91716657D01*
X103175996Y-91609433D01*
X102951368Y-91536446D01*
X102718097Y-91499500D01*
X102718092Y-91499500D01*
X102481908Y-91499500D01*
X102481903Y-91499500D01*
X102248631Y-91536446D01*
X102024003Y-91609433D01*
X101813566Y-91716657D01*
X101704550Y-91795862D01*
X101622490Y-91855483D01*
X101622488Y-91855485D01*
X101622487Y-91855485D01*
X101455485Y-92022487D01*
X101455485Y-92022488D01*
X101455483Y-92022490D01*
X101395862Y-92104550D01*
X101316657Y-92213566D01*
X101209433Y-92424003D01*
X101136446Y-92648631D01*
X101099500Y-92881902D01*
X99600500Y-92881902D01*
X99563553Y-92648631D01*
X99490566Y-92424003D01*
X99383342Y-92213566D01*
X99244517Y-92022490D01*
X99077510Y-91855483D01*
X98886433Y-91716657D01*
X98675996Y-91609433D01*
X98451368Y-91536446D01*
X98218097Y-91499500D01*
X98218092Y-91499500D01*
X97981908Y-91499500D01*
X97981903Y-91499500D01*
X97748631Y-91536446D01*
X97524003Y-91609433D01*
X97313566Y-91716657D01*
X97204550Y-91795862D01*
X97122490Y-91855483D01*
X97122488Y-91855485D01*
X97122487Y-91855485D01*
X96955485Y-92022487D01*
X96955485Y-92022488D01*
X96955483Y-92022490D01*
X96895862Y-92104550D01*
X96816657Y-92213566D01*
X96709433Y-92424003D01*
X96636446Y-92648631D01*
X96599500Y-92881902D01*
X68500500Y-92881902D01*
X68500500Y-84369649D01*
X70743801Y-84369649D01*
X70743801Y-84630352D01*
X70784581Y-84887823D01*
X70784582Y-84887829D01*
X70865141Y-85135761D01*
X70983492Y-85368039D01*
X71136723Y-85578943D01*
X71321059Y-85763279D01*
X71479237Y-85878202D01*
X71531964Y-85916511D01*
X71577113Y-85939515D01*
X71627909Y-85987489D01*
X71644705Y-86055310D01*
X71622168Y-86121445D01*
X71577115Y-86160484D01*
X71531965Y-86183489D01*
X71426511Y-86260106D01*
X71321059Y-86336722D01*
X71321057Y-86336724D01*
X71321056Y-86336724D01*
X71136725Y-86521055D01*
X71136725Y-86521056D01*
X71136723Y-86521058D01*
X71070915Y-86611633D01*
X70983492Y-86731961D01*
X70865143Y-86964235D01*
X70865142Y-86964237D01*
X70865141Y-86964240D01*
X70784582Y-87212172D01*
X70784581Y-87212175D01*
X70784581Y-87212177D01*
X70743801Y-87469648D01*
X70743801Y-87730351D01*
X70780737Y-87963553D01*
X70784582Y-87987828D01*
X70865141Y-88235760D01*
X70983492Y-88468038D01*
X71136723Y-88678942D01*
X71321059Y-88863278D01*
X71531963Y-89016509D01*
X71764241Y-89134860D01*
X72012173Y-89215419D01*
X72140914Y-89235809D01*
X72269650Y-89256200D01*
X72269655Y-89256200D01*
X72530352Y-89256200D01*
X72647384Y-89237663D01*
X72787829Y-89215419D01*
X73035761Y-89134860D01*
X73268039Y-89016509D01*
X73478943Y-88863278D01*
X73663279Y-88678942D01*
X73816510Y-88468038D01*
X73934861Y-88235760D01*
X74015420Y-87987828D01*
X74037664Y-87847383D01*
X74056201Y-87730351D01*
X74056201Y-87469648D01*
X74027700Y-87289707D01*
X74015420Y-87212172D01*
X73934861Y-86964240D01*
X73816510Y-86731962D01*
X73663279Y-86521058D01*
X73478943Y-86336722D01*
X73268039Y-86183491D01*
X73222887Y-86160485D01*
X73172091Y-86112510D01*
X73155296Y-86044689D01*
X73177833Y-85978554D01*
X73222886Y-85939516D01*
X73268039Y-85916510D01*
X73478943Y-85763279D01*
X73663279Y-85578943D01*
X73816510Y-85368039D01*
X73934861Y-85135761D01*
X74015420Y-84887829D01*
X74037664Y-84747384D01*
X74056201Y-84630352D01*
X74056201Y-84369649D01*
X91543800Y-84369649D01*
X91543800Y-84630352D01*
X91584580Y-84887823D01*
X91584581Y-84887829D01*
X91665140Y-85135761D01*
X91783491Y-85368039D01*
X91936722Y-85578943D01*
X92121058Y-85763279D01*
X92279236Y-85878202D01*
X92331963Y-85916511D01*
X92377112Y-85939515D01*
X92427908Y-85987489D01*
X92444704Y-86055310D01*
X92422167Y-86121445D01*
X92377114Y-86160484D01*
X92331964Y-86183489D01*
X92226510Y-86260106D01*
X92121058Y-86336722D01*
X92121056Y-86336724D01*
X92121055Y-86336724D01*
X91936724Y-86521055D01*
X91936724Y-86521056D01*
X91936722Y-86521058D01*
X91870914Y-86611633D01*
X91783491Y-86731961D01*
X91665142Y-86964235D01*
X91665141Y-86964237D01*
X91665140Y-86964240D01*
X91584581Y-87212172D01*
X91584580Y-87212175D01*
X91584580Y-87212177D01*
X91543800Y-87469648D01*
X91543800Y-87730351D01*
X91580736Y-87963553D01*
X91584581Y-87987828D01*
X91665140Y-88235760D01*
X91783491Y-88468038D01*
X91936722Y-88678942D01*
X92121058Y-88863278D01*
X92331962Y-89016509D01*
X92564240Y-89134860D01*
X92812172Y-89215419D01*
X92940913Y-89235809D01*
X93069649Y-89256200D01*
X93069654Y-89256200D01*
X93330351Y-89256200D01*
X93447383Y-89237663D01*
X93587828Y-89215419D01*
X93835760Y-89134860D01*
X94068038Y-89016509D01*
X94278942Y-88863278D01*
X94463278Y-88678942D01*
X94616509Y-88468038D01*
X94734860Y-88235760D01*
X94815419Y-87987828D01*
X94837663Y-87847383D01*
X94856200Y-87730351D01*
X94856200Y-87469648D01*
X94827699Y-87289707D01*
X94815419Y-87212172D01*
X94734860Y-86964240D01*
X94616509Y-86731962D01*
X94463278Y-86521058D01*
X94324122Y-86381902D01*
X96599500Y-86381902D01*
X96599500Y-86618097D01*
X96636446Y-86851368D01*
X96709433Y-87075996D01*
X96816657Y-87286433D01*
X96955483Y-87477510D01*
X97122490Y-87644517D01*
X97313567Y-87783343D01*
X97412991Y-87834002D01*
X97524003Y-87890566D01*
X97524005Y-87890566D01*
X97524008Y-87890568D01*
X97644412Y-87929689D01*
X97748631Y-87963553D01*
X97981903Y-88000500D01*
X97981908Y-88000500D01*
X98218097Y-88000500D01*
X98451368Y-87963553D01*
X98675992Y-87890568D01*
X98886433Y-87783343D01*
X99077510Y-87644517D01*
X99244517Y-87477510D01*
X99383343Y-87286433D01*
X99490568Y-87075992D01*
X99563553Y-86851368D01*
X99582465Y-86731961D01*
X99600500Y-86618097D01*
X99600500Y-86381902D01*
X101099500Y-86381902D01*
X101099500Y-86618097D01*
X101136446Y-86851368D01*
X101209433Y-87075996D01*
X101316657Y-87286433D01*
X101455483Y-87477510D01*
X101622490Y-87644517D01*
X101813567Y-87783343D01*
X101912991Y-87834002D01*
X102024003Y-87890566D01*
X102024005Y-87890566D01*
X102024008Y-87890568D01*
X102144412Y-87929689D01*
X102248631Y-87963553D01*
X102481903Y-88000500D01*
X102481908Y-88000500D01*
X102718097Y-88000500D01*
X102951368Y-87963553D01*
X103175992Y-87890568D01*
X103386433Y-87783343D01*
X103577510Y-87644517D01*
X103744517Y-87477510D01*
X103883343Y-87286433D01*
X103990568Y-87075992D01*
X104063553Y-86851368D01*
X104082465Y-86731961D01*
X104100500Y-86618097D01*
X104100500Y-86381902D01*
X104063553Y-86148631D01*
X104008291Y-85978554D01*
X103990568Y-85924008D01*
X103990566Y-85924005D01*
X103990566Y-85924003D01*
X103934002Y-85812991D01*
X103883343Y-85713567D01*
X103744517Y-85522490D01*
X103577510Y-85355483D01*
X103386433Y-85216657D01*
X103175996Y-85109433D01*
X102951368Y-85036446D01*
X102718097Y-84999500D01*
X102718092Y-84999500D01*
X102481908Y-84999500D01*
X102481903Y-84999500D01*
X102248631Y-85036446D01*
X102024003Y-85109433D01*
X101813566Y-85216657D01*
X101704550Y-85295862D01*
X101622490Y-85355483D01*
X101622488Y-85355485D01*
X101622487Y-85355485D01*
X101455485Y-85522487D01*
X101455485Y-85522488D01*
X101455483Y-85522490D01*
X101414467Y-85578944D01*
X101316657Y-85713566D01*
X101209433Y-85924003D01*
X101136446Y-86148631D01*
X101099500Y-86381902D01*
X99600500Y-86381902D01*
X99563553Y-86148631D01*
X99508291Y-85978554D01*
X99490568Y-85924008D01*
X99490566Y-85924005D01*
X99490566Y-85924003D01*
X99434002Y-85812991D01*
X99383343Y-85713567D01*
X99244517Y-85522490D01*
X99077510Y-85355483D01*
X98886433Y-85216657D01*
X98675996Y-85109433D01*
X98451368Y-85036446D01*
X98218097Y-84999500D01*
X98218092Y-84999500D01*
X97981908Y-84999500D01*
X97981903Y-84999500D01*
X97748631Y-85036446D01*
X97524003Y-85109433D01*
X97313566Y-85216657D01*
X97204550Y-85295862D01*
X97122490Y-85355483D01*
X97122488Y-85355485D01*
X97122487Y-85355485D01*
X96955485Y-85522487D01*
X96955485Y-85522488D01*
X96955483Y-85522490D01*
X96914467Y-85578944D01*
X96816657Y-85713566D01*
X96709433Y-85924003D01*
X96636446Y-86148631D01*
X96599500Y-86381902D01*
X94324122Y-86381902D01*
X94278942Y-86336722D01*
X94068038Y-86183491D01*
X94022886Y-86160485D01*
X93972090Y-86112510D01*
X93955295Y-86044689D01*
X93977832Y-85978554D01*
X94022885Y-85939516D01*
X94068038Y-85916510D01*
X94278942Y-85763279D01*
X94463278Y-85578943D01*
X94616509Y-85368039D01*
X94734860Y-85135761D01*
X94815419Y-84887829D01*
X94837663Y-84747384D01*
X94856200Y-84630352D01*
X94856200Y-84369649D01*
X94833955Y-84229210D01*
X94815419Y-84112173D01*
X94734860Y-83864241D01*
X94616509Y-83631963D01*
X94463278Y-83421059D01*
X94278942Y-83236723D01*
X94068038Y-83083492D01*
X93835760Y-82965141D01*
X93587828Y-82884582D01*
X93587822Y-82884581D01*
X93330351Y-82843801D01*
X93330346Y-82843801D01*
X93069654Y-82843801D01*
X93069649Y-82843801D01*
X92812177Y-82884581D01*
X92812175Y-82884581D01*
X92812172Y-82884582D01*
X92564240Y-82965141D01*
X92564237Y-82965142D01*
X92564235Y-82965143D01*
X92331961Y-83083492D01*
X92211633Y-83170915D01*
X92121058Y-83236723D01*
X92121056Y-83236725D01*
X92121055Y-83236725D01*
X91936724Y-83421056D01*
X91936724Y-83421057D01*
X91936722Y-83421059D01*
X91870914Y-83511634D01*
X91783491Y-83631962D01*
X91665142Y-83864236D01*
X91665141Y-83864238D01*
X91665140Y-83864241D01*
X91584581Y-84112173D01*
X91584580Y-84112176D01*
X91584580Y-84112178D01*
X91543800Y-84369649D01*
X74056201Y-84369649D01*
X74033956Y-84229210D01*
X74015420Y-84112173D01*
X73934861Y-83864241D01*
X73816510Y-83631963D01*
X73663279Y-83421059D01*
X73478943Y-83236723D01*
X73268039Y-83083492D01*
X73035761Y-82965141D01*
X72787829Y-82884582D01*
X72787823Y-82884581D01*
X72530352Y-82843801D01*
X72530347Y-82843801D01*
X72269655Y-82843801D01*
X72269650Y-82843801D01*
X72012178Y-82884581D01*
X72012176Y-82884581D01*
X72012173Y-82884582D01*
X71764241Y-82965141D01*
X71764238Y-82965142D01*
X71764236Y-82965143D01*
X71531962Y-83083492D01*
X71411634Y-83170915D01*
X71321059Y-83236723D01*
X71321057Y-83236725D01*
X71321056Y-83236725D01*
X71136725Y-83421056D01*
X71136725Y-83421057D01*
X71136723Y-83421059D01*
X71070915Y-83511634D01*
X70983492Y-83631962D01*
X70865143Y-83864236D01*
X70865142Y-83864238D01*
X70865141Y-83864241D01*
X70784582Y-84112173D01*
X70784581Y-84112176D01*
X70784581Y-84112178D01*
X70743801Y-84369649D01*
X68500500Y-84369649D01*
X68500500Y-74624500D01*
X68520185Y-74557461D01*
X68572989Y-74511706D01*
X68624500Y-74500500D01*
X126375500Y-74500500D01*
X126442539Y-74520185D01*
G37*
%TD.AperFunction*%
%TD*%
M02*
