%TF.GenerationSoftware,KiCad,Pcbnew,9.0.7*%
%TF.CreationDate,2026-01-18T16:43:15-05:00*%
%TF.ProjectId,advanced_soldering_practice,61647661-6e63-4656-945f-736f6c646572,rev?*%
%TF.SameCoordinates,Original*%
%TF.FileFunction,Copper,L1,Top*%
%TF.FilePolarity,Positive*%
%FSLAX46Y46*%
G04 Gerber Fmt 4.6, Leading zero omitted, Abs format (unit mm)*
G04 Created by KiCad (PCBNEW 9.0.7) date 2026-01-18 16:43:15*
%MOMM*%
%LPD*%
G01*
G04 APERTURE LIST*
G04 Aperture macros list*
%AMRoundRect*
0 Rectangle with rounded corners*
0 $1 Rounding radius*
0 $2 $3 $4 $5 $6 $7 $8 $9 X,Y pos of 4 corners*
0 Add a 4 corners polygon primitive as box body*
4,1,4,$2,$3,$4,$5,$6,$7,$8,$9,$2,$3,0*
0 Add four circle primitives for the rounded corners*
1,1,$1+$1,$2,$3*
1,1,$1+$1,$4,$5*
1,1,$1+$1,$6,$7*
1,1,$1+$1,$8,$9*
0 Add four rect primitives between the rounded corners*
20,1,$1+$1,$2,$3,$4,$5,0*
20,1,$1+$1,$4,$5,$6,$7,0*
20,1,$1+$1,$6,$7,$8,$9,0*
20,1,$1+$1,$8,$9,$2,$3,0*%
%AMFreePoly0*
4,1,78,0.522776,0.439856,0.679044,0.411024,0.879156,0.365973,0.905204,0.360052,1.149181,0.304725,-0.608772,-0.716714,-0.608772,-3.500768,-0.174298,-3.754280,0.000115,-3.856290,0.143862,-3.940819,0.240888,-3.998397,0.274926,-4.019290,0.268069,-4.061900,0.238695,-4.126048,0.213597,-4.208011,0.224371,-4.315512,0.262248,-4.445715,0.310918,-4.576453,0.353541,-4.638600,0.405442,-4.650085,
0.432164,-4.644528,0.558994,-4.622782,0.629935,-4.618327,0.731519,-4.586322,0.831916,-4.510258,0.931507,-4.402798,1.353385,-4.644228,1.529591,-4.741452,1.679992,-4.817738,1.786464,-4.864300,1.827888,-4.874233,1.878466,-4.849842,1.996161,-4.786348,2.170987,-4.689347,2.392959,-4.564436,2.652091,-4.417212,2.938398,-4.253274,3.040741,-4.194385,4.200969,-3.525964,4.202414,-2.512192,
4.204227,-2.222573,4.208517,-1.965474,4.214856,-1.753352,4.222814,-1.598664,4.231960,-1.513866,4.237281,-1.501524,4.279168,-1.534448,4.364202,-1.620328,4.477893,-1.744140,4.548810,-1.824595,4.826919,-2.144561,4.827719,-3.849279,3.316419,-4.723674,2.982914,-4.916309,2.674159,-5.094028,2.398505,-5.252071,2.164297,-5.385682,1.979885,-5.490100,1.853617,-5.560568,1.793841,-5.592326,
1.790191,-5.593649,1.749663,-5.571014,1.640585,-5.508408,1.471411,-5.410726,1.250594,-5.282864,0.986589,-5.129720,0.687850,-4.956188,0.362831,-4.767166,0.304737,-4.733357,-1.165790,-3.877486,-1.189078,-0.356645,-0.469232,0.057716,-0.210358,0.206644,-0.012117,0.316369,0.142905,0.390723,0.272119,0.433535,0.392938,0.448636,0.522776,0.439856,0.522776,0.439856,$1*%
%AMFreePoly1*
4,1,201,1.543144,0.919651,1.495475,0.804413,1.412287,0.638424,1.299447,0.434091,1.275818,0.393126,1.162568,0.195026,1.067572,0.023119,0.999003,-0.107362,0.965034,-0.181183,0.962807,-0.190290,0.997232,-0.247196,1.018509,-0.260497,1.047891,-0.292534,1.024828,-0.310378,0.950462,-0.354853,0.892826,-0.394679,0.837285,-0.450722,0.855210,-0.508225,0.872008,-0.529558,0.907514,-0.581541,
0.875953,-0.588278,0.825764,-0.576972,0.755482,-0.571580,0.698439,-0.608613,0.633760,-0.704892,0.606613,-0.753575,0.535360,-0.873205,0.478461,-0.928823,0.413633,-0.937661,0.376908,-0.931181,0.269934,-0.928536,0.226444,-0.970806,0.257614,-1.044353,0.271696,-1.059540,0.334314,-1.145660,0.317624,-1.193437,0.224632,-1.196816,0.205263,-1.193315,0.107741,-1.185131,0.072779,-1.218465,
0.071579,-1.233534,0.103251,-1.316690,0.138421,-1.355964,0.200027,-1.427147,0.180724,-1.464942,0.084485,-1.463124,0.071579,-1.460684,-0.031809,-1.459255,-0.062667,-1.506142,-0.018683,-1.594781,0.011643,-1.630964,0.055943,-1.687901,0.034827,-1.709305,-0.047772,-1.712456,-0.172439,-1.725473,-0.214601,-1.767108,-0.177369,-1.841234,-0.163819,-1.856847,-0.123545,-1.909754,-0.115639,-1.963705,
-0.143763,-2.044647,-0.208353,-2.172393,-0.347121,-2.427439,-0.452587,-2.600876,-0.525314,-2.693534,-0.565865,-2.706241,-0.568150,-2.703180,-0.560271,-2.646259,-0.515066,-2.532942,-0.441070,-2.383255,-0.399444,-2.307225,-0.306193,-2.137368,-0.253942,-2.025881,-0.237092,-1.955165,-0.250044,-1.907621,-0.265807,-1.887193,-0.324556,-1.775980,-0.301974,-1.675905,-0.239103,-1.622665,-0.178515,-1.570370,
-0.173886,-1.533600,-0.164184,-1.476594,-0.108292,-1.402151,-0.040769,-1.304423,-0.017544,-1.220882,0.011493,-1.135194,0.049298,-1.104711,0.107685,-1.043476,0.116140,-1.003618,0.154836,-0.893964,0.259329,-0.830692,0.336719,-0.820884,0.420832,-0.791000,0.504824,-0.717211,0.573449,-0.622602,0.611462,-0.530254,0.603619,-0.463250,0.582877,-0.448178,0.522146,-0.401309,0.528487,-0.357402,
0.593657,-0.349818,0.606316,-0.353333,0.666688,-0.360461,0.691398,-0.315441,0.695438,-0.230254,0.704951,-0.126350,0.744029,-0.086090,0.791192,-0.082426,0.882529,-0.069073,0.896181,-0.022851,0.834999,0.050944,0.701835,0.147017,0.651001,0.177798,0.511760,0.256777,0.402613,0.313838,0.346003,0.337286,0.344765,0.337369,0.304474,0.302013,0.242185,0.212735,0.212528,0.162523,
0.142588,0.052900,0.081909,-0.017743,0.064749,-0.028826,0.045514,-0.075306,0.086838,-0.183764,0.089114,-0.188191,0.162990,-0.331052,0.001114,-0.331052,-0.103721,-0.337546,-0.138663,-0.364539,-0.128659,-0.409035,-0.079649,-0.540599,-0.074945,-0.610850,-0.119924,-0.638644,-0.195360,-0.642982,-0.279748,-0.645521,-0.313647,-0.667321,-0.303035,-0.729656,-0.254305,-0.852783,-0.274107,-0.902550,
-0.340244,-0.933724,-0.425989,-0.987697,-0.529132,-1.114389,-0.632762,-1.280941,-0.726385,-1.435905,-0.785620,-1.514852,-0.814314,-1.522274,-0.818467,-1.497791,-0.797435,-1.407353,-0.741732,-1.277942,-0.664627,-1.132322,-0.579386,-0.993254,-0.499279,-0.883501,-0.437571,-0.825826,-0.424612,-0.822081,-0.391349,-0.806147,-0.413015,-0.747903,-0.437604,-0.708565,-0.486830,-0.599491,-0.459235,-0.534628,
-0.352491,-0.509828,-0.325817,-0.509298,-0.236498,-0.505147,-0.220646,-0.476400,-0.266256,-0.398618,-0.269221,-0.394091,-0.316317,-0.308434,-0.308778,-0.260611,-0.281389,-0.238809,-0.186537,-0.205890,-0.115280,-0.198050,-0.045503,-0.191379,-0.044050,-0.156432,-0.081859,-0.098330,-0.141292,0.003310,-0.135456,0.055221,-0.062792,0.069997,-0.061008,0.070001,0.028695,0.113195,0.131624,0.240508,
0.150334,0.270527,0.224609,0.383352,0.284257,0.456090,0.306569,0.471053,0.359296,0.450435,0.468243,0.395664,0.612569,0.317361,0.656234,0.292808,0.803432,0.210276,0.917427,0.148018,0.979001,0.116475,0.984362,0.114562,1.010406,0.150821,1.071063,0.249406,1.157140,0.395033,1.253982,0.562847,1.363467,0.745786,1.455022,0.881828,1.520482,0.959675,1.549427,0.971731,
1.543144,0.919651,1.543144,0.919651,$1*%
%AMFreePoly2*
4,1,38,0.149385,0.626572,0.246220,0.600842,0.370240,0.565085,0.492573,0.527797,0.584345,0.497471,0.615261,0.484734,0.599684,0.444745,0.545671,0.341187,0.460686,0.186879,0.352195,-0.005355,0.227665,-0.222695,0.094561,-0.452318,-0.039650,-0.681404,-0.167504,-0.897129,-0.281533,-1.086672,-0.374272,-1.237213,-0.438256,-1.335928,-0.464428,-1.369493,-0.541964,-1.393308,-0.649645,-1.402914,
-0.749172,-1.388563,-0.808532,-1.327212,-0.839364,-1.254687,-0.855288,-1.203872,-0.860342,-1.153234,-0.849672,-1.091691,-0.818428,-1.008164,-0.761757,-0.891572,-0.674808,-0.730835,-0.552727,-0.514871,-0.395450,-0.240915,-0.251616,0.008950,-0.123517,0.231392,-0.017545,0.415316,0.059907,0.549629,0.102445,0.623235,0.108608,0.633784,0.149385,0.626572,0.149385,0.626572,$1*%
%AMFreePoly3*
4,1,9,0.035372,0.010038,0.036667,-0.000614,0.002756,-0.043880,-0.007895,-0.045175,-0.051161,-0.011265,-0.052456,-0.000614,-0.018546,0.042653,-0.007895,0.043948,0.035372,0.010038,0.035372,0.010038,$1*%
%AMFreePoly4*
4,1,57,-0.043831,0.331992,0.069213,0.271239,0.239158,0.176871,0.455961,0.054526,0.709575,-0.090160,0.989956,-0.251550,1.046389,-0.284195,1.354207,-0.462224,1.658190,-0.637709,1.943576,-0.802152,2.195603,-0.947054,2.399508,-1.063919,2.536560,-1.142002,2.925225,-1.362105,2.926472,-2.019385,2.926198,-2.249910,2.924610,-2.445077,2.921941,-2.589360,2.918426,-2.667231,2.916579,-2.676475,
2.892717,-2.639645,2.838483,-2.541419,2.763761,-2.399914,2.728992,-2.332611,2.558210,-2.033328,2.358707,-1.737749,2.147172,-1.467777,1.940293,-1.245314,1.819715,-1.139298,1.695415,-1.035790,1.630756,-0.961030,1.611501,-0.893917,1.617529,-0.839618,1.622535,-0.763640,1.590218,-0.701920,1.504343,-0.632338,1.429485,-0.583390,1.272959,-0.492646,1.163182,-0.455566,1.078392,-0.468808,
1.007999,-0.518678,0.944047,-0.562576,0.876759,-0.557010,0.801988,-0.522272,0.583674,-0.429536,0.331281,-0.363005,0.029835,-0.320208,-0.335637,-0.298672,-0.574605,-0.294975,-1.247279,-0.292631,-0.686008,0.030423,-0.484528,0.145080,-0.310182,0.241826,-0.177602,0.312733,-0.101417,0.349869,-0.089927,0.353493,-0.043831,0.331992,-0.043831,0.331992,$1*%
%AMFreePoly5*
4,1,29,0.279454,0.462409,0.364783,0.363729,0.464768,0.307178,0.505581,0.293480,0.523165,0.270517,0.511254,0.227580,0.463579,0.153965,0.373871,0.038963,0.235864,-0.128132,0.149559,-0.231256,-0.067578,-0.482107,-0.242778,-0.664883,-0.383277,-0.785842,-0.496312,-0.851238,-0.586384,-0.867514,-0.655824,-0.843149,-0.767535,-0.785026,-0.833684,-0.745473,-0.942249,-0.672820,-1.010762,-0.617988,
-1.023070,-0.601194,-0.992238,-0.563968,-0.906411,-0.475662,-0.775592,-0.346171,-0.609785,-0.185391,-0.418995,-0.003217,-0.408257,0.006960,0.206557,0.589426,0.279454,0.462409,0.279454,0.462409,$1*%
%AMFreePoly6*
4,1,38,0.123850,0.510790,0.149814,0.430943,0.171748,0.333767,0.221943,0.099716,-0.056645,-0.181370,-0.204507,-0.325321,-0.317414,-0.411230,-0.420954,-0.446459,-0.540711,-0.438369,-0.702274,-0.394323,-0.747332,-0.380104,-0.897068,-0.330163,-0.984593,-0.285421,-1.032488,-0.223637,-1.063336,-0.122568,-1.078683,-0.053732,-1.110311,0.084012,-1.138090,0.194313,-1.144571,0.217106,-1.138542,0.283094,
-1.101895,0.295088,-1.045933,0.254695,-1.006442,0.150264,-0.970177,-0.007575,-0.927941,-0.102812,-0.860240,-0.160939,-0.747578,-0.207444,-0.727625,-0.214302,-0.519616,-0.285178,-0.261606,-0.029861,-0.140077,0.100892,-0.049047,0.218836,-0.004288,0.302947,-0.002179,0.315974,0.025634,0.425738,0.060395,0.487155,0.097259,0.525098,0.123850,0.510790,0.123850,0.510790,$1*%
%AMFreePoly7*
4,1,14,0.142875,0.096512,0.369697,-0.207543,0.238516,-0.242368,0.124863,-0.296020,0.052554,-0.364912,0.001282,-0.433198,-0.024930,-0.452255,-0.055222,-0.415698,-0.114298,-0.319517,-0.190203,-0.183353,-0.201791,-0.161657,-0.355949,0.128565,-0.083947,0.400568,0.142875,0.096512,0.142875,0.096512,$1*%
%AMFreePoly8*
4,1,94,-0.824745,0.681060,-0.346759,0.569286,-0.104935,0.480253,0.013196,0.432871,0.079779,0.421917,0.124902,0.448057,0.157621,0.486052,0.208873,0.540022,0.260489,0.548515,0.346753,0.512962,0.381607,0.495399,0.525385,0.417926,0.600594,0.360465,0.620284,0.307239,0.597507,0.242470,0.594896,0.237536,0.573871,0.174549,0.597926,0.116831,0.679830,0.040895,0.718376,0.010441,
0.991478,-0.232135,1.256812,-0.522274,1.447711,-0.774561,1.556704,-0.947400,1.678686,-1.160708,1.799080,-1.386910,1.903306,-1.598436,1.976787,-1.767713,1.986037,-1.792731,2.027928,-1.910877,1.927560,-1.794212,1.698010,-1.531189,1.507730,-1.323044,1.341295,-1.154288,1.183280,-1.009434,1.018260,-0.872993,0.980864,-0.843642,0.780059,-0.688091,0.635687,-0.582441,0.533681,-0.522073,
0.459973,-0.502367,0.400496,-0.518703,0.341182,-0.566463,0.291197,-0.617180,0.195151,-0.702736,0.117957,-0.748054,0.095055,-0.750089,0.057379,-0.780936,-0.014573,-0.877474,-0.112449,-1.027125,-0.227897,-1.217314,-0.311754,-1.362633,-0.501576,-1.691366,-0.654764,-1.941546,-0.772709,-2.115226,-0.856797,-2.214459,-0.906154,-2.241697,-0.963931,-2.225602,-1.068557,-2.190277,-1.091579,-2.182050,
-1.197669,-2.127188,-1.258049,-2.064544,-1.261526,-2.053967,-1.244441,-1.993980,-1.188449,-1.871157,-1.100482,-1.699095,-0.987472,-1.491389,-0.865936,-1.278087,-0.714017,-1.013653,-0.602978,-0.810956,-0.526477,-0.656149,-0.478172,-0.535384,-0.451720,-0.434814,-0.441431,-0.351228,-0.430083,-0.202575,-0.418380,-0.080310,-0.413688,-0.042950,-0.446999,0.019959,-0.554846,0.097438,-0.724877,0.184223,
-0.944742,0.275045,-1.202089,0.364639,-1.484567,0.447738,-1.678797,0.496474,-1.947977,0.560200,-2.133606,0.607919,-2.239166,0.642806,-2.268140,0.668037,-2.224011,0.686787,-2.110262,0.702231,-1.930375,0.717543,-1.921989,0.718188,-1.353192,0.731135,-0.824745,0.681060,-0.824745,0.681060,$1*%
%AMFreePoly9*
4,1,14,0.122123,0.310219,0.222759,0.229518,0.271869,0.094576,0.273509,0.061070,0.236557,-0.062723,0.143721,-0.145659,0.022032,-0.179566,-0.101482,-0.156269,-0.191859,-0.079646,-0.254395,0.054435,-0.232441,0.169100,-0.142823,0.264477,-0.007313,0.325572,0.122123,0.310219,0.122123,0.310219,$1*%
%AMFreePoly10*
4,1,60,12.432602,0.203563,13.232584,0.203286,13.960235,0.202746,14.618913,0.201869,15.211976,0.200581,15.742782,0.198809,16.214690,0.196478,16.631057,0.193516,16.995243,0.189849,17.310605,0.185402,17.580501,0.180103,17.808290,0.173878,17.997331,0.166652,18.150981,0.158353,18.272598,0.148907,18.365542,0.138239,18.433169,0.126277,18.478839,0.112946,18.505909,0.098174,18.517739,0.081886,
18.517686,0.064008,18.509108,0.044468,18.495363,0.023191,18.479811,0.000103,18.470033,-0.016449,18.420812,-0.108421,-1.536426,-0.108421,-1.585647,-0.016449,-1.600529,0.007895,-1.615858,0.030379,-1.628275,0.051077,-1.634422,0.070063,-1.630940,0.087410,-1.614473,0.103192,-1.581660,0.117483,-1.529145,0.130356,-1.453568,0.141884,-1.351571,0.152142,-1.219797,0.161204,-1.054887,0.169142,
-0.853483,0.176030,-0.612226,0.181943,-0.327758,0.186954,0.003279,0.191136,0.384243,0.194564,0.818493,0.197310,1.309387,0.199449,1.860282,0.201054,2.474538,0.202199,3.155513,0.202957,3.906565,0.203403,4.731051,0.203609,5.632331,0.203650,6.613763,0.203599,7.678704,0.203529,8.442193,0.203509,9.565084,0.203549,10.602210,0.203621,11.556930,0.203650,12.432602,0.203563,
12.432602,0.203563,$1*%
%AMFreePoly11*
4,1,105,9.008211,0.133403,10.030834,0.133328,10.971272,0.133168,11.832996,0.132896,12.619475,0.132481,13.334178,0.131897,13.980574,0.131114,14.562134,0.130104,15.082326,0.128839,15.544620,0.127290,15.952486,0.125429,16.309392,0.123227,16.618808,0.120656,16.884204,0.117687,17.109048,0.114293,17.296811,0.110444,17.450962,0.106112,17.574970,0.101268,17.672305,0.095886,17.746435,0.089934,
17.800831,0.083387,17.838962,0.076214,17.864297,0.068387,17.880306,0.059879,17.889682,0.051532,17.938624,-0.015556,17.920702,-0.066832,17.881940,-0.104433,17.868321,-0.112736,17.844246,-0.120398,17.806270,-0.127445,17.750948,-0.133902,17.674836,-0.139795,17.574490,-0.145150,17.446466,-0.149991,17.287319,-0.154344,17.093604,-0.158236,16.861879,-0.161691,16.588698,-0.164734,16.270616,-0.167393,
15.904191,-0.169691,15.485977,-0.171654,15.012530,-0.173309,14.480406,-0.174680,13.886160,-0.175794,13.226348,-0.176674,12.497527,-0.177348,11.696251,-0.177841,10.819076,-0.178178,9.862558,-0.178384,8.823252,-0.178485,7.884450,-0.178508,6.776174,-0.178490,5.753552,-0.178415,4.813113,-0.178255,3.951390,-0.177982,3.164911,-0.177568,2.450208,-0.176983,1.803811,-0.176200,1.222252,-0.175191,
0.702059,-0.173925,0.239765,-0.172376,-0.168100,-0.170515,-0.525006,-0.168313,-0.834422,-0.165742,-1.099818,-0.162774,-1.324663,-0.159379,-1.512426,-0.155530,-1.666576,-0.151198,-1.790584,-0.146355,-1.887919,-0.140972,-1.962050,-0.135021,-2.016445,-0.128473,-2.054576,-0.121300,-2.079911,-0.113474,-2.095920,-0.104966,-2.105297,-0.096618,-2.154238,-0.029531,-2.136316,0.021745,-2.097554,0.059347,
-2.083935,0.067649,-2.059860,0.075312,-2.021884,0.082358,-1.966562,0.088816,-1.890450,0.094709,-1.790104,0.100063,-1.662080,0.104904,-1.502933,0.109258,-1.309219,0.113149,-1.077493,0.116604,-0.804312,0.119648,-0.486231,0.122306,-0.119805,0.124604,0.298409,0.126568,0.771856,0.128222,1.303980,0.129594,1.898226,0.130707,2.558037,0.131588,3.286859,0.132262,4.088135,0.132754,
4.965310,0.133091,5.921828,0.133297,6.961134,0.133399,7.899936,0.133422,9.008211,0.133403,9.008211,0.133403,$1*%
%AMFreePoly12*
4,1,47,0.332267,0.083246,0.289852,-0.113437,0.255486,-0.277420,0.233135,-0.389477,0.226553,-0.429210,0.266873,-0.445313,0.374413,-0.457163,0.527292,-0.462525,0.553483,-0.462631,0.881527,-0.462631,1.094833,0.540001,1.401163,0.553308,1.561698,0.558845,1.651057,0.554203,1.687067,0.533837,1.687553,0.492199,1.681229,0.466182,1.664856,0.394950,1.633328,0.250206,1.589577,0.045705,
1.536537,-0.204797,1.477141,-0.487544,1.443201,-0.650021,1.231437,-1.665789,0.972127,-1.665789,0.810861,-1.658654,0.720509,-1.634460,0.686258,-1.596579,0.679998,-1.516663,0.691951,-1.383980,0.709938,-1.277217,0.737599,-1.129595,0.755846,-1.013271,0.760175,-0.967655,0.741526,-0.943062,0.677987,-0.925918,0.558174,-0.915133,0.370700,-0.909613,0.140725,-0.908245,-0.478725,-0.908245,
-0.399272,-0.540614,-0.348059,-0.303071,-0.290872,-0.036939,-0.241270,0.194650,-0.162722,0.562281,0.436868,0.562281,0.332267,0.083246,0.332267,0.083246,$1*%
%AMFreePoly13*
4,1,52,1.879634,0.334829,1.812728,0.032329,1.754380,-0.194759,1.699331,-0.359067,1.642324,-0.473227,1.578100,-0.549874,1.501400,-0.601638,1.486834,-0.608829,1.360716,-0.656867,1.252347,-0.679482,1.243879,-0.679736,1.169023,-0.690974,1.150351,-0.707671,1.170509,-0.756951,1.224216,-0.863944,1.301315,-1.008692,1.331718,-1.064163,1.513085,-1.392719,0.857737,-1.392719,0.596457,-0.864299,
0.501768,-0.664582,0.427283,-0.491454,0.379510,-0.361322,0.364960,-0.290595,0.366622,-0.285001,0.428413,-0.257863,0.566772,-0.240395,0.769518,-0.234123,0.772491,-0.234122,1.146916,-0.234122,1.190474,-0.067017,1.229580,0.098009,1.263421,0.264016,1.263993,0.267193,1.293954,0.434299,0.405057,0.434299,0.313053,-0.000175,0.261503,-0.244329,0.201706,-0.528624,0.143564,-0.805946,
0.121045,-0.913684,0.021041,-1.392719,-0.577731,-1.392719,-0.424005,-0.668596,-0.365012,-0.389783,-0.305636,-0.107539,-0.251375,0.151896,-0.207726,0.362282,-0.192942,0.434299,-0.115605,0.813071,1.985967,0.836938,1.879634,0.334829,1.879634,0.334829,$1*%
%AMFreePoly14*
4,1,83,1.647696,0.587018,1.631876,0.514709,1.600534,0.369727,1.556786,0.166551,1.503749,-0.080338,1.444539,-0.356462,1.425326,-0.446157,1.356006,-0.757912,1.291595,-1.024618,1.234942,-1.235673,1.188894,-1.380475,1.156301,-1.448421,1.155942,-1.448788,1.116376,-1.474150,1.047105,-1.493493,0.936201,-1.507905,0.771733,-1.518478,0.541773,-1.526299,0.241147,-1.532349,-0.053100,-1.536673,
-0.269949,-1.537991,-0.421100,-1.535379,-0.518252,-1.527908,-0.573106,-1.514652,-0.597361,-1.494685,-0.602719,-1.467080,-0.602701,-1.465507,-0.593049,-1.389757,-0.568064,-1.249429,-0.531915,-1.066910,-0.502291,-0.926441,-0.403215,-0.468058,-0.202836,-0.613091,-0.063621,-0.717525,0.016274,-0.793402,0.051499,-0.861880,0.056704,-0.944118,0.053823,-0.983771,0.042105,-1.117456,0.365175,-1.130548,
0.529769,-1.131741,0.643651,-1.121573,0.688171,-1.101764,0.688246,-1.100772,0.703037,-1.022497,0.711897,-0.996268,0.685984,-0.941957,0.584656,-0.844341,0.409566,-0.704871,0.224728,-0.569301,0.037357,-0.430437,-0.123467,-0.302086,-0.243508,-0.196300,-0.308528,-0.125131,-0.315205,-0.112245,-0.333363,0.053572,-0.319137,0.155164,0.287193,0.155164,0.326076,0.076942,0.437888,-0.032721,
0.565702,-0.131439,0.844210,-0.331539,0.899053,-0.122918,0.932057,0.017598,0.952081,0.131605,0.954754,0.163685,0.943945,0.203900,0.898529,0.227520,0.800676,0.238717,0.632554,0.241662,0.621403,0.241667,0.450273,0.239452,0.349844,0.229635,0.301739,0.207459,0.287581,0.168169,0.287193,0.155164,-0.319137,0.155164,-0.306126,0.248082,-0.242715,0.432098,-0.156454,0.562420,
-0.031593,0.687281,1.670294,0.687281,1.647696,0.587018,1.647696,0.587018,$1*%
%AMFreePoly15*
4,1,80,1.895655,0.660088,1.879292,0.586136,1.847858,0.440516,1.804679,0.238765,1.753079,-0.003582,1.696384,-0.270988,1.695085,-0.277127,1.628868,-0.587417,1.576295,-0.823067,1.533167,-0.996758,1.495289,-1.121168,1.458462,-1.208978,1.418491,-1.272868,1.371178,-1.325516,1.337707,-1.356814,1.298591,-1.386688,1.247739,-1.409376,1.172689,-1.426124,1.060977,-1.438179,0.900141,-1.446790,
0.677718,-1.453203,0.381245,-1.458666,0.308668,-1.459805,-0.005508,-1.463942,-0.241356,-1.464931,-0.409634,-1.462160,-0.521100,-1.455014,-0.586513,-1.442881,-0.616631,-1.425148,-0.622544,-1.406725,-0.613506,-1.344579,-0.588245,-1.209243,-0.549538,-1.014601,-0.544208,-0.988684,0.048106,-0.988684,0.088534,-1.002718,0.199319,-1.013849,0.361706,-1.020662,0.490642,-1.022105,0.693368,-1.020991,
0.824120,-1.015202,0.900045,-1.001065,0.938286,-0.974908,0.955987,-0.933059,0.958721,-0.921842,0.999990,-0.738658,1.045662,-0.526791,1.091863,-0.305400,1.134717,-0.093644,1.170351,0.089317,1.194889,0.224325,1.204457,0.292221,1.204474,0.293313,1.192220,0.325273,1.145188,0.344484,1.047975,0.352950,0.885176,0.352676,0.770451,0.349772,0.336428,0.337018,0.193382,-0.309122,
0.142962,-0.538364,0.100024,-0.736438,0.068023,-0.887177,0.050415,-0.974417,0.048106,-0.988684,-0.544208,-0.988684,-0.500166,-0.774537,-0.442907,-0.502934,-0.423454,-0.412008,-0.356262,-0.102101,-0.302966,0.132959,-0.259588,0.305639,-0.222152,0.428405,-0.186681,0.513724,-0.149198,0.574061,-0.105726,0.621883,-0.088541,0.637808,0.047283,0.760351,1.919154,0.760351,1.895655,0.660088,
1.895655,0.660088,$1*%
%AMFreePoly16*
4,1,94,1.309789,1.935688,1.562054,1.931228,1.769078,1.924378,1.918142,1.915615,1.996526,1.905416,2.005351,1.900487,1.996247,1.841081,1.971957,1.718281,1.937013,1.552495,1.895948,1.364133,1.853293,1.173604,1.813582,1.001316,1.781346,0.867680,1.761117,0.793103,1.757519,0.784492,1.716803,0.800059,1.625679,0.856932,1.515323,0.934541,1.392446,1.027535,1.327157,1.094381,
1.305049,1.161466,1.311714,1.255176,1.317762,1.296365,1.347049,1.491667,0.544743,1.491667,0.515127,1.324562,0.489409,1.192683,0.465291,1.089021,0.462604,1.079474,0.460499,1.036202,0.498475,1.012583,0.594515,1.002949,0.710067,1.001492,0.871828,0.995753,0.957549,0.969418,0.980043,0.908812,0.952125,0.800257,0.936980,0.759305,0.903071,0.693318,0.848895,0.659105,
0.748514,0.646471,0.646228,0.645001,0.505975,0.639836,0.416477,0.612625,0.360889,0.545790,0.322369,0.421754,0.293954,0.277369,0.263418,0.110264,0.661722,0.110264,0.858805,0.111369,0.985205,0.123156,1.059338,0.158331,1.099620,0.229599,1.124468,0.349666,1.137878,0.438777,1.164429,0.560115,1.196754,0.634239,1.212161,0.645001,1.270129,0.620760,1.372579,0.558488,
1.452189,0.503762,1.562244,0.416577,1.624556,0.334304,1.645413,0.232814,1.631101,0.087975,1.600606,-0.065789,1.552352,-0.290789,0.575693,-0.290789,0.249515,-0.289946,0.002395,-0.286987,-0.175722,-0.281263,-0.294887,-0.272127,-0.365153,-0.258931,-0.396575,-0.241029,-0.400965,-0.227878,-0.391884,-0.168038,-0.366396,-0.034089,-0.327138,0.161011,-0.276742,0.404306,-0.217845,0.682839,
-0.178158,0.867808,-0.115584,1.158598,-0.059801,1.419251,-0.013407,1.637506,0.020999,1.801107,0.040819,1.897792,0.044649,1.918932,0.087090,1.924263,0.205934,1.928984,0.388462,1.932859,0.621954,1.935649,0.893691,1.937116,1.025000,1.937281,1.309789,1.935688,1.309789,1.935688,$1*%
%AMFreePoly17*
4,1,96,1.128872,0.884791,1.384661,0.883221,1.595490,0.880807,1.748782,0.877716,1.831961,0.874112,1.843333,0.872125,1.833786,0.815477,1.808762,0.695914,1.773681,0.537160,1.733969,0.362938,1.695047,0.196970,1.662340,0.062980,1.641268,-0.015310,1.638845,-0.022413,1.577089,-0.088848,1.499786,-0.123605,1.388876,-0.151442,1.511825,-0.249479,1.578162,-0.308248,1.611843,-0.367604,
1.619672,-0.455292,1.608451,-0.599053,1.605217,-0.630312,1.555556,-0.902300,1.472258,-1.113320,1.360105,-1.252797,1.308596,-1.286008,1.231704,-1.303666,1.088453,-1.318283,0.894476,-1.329762,0.665408,-1.338005,0.416882,-1.342914,0.164532,-1.344390,-0.076007,-1.342336,-0.289102,-1.336655,-0.459118,-1.327247,-0.570422,-1.314015,-0.607544,-1.298015,-0.598681,-1.243561,-0.573786,-1.114475,
-0.535395,-0.923290,-0.530028,-0.897105,0.063105,-0.897105,0.948670,-0.897105,0.997570,-0.715503,1.032465,-0.571121,1.035788,-0.476326,0.994968,-0.420701,0.897430,-0.393831,0.730603,-0.385299,0.598210,-0.384649,0.399517,-0.384493,0.271064,-0.393099,0.194099,-0.424074,0.149870,-0.491024,0.119627,-0.607557,0.091595,-0.752280,0.063105,-0.897105,-0.530028,-0.897105,-0.486047,-0.682541,
-0.428279,-0.404762,-0.384737,-0.197586,-0.344352,-0.005877,0.273565,-0.005877,0.629659,-0.005877,0.834578,-0.000032,0.964861,0.018964,1.034321,0.053304,1.039778,0.059218,1.080362,0.143950,1.112905,0.271919,1.117943,0.304306,1.142085,0.484299,0.760076,0.484299,0.584929,0.480656,0.446824,0.470938,0.367620,0.456959,0.357495,0.450878,0.339219,0.390132,0.316252,0.274043,
0.305244,0.205790,0.273565,-0.005877,-0.344352,-0.005877,-0.322817,0.096348,-0.267512,0.359911,-0.221336,0.581039,-0.186802,0.747667,-0.166425,0.847729,-0.161930,0.871746,-0.119465,0.875656,-0.000455,0.879127,0.182524,0.881988,0.416893,0.884068,0.690075,0.885197,0.840702,0.885351,1.128872,0.884791,1.128872,0.884791,$1*%
%AMFreePoly18*
4,1,84,1.281351,0.985434,1.516687,0.979770,1.721776,0.970748,1.880902,0.958477,1.978348,0.943067,2.001505,0.929650,1.990159,0.837952,1.961297,0.680325,1.918692,0.472929,1.866116,0.231922,1.807343,-0.026538,1.746144,-0.286290,1.686293,-0.531176,1.631562,-0.745036,1.585724,-0.911713,1.552552,-1.015047,1.542261,-1.037365,1.447758,-1.126151,1.314861,-1.191713,1.301474,-1.195698,
1.221628,-1.206961,1.076543,-1.217294,0.882176,-1.226422,0.654483,-1.234073,0.409420,-1.239973,0.162945,-1.243851,-0.068987,-1.245433,-0.270418,-1.244446,-0.425392,-1.240616,-0.517952,-1.233672,-0.537105,-1.227148,-0.527123,-1.150962,-0.499605,-1.006284,-0.458199,-0.808747,-0.455638,-0.797105,0.146927,-0.797105,0.582106,-0.797105,0.769697,-0.793834,0.921291,-0.785034,1.016551,-0.772223,
1.038325,-0.763060,1.055020,-0.708729,1.085483,-0.584827,1.125557,-0.409085,1.171086,-0.199234,1.176715,-0.172621,1.223510,0.047842,1.265687,0.243971,1.298796,0.395250,1.318390,0.481165,1.319100,0.484036,1.327196,0.530376,1.313001,0.559654,1.260871,0.575785,1.155162,0.582686,0.980232,0.584273,0.918601,0.584299,0.684190,0.578887,0.533379,0.562258,0.461283,0.533823,
0.457016,0.528597,0.435138,0.466881,0.399477,0.335052,0.354331,0.150266,0.304000,-0.070320,0.283946,-0.162105,0.146927,-0.797105,-0.455638,-0.797105,-0.406548,-0.573986,-0.348300,-0.317634,-0.287099,-0.055327,-0.226591,0.197302,-0.170422,0.424620,-0.122236,0.610991,-0.085681,0.740781,-0.064994,0.797515,0.028766,0.892998,0.114266,0.942779,0.201039,0.959559,0.351864,0.972324,
0.551024,0.981185,0.782803,0.986251,1.031484,0.987631,1.281351,0.985434,1.281351,0.985434,$1*%
%AMFreePoly19*
4,1,68,-0.254781,0.661894,-0.001324,0.660214,0.183503,0.656462,0.309946,0.649859,0.388251,0.639625,0.428663,0.624982,0.441429,0.605150,0.438402,0.584299,0.420238,0.511688,0.388518,0.372049,0.347745,0.185625,0.303446,-0.022461,0.253994,-0.239195,0.202753,-0.432526,0.155948,-0.580662,0.121417,-0.659450,-0.007648,-0.780026,-0.188256,-0.845059,-0.281936,-0.852807,-0.364079,-0.864531,
-0.389812,-0.886228,-0.369508,-0.938371,-0.316052,-1.047691,-0.239689,-1.193521,-0.213072,-1.242719,-0.036959,-1.565789,-0.681881,-1.565789,-0.937213,-1.052842,-1.033366,-0.856412,-1.112971,-0.687577,-1.168438,-0.562889,-1.192183,-0.498900,-1.192544,-0.495824,-1.150861,-0.474584,-1.037145,-0.459334,-0.868400,-0.452082,-0.819228,-0.451754,-0.595364,-0.444454,-0.453233,-0.422869,-0.401100,-0.396052,
-0.370582,-0.327622,-0.332689,-0.203840,-0.295621,-0.057103,-0.267579,0.080190,-0.256754,0.174299,-0.298379,0.192753,-0.411577,0.206968,-0.578835,0.215250,-0.694715,0.216667,-1.132676,0.216667,-1.180238,0.005001,-1.206443,-0.113901,-1.246492,-0.298398,-1.295724,-0.526903,-1.349480,-0.777829,-1.372609,-0.886228,-1.517419,-1.565789,-2.113867,-1.565789,-1.898828,-0.552017,-1.836345,-0.257924,
-1.778931,0.011423,-1.729530,0.242272,-1.691091,0.420872,-1.666559,0.533470,-1.660125,0.562018,-1.636460,0.662281,-0.587113,0.662281,-0.254781,0.661894,-0.254781,0.661894,$1*%
%AMFreePoly20*
4,1,52,0.397985,0.758864,0.645771,0.754702,0.847935,0.748319,0.991577,0.740168,1.063800,0.730700,1.069839,0.726930,1.058680,0.665683,1.031384,0.556403,1.023693,0.528250,0.977795,0.362991,0.296313,0.337018,0.127506,-0.465087,0.072115,-0.727443,0.021607,-0.965096,-0.020597,-1.162069,-0.051072,-1.302380,-0.065753,-1.367456,-0.087374,-1.421872,-0.133200,-1.452064,-0.225057,-1.465017,
-0.379007,-1.467719,-0.526243,-1.463016,-0.630224,-1.450715,-0.667627,-1.434298,-0.658701,-1.382190,-0.633952,-1.256965,-0.596253,-1.072647,-0.548472,-0.843258,-0.493481,-0.582823,-0.489382,-0.563536,-0.433935,-0.300668,-0.385531,-0.067110,-0.347048,0.122915,-0.321363,0.255181,-0.311355,0.315465,-0.311316,0.316552,-0.352225,0.337014,-0.460412,0.352137,-0.614072,0.359122,-0.644412,0.359299,
-0.977509,0.359299,-0.950072,0.504123,-0.933339,0.586161,-0.910791,0.648506,-0.871170,0.693860,-0.803217,0.724925,-0.695672,0.744405,-0.537277,0.755000,-0.316774,0.759413,-0.022904,0.760347,0.117474,0.760351,0.397985,0.758864,0.397985,0.758864,$1*%
%AMFreePoly21*
4,1,26,0.355279,1.208846,0.462594,1.204894,0.504054,1.199344,0.504054,1.199211,0.494614,1.154445,0.469013,1.034349,0.429778,0.850736,0.379434,0.615419,0.320507,0.340209,0.268251,0.096316,0.034272,-0.995438,-0.270426,-1.008746,-0.430448,-1.014345,-0.519302,-1.009718,-0.554830,-0.989141,-0.554871,-0.946889,-0.548157,-0.919623,-0.531523,-0.847780,-0.499667,-0.702491,-0.455550,-0.497558,
-0.402134,-0.246781,-0.342379,0.036037,-0.308654,0.196579,-0.096119,1.210351,0.204879,1.210351,0.355279,1.208846,0.355279,1.208846,$1*%
%AMFreePoly22*
4,1,70,1.287024,1.158762,1.524703,1.154329,1.715913,1.147553,1.847299,1.138934,1.905509,1.128975,1.907195,1.126930,1.898210,1.054070,1.873627,0.921843,1.838425,0.752362,1.797580,0.567740,1.756071,0.390090,1.718873,0.241525,1.690966,0.144158,1.680312,0.118962,1.629087,0.121551,1.531807,0.168528,1.442435,0.226779,1.324711,0.317393,1.263784,0.391090,1.241204,0.478714,
1.238333,0.567999,1.238333,0.762643,0.413947,0.737018,0.294828,0.202281,0.245756,-0.019674,0.201432,-0.223183,0.166875,-0.385014,0.147676,-0.478922,0.119644,-0.625388,0.986390,-0.599824,1.046365,-0.335323,1.080371,-0.193377,1.108221,-0.091410,1.121861,-0.055302,1.161695,-0.072723,1.251037,-0.133348,1.368240,-0.222266,1.510473,-0.348090,1.574934,-0.440125,1.577750,-0.480006,
1.557635,-0.563671,1.528237,-0.700197,1.505611,-0.811491,1.454822,-1.067719,0.455349,-1.067719,0.131329,-1.067263,-0.114297,-1.065336,-0.292256,-1.061101,-0.413273,-1.053720,-0.488076,-1.042355,-0.527391,-1.026169,-0.541945,-1.004325,-0.543282,-0.989736,-0.533873,-0.924192,-0.508072,-0.785827,-0.468733,-0.588843,-0.418710,-0.347440,-0.360855,-0.075819,-0.344067,0.001755,-0.276603,0.309263,
-0.223104,0.542066,-0.179517,0.712739,-0.141786,0.833859,-0.105855,0.918002,-0.067670,0.977745,-0.023175,1.025663,-0.009994,1.037808,0.125704,1.160351,1.016229,1.160351,1.287024,1.158762,1.287024,1.158762,$1*%
%AMFreePoly23*
4,1,94,1.959766,1.710088,1.940046,1.621158,1.908466,1.472379,1.870840,1.291253,1.858493,1.231053,1.819736,1.055216,1.783136,0.912865,1.754745,0.826743,1.747396,0.813524,1.696233,0.816112,1.598998,0.863084,1.509628,0.921341,1.390545,1.014024,1.329363,1.089808,1.307512,1.177562,1.305526,1.238607,1.305526,1.409299,0.953803,1.409299,0.764193,1.405004,0.647828,1.390319,
0.589160,1.362538,0.576924,1.343746,0.568317,1.307071,0.578838,1.268962,0.618210,1.220566,0.696156,1.153029,0.822397,1.057496,1.006656,0.925115,1.141051,0.830001,1.365535,0.666986,1.523298,0.537308,1.623420,0.427431,1.674985,0.323819,1.687072,0.212939,1.668763,0.081255,1.662584,0.052703,1.613860,-0.132766,1.559797,-0.250993,1.486448,-0.323443,1.388940,-0.368470,
1.306048,-0.383177,1.159112,-0.395498,0.964329,-0.405290,0.737900,-0.412409,0.496022,-0.416708,0.254895,-0.418046,0.030717,-0.416276,-0.160313,-0.411255,-0.301995,-0.402838,-0.378132,-0.390881,-0.386693,-0.384298,-0.376765,-0.321508,-0.351872,-0.197688,-0.316832,-0.034233,-0.276466,0.147462,-0.235594,0.326002,-0.199035,0.479991,-0.171609,0.588033,-0.158536,0.628512,-0.116688,0.613700,
-0.025428,0.558045,0.069482,0.492178,0.192083,0.395650,0.255844,0.317856,0.278796,0.232429,0.280614,0.183427,0.280614,0.027895,0.681667,0.027895,0.883855,0.032530,1.015413,0.050227,1.075453,0.086677,1.063085,0.147570,0.977421,0.238595,0.817571,0.365444,0.605084,0.518071,0.418773,0.650528,0.253394,0.771092,0.125795,0.867276,0.052826,0.926592,0.048926,0.930264,
-0.010103,1.042205,-0.029720,1.203346,-0.013802,1.384983,0.033775,1.558411,0.109133,1.694927,0.158577,1.742195,0.209050,1.766711,0.288592,1.784815,0.409350,1.797370,0.583469,1.805236,0.823095,1.809275,1.119746,1.810351,1.983609,1.810351,1.959766,1.710088,1.959766,1.710088,$1*%
G04 Aperture macros list end*
%TA.AperFunction,SMDPad,CuDef*%
%ADD10FreePoly0,0.000000*%
%TD*%
%TA.AperFunction,SMDPad,CuDef*%
%ADD11FreePoly1,0.000000*%
%TD*%
%TA.AperFunction,SMDPad,CuDef*%
%ADD12FreePoly2,0.000000*%
%TD*%
%TA.AperFunction,SMDPad,CuDef*%
%ADD13FreePoly3,0.000000*%
%TD*%
%TA.AperFunction,SMDPad,CuDef*%
%ADD14FreePoly4,0.000000*%
%TD*%
%TA.AperFunction,SMDPad,CuDef*%
%ADD15FreePoly5,0.000000*%
%TD*%
%TA.AperFunction,SMDPad,CuDef*%
%ADD16FreePoly6,0.000000*%
%TD*%
%TA.AperFunction,SMDPad,CuDef*%
%ADD17FreePoly7,0.000000*%
%TD*%
%TA.AperFunction,SMDPad,CuDef*%
%ADD18FreePoly8,0.000000*%
%TD*%
%TA.AperFunction,SMDPad,CuDef*%
%ADD19FreePoly9,0.000000*%
%TD*%
%TA.AperFunction,SMDPad,CuDef*%
%ADD20R,0.100000X0.100000*%
%TD*%
%TA.AperFunction,SMDPad,CuDef*%
%ADD21FreePoly10,0.000000*%
%TD*%
%TA.AperFunction,SMDPad,CuDef*%
%ADD22FreePoly11,0.000000*%
%TD*%
%TA.AperFunction,SMDPad,CuDef*%
%ADD23FreePoly12,0.000000*%
%TD*%
%TA.AperFunction,SMDPad,CuDef*%
%ADD24FreePoly13,0.000000*%
%TD*%
%TA.AperFunction,SMDPad,CuDef*%
%ADD25FreePoly14,0.000000*%
%TD*%
%TA.AperFunction,SMDPad,CuDef*%
%ADD26FreePoly15,0.000000*%
%TD*%
%TA.AperFunction,SMDPad,CuDef*%
%ADD27FreePoly16,0.000000*%
%TD*%
%TA.AperFunction,SMDPad,CuDef*%
%ADD28FreePoly17,0.000000*%
%TD*%
%TA.AperFunction,SMDPad,CuDef*%
%ADD29FreePoly18,0.000000*%
%TD*%
%TA.AperFunction,SMDPad,CuDef*%
%ADD30FreePoly19,0.000000*%
%TD*%
%TA.AperFunction,SMDPad,CuDef*%
%ADD31FreePoly20,0.000000*%
%TD*%
%TA.AperFunction,SMDPad,CuDef*%
%ADD32FreePoly21,0.000000*%
%TD*%
%TA.AperFunction,SMDPad,CuDef*%
%ADD33FreePoly22,0.000000*%
%TD*%
%TA.AperFunction,SMDPad,CuDef*%
%ADD34FreePoly23,0.000000*%
%TD*%
%TA.AperFunction,SMDPad,CuDef*%
%ADD35RoundRect,0.250000X-0.350000X-0.450000X0.350000X-0.450000X0.350000X0.450000X-0.350000X0.450000X0*%
%TD*%
%TA.AperFunction,ComponentPad*%
%ADD36C,2.311400*%
%TD*%
%TA.AperFunction,SMDPad,CuDef*%
%ADD37C,17.780001*%
%TD*%
%TA.AperFunction,SMDPad,CuDef*%
%ADD38RoundRect,0.237500X0.237500X-0.287500X0.237500X0.287500X-0.237500X0.287500X-0.237500X-0.287500X0*%
%TD*%
%TA.AperFunction,ComponentPad*%
%ADD39C,2.000000*%
%TD*%
%TA.AperFunction,SMDPad,CuDef*%
%ADD40RoundRect,0.150000X-0.825000X-0.150000X0.825000X-0.150000X0.825000X0.150000X-0.825000X0.150000X0*%
%TD*%
%TA.AperFunction,SMDPad,CuDef*%
%ADD41RoundRect,0.249999X0.450001X1.075001X-0.450001X1.075001X-0.450001X-1.075001X0.450001X-1.075001X0*%
%TD*%
%TA.AperFunction,SMDPad,CuDef*%
%ADD42RoundRect,0.237500X-0.237500X0.287500X-0.237500X-0.287500X0.237500X-0.287500X0.237500X0.287500X0*%
%TD*%
%TA.AperFunction,SMDPad,CuDef*%
%ADD43RoundRect,0.250000X-0.475000X0.337500X-0.475000X-0.337500X0.475000X-0.337500X0.475000X0.337500X0*%
%TD*%
%TA.AperFunction,ViaPad*%
%ADD44C,0.600000*%
%TD*%
%TA.AperFunction,Conductor*%
%ADD45C,0.400000*%
%TD*%
%TA.AperFunction,Conductor*%
%ADD46C,1.000000*%
%TD*%
G04 APERTURE END LIST*
D10*
%TO.P,G\u002A\u002A\u002A,1*%
%TO.N,N/C*%
X96800000Y-76800000D03*
D11*
X97100000Y-77700000D03*
D12*
X97975000Y-79925000D03*
D13*
X98650000Y-78075000D03*
D14*
X98700000Y-75800000D03*
D15*
X99175000Y-80725000D03*
D16*
X99225000Y-78950000D03*
D17*
X99425000Y-79450000D03*
D18*
X99600000Y-76900000D03*
D19*
X99750000Y-80125000D03*
D20*
X101000000Y-80675000D03*
X101225000Y-77300000D03*
D21*
X101875000Y-75650000D03*
D22*
X102425000Y-82175000D03*
D23*
X102650000Y-76900000D03*
D24*
X102750000Y-80025000D03*
D25*
X104950000Y-77025000D03*
D26*
X105325000Y-79950000D03*
D27*
X106975000Y-78275000D03*
D28*
X107850000Y-80075000D03*
D29*
X110275000Y-80175000D03*
D30*
X110975000Y-77000000D03*
D31*
X113525000Y-79950000D03*
D32*
X115025000Y-80400000D03*
D33*
X116075000Y-80350000D03*
D34*
X118325000Y-81000000D03*
%TD*%
D35*
%TO.P,R3,2*%
%TO.N,Net-(U1-THRES)*%
X112950000Y-92750000D03*
%TO.P,R3,1*%
%TO.N,Net-(D2-A)*%
X110950000Y-92750000D03*
%TD*%
D36*
%TO.P,BT1,1,+*%
%TO.N,VCC*%
X72400001Y-84500001D03*
X72400001Y-87600000D03*
X93200000Y-84500001D03*
X93200000Y-87600000D03*
D37*
%TO.P,BT1,2,-*%
%TO.N,GND*%
X82800000Y-86000001D03*
%TD*%
D38*
%TO.P,D2,2,A*%
%TO.N,Net-(D2-A)*%
X123350000Y-89375000D03*
%TO.P,D2,1,K*%
%TO.N,Net-(D2-K)*%
X123350000Y-91125000D03*
%TD*%
D39*
%TO.P,SW1,2,B*%
%TO.N,Net-(D1-A)*%
X102600000Y-86500000D03*
X102600000Y-93000000D03*
%TO.P,SW1,1,A*%
%TO.N,VCC*%
X98100000Y-86500000D03*
X98100000Y-93000000D03*
%TD*%
D40*
%TO.P,U1,8,VCC*%
%TO.N,Net-(D1-A)*%
X115125000Y-85245000D03*
%TO.P,U1,7,DISCH*%
%TO.N,unconnected-(U1-DISCH-Pad7)*%
X115125000Y-86515000D03*
%TO.P,U1,6,THRES*%
%TO.N,Net-(U1-THRES)*%
X115125000Y-87785000D03*
%TO.P,U1,5,CONT*%
%TO.N,unconnected-(U1-CONT-Pad5)*%
X115125000Y-89055000D03*
%TO.P,U1,4,~{RST}*%
%TO.N,Net-(D1-A)*%
X110175000Y-89055000D03*
%TO.P,U1,3,OUT*%
%TO.N,Net-(D2-A)*%
X110175000Y-87785000D03*
%TO.P,U1,2,TRIG*%
%TO.N,Net-(U1-THRES)*%
X110175000Y-86515000D03*
%TO.P,U1,1,GND*%
%TO.N,GND*%
X110175000Y-85245000D03*
%TD*%
D41*
%TO.P,R1,2*%
%TO.N,Net-(D2-A)*%
X118550000Y-85050000D03*
%TO.P,R1,1*%
%TO.N,Net-(D1-K)*%
X123350000Y-85050000D03*
%TD*%
%TO.P,R2,2*%
%TO.N,GND*%
X118450000Y-94850000D03*
%TO.P,R2,1*%
%TO.N,Net-(D2-K)*%
X123250000Y-94850000D03*
%TD*%
D42*
%TO.P,D1,2,A*%
%TO.N,Net-(D1-A)*%
X123350000Y-81925000D03*
%TO.P,D1,1,K*%
%TO.N,Net-(D1-K)*%
X123350000Y-80175000D03*
%TD*%
D43*
%TO.P,C1,2*%
%TO.N,GND*%
X106300000Y-88837500D03*
%TO.P,C1,1*%
%TO.N,Net-(U1-THRES)*%
X106300000Y-86762500D03*
%TD*%
D44*
%TO.N,GND*%
X114200000Y-83100000D03*
X118500000Y-88700000D03*
X100500000Y-83800000D03*
X90800000Y-93000000D03*
X73800000Y-91900000D03*
X90000000Y-77800000D03*
X70100000Y-76300000D03*
X70100000Y-87200000D03*
X70000000Y-96500000D03*
X116100000Y-77200000D03*
X123054983Y-77636913D03*
X97522765Y-82870225D03*
X97600000Y-96500000D03*
X105500000Y-96700000D03*
X108700000Y-93900000D03*
X109900000Y-91100000D03*
X114500000Y-90700000D03*
X120300000Y-91800000D03*
%TO.N,Net-(D2-A)*%
X108200000Y-87800000D03*
X107900000Y-92800000D03*
%TD*%
D45*
%TO.N,Net-(D1-A)*%
X115125000Y-85245000D02*
X113845000Y-85245000D01*
X113845000Y-85245000D02*
X112600000Y-84000000D01*
X102600000Y-84700000D02*
X102600000Y-86500000D01*
X112600000Y-84000000D02*
X103300000Y-84000000D01*
X103300000Y-84000000D02*
X102600000Y-84700000D01*
%TO.N,Net-(D2-A)*%
X121100000Y-89375000D02*
X120225000Y-89375000D01*
X112051000Y-93851000D02*
X110950000Y-92750000D01*
X120225000Y-89375000D02*
X115749000Y-93851000D01*
X115749000Y-93851000D02*
X112051000Y-93851000D01*
%TO.N,Net-(U1-THRES)*%
X112950000Y-92750000D02*
X114150000Y-92750000D01*
X114150000Y-92750000D02*
X117100000Y-89800000D01*
X117100000Y-89800000D02*
X117100000Y-88200000D01*
X117100000Y-88200000D02*
X116685000Y-87785000D01*
X116685000Y-87785000D02*
X115125000Y-87785000D01*
%TO.N,Net-(D2-A)*%
X121375000Y-89100000D02*
X121375000Y-88075000D01*
X121375000Y-88075000D02*
X120700000Y-87400000D01*
X120700000Y-87400000D02*
X119300000Y-87400000D01*
X119300000Y-87400000D02*
X118550000Y-86650000D01*
X118550000Y-86650000D02*
X118550000Y-85050000D01*
X121700000Y-89375000D02*
X121100000Y-89375000D01*
X121375000Y-89100000D02*
X121100000Y-89375000D01*
X121425000Y-89100000D02*
X121375000Y-89100000D01*
X123350000Y-89375000D02*
X121700000Y-89375000D01*
X121425000Y-89100000D02*
X121700000Y-89375000D01*
X121375000Y-89375000D02*
X121375000Y-89100000D01*
%TO.N,Net-(D1-A)*%
X123350000Y-81925000D02*
X122175000Y-81925000D01*
X122175000Y-81925000D02*
X121200000Y-82900000D01*
X116000000Y-82900000D02*
X115125000Y-83775000D01*
X121200000Y-82900000D02*
X116000000Y-82900000D01*
X115125000Y-83775000D02*
X115125000Y-85245000D01*
%TO.N,Net-(D2-K)*%
X123350000Y-91125000D02*
X123350000Y-94750000D01*
X123350000Y-94750000D02*
X123250000Y-94850000D01*
%TO.N,Net-(D1-K)*%
X124475000Y-80175000D02*
X125100000Y-80800000D01*
X123350000Y-80175000D02*
X124475000Y-80175000D01*
X124650000Y-85050000D02*
X123350000Y-85050000D01*
X125100000Y-80800000D02*
X125100000Y-84600000D01*
X125100000Y-84600000D02*
X124650000Y-85050000D01*
%TO.N,Net-(U1-THRES)*%
X110175000Y-86515000D02*
X112096612Y-86515000D01*
X112096612Y-86515000D02*
X113366612Y-87785000D01*
X113366612Y-87785000D02*
X115125000Y-87785000D01*
%TO.N,Net-(D2-A)*%
X110950000Y-92750000D02*
X107950000Y-92750000D01*
X110160000Y-87800000D02*
X110175000Y-87785000D01*
X107950000Y-92750000D02*
X107900000Y-92800000D01*
X108200000Y-87800000D02*
X110160000Y-87800000D01*
%TO.N,Net-(U1-THRES)*%
X106650000Y-86687500D02*
X110002500Y-86687500D01*
X110002500Y-86687500D02*
X110175000Y-86515000D01*
%TO.N,Net-(D1-A)*%
X110175000Y-89055000D02*
X109945000Y-89055000D01*
X109945000Y-89055000D02*
X106000000Y-93000000D01*
X106000000Y-93000000D02*
X102600000Y-93000000D01*
D46*
X102600000Y-86500000D02*
X102600000Y-93000000D01*
%TO.N,VCC*%
X98100000Y-86500000D02*
X98100000Y-93000000D01*
X72400001Y-84500001D02*
X72400001Y-79799999D01*
X72400001Y-79799999D02*
X76100000Y-76100000D01*
X76100000Y-76100000D02*
X91700000Y-76100000D01*
X91700000Y-76100000D02*
X93200000Y-77600000D01*
X93200000Y-77600000D02*
X93200000Y-84500001D01*
X72400001Y-84500001D02*
X72400001Y-87600000D01*
X93200000Y-84500001D02*
X93200000Y-87600000D01*
X93200000Y-87600000D02*
X93200000Y-91200000D01*
X95000000Y-93000000D02*
X98100000Y-93000000D01*
X93200000Y-91200000D02*
X95000000Y-93000000D01*
%TD*%
%TA.AperFunction,Conductor*%
%TO.N,GND*%
G36*
X117328785Y-83620185D02*
G01*
X117374540Y-83672989D01*
X117384484Y-83742147D01*
X117379452Y-83763500D01*
X117360001Y-83822202D01*
X117360001Y-83822203D01*
X117360000Y-83822203D01*
X117349500Y-83924982D01*
X117349500Y-86175017D01*
X117360000Y-86277796D01*
X117394498Y-86381902D01*
X117415186Y-86444335D01*
X117507288Y-86593656D01*
X117631344Y-86717712D01*
X117780665Y-86809814D01*
X117816432Y-86821666D01*
X117873877Y-86861438D01*
X117891990Y-86891919D01*
X117929223Y-86981809D01*
X118005887Y-87096545D01*
X118853454Y-87944112D01*
X118968190Y-88020776D01*
X119066790Y-88061617D01*
X119095671Y-88073580D01*
X119095672Y-88073580D01*
X119095677Y-88073582D01*
X119122545Y-88078925D01*
X119122551Y-88078926D01*
X119122591Y-88078934D01*
X119212937Y-88096905D01*
X119231006Y-88100500D01*
X119231007Y-88100500D01*
X120358481Y-88100500D01*
X120425520Y-88120185D01*
X120446162Y-88136819D01*
X120638181Y-88328838D01*
X120652884Y-88355765D01*
X120669477Y-88381584D01*
X120670368Y-88387784D01*
X120671666Y-88390161D01*
X120674500Y-88416519D01*
X120674500Y-88550500D01*
X120654815Y-88617539D01*
X120602011Y-88663294D01*
X120550500Y-88674500D01*
X120156004Y-88674500D01*
X120020677Y-88701418D01*
X120020667Y-88701421D01*
X119893192Y-88754222D01*
X119778454Y-88830887D01*
X119778453Y-88830888D01*
X115495162Y-93114181D01*
X115433839Y-93147666D01*
X115407481Y-93150500D01*
X115039519Y-93150500D01*
X114972480Y-93130815D01*
X114926725Y-93078011D01*
X114916781Y-93008853D01*
X114945806Y-92945297D01*
X114951838Y-92938819D01*
X117644112Y-90246545D01*
X117644114Y-90246543D01*
X117720775Y-90131811D01*
X117724280Y-90123351D01*
X117773578Y-90004332D01*
X117773580Y-90004328D01*
X117800500Y-89868994D01*
X117800500Y-89731006D01*
X117800500Y-88131007D01*
X117798347Y-88120185D01*
X117792928Y-88092945D01*
X117789143Y-88073914D01*
X117773580Y-87995672D01*
X117770331Y-87987828D01*
X117720777Y-87868192D01*
X117644112Y-87753454D01*
X117131545Y-87240887D01*
X117016807Y-87164222D01*
X116889332Y-87111421D01*
X116889322Y-87111418D01*
X116753996Y-87084500D01*
X116753994Y-87084500D01*
X116753993Y-87084500D01*
X116670673Y-87084500D01*
X116603634Y-87064815D01*
X116557879Y-87012011D01*
X116547935Y-86942853D01*
X116551597Y-86925905D01*
X116597597Y-86767573D01*
X116597598Y-86767567D01*
X116600499Y-86730701D01*
X116600500Y-86730694D01*
X116600500Y-86299306D01*
X116597598Y-86262431D01*
X116551744Y-86104602D01*
X116468081Y-85963135D01*
X116468078Y-85963132D01*
X116463298Y-85956969D01*
X116465750Y-85955066D01*
X116439155Y-85906421D01*
X116444104Y-85836726D01*
X116464940Y-85804304D01*
X116463298Y-85803031D01*
X116468075Y-85796870D01*
X116468081Y-85796865D01*
X116551744Y-85655398D01*
X116597598Y-85497569D01*
X116600500Y-85460694D01*
X116600500Y-85029306D01*
X116597598Y-84992431D01*
X116592382Y-84974479D01*
X116551745Y-84834606D01*
X116551744Y-84834603D01*
X116551744Y-84834602D01*
X116468081Y-84693135D01*
X116468079Y-84693133D01*
X116468076Y-84693129D01*
X116351870Y-84576923D01*
X116351862Y-84576917D01*
X116273681Y-84530681D01*
X116210398Y-84493256D01*
X116210397Y-84493255D01*
X116210396Y-84493255D01*
X116210393Y-84493254D01*
X116052573Y-84447402D01*
X116052567Y-84447401D01*
X116015701Y-84444500D01*
X116015694Y-84444500D01*
X115949500Y-84444500D01*
X115940814Y-84441949D01*
X115931853Y-84443238D01*
X115907812Y-84432259D01*
X115882461Y-84424815D01*
X115876533Y-84417974D01*
X115868297Y-84414213D01*
X115854007Y-84391978D01*
X115836706Y-84372011D01*
X115834418Y-84361496D01*
X115830523Y-84355435D01*
X115825500Y-84320500D01*
X115825500Y-84116519D01*
X115845185Y-84049480D01*
X115861819Y-84028838D01*
X116253838Y-83636819D01*
X116315161Y-83603334D01*
X116341519Y-83600500D01*
X117261746Y-83600500D01*
X117328785Y-83620185D01*
G37*
%TD.AperFunction*%
%TA.AperFunction,Conductor*%
G36*
X108689623Y-84720185D02*
G01*
X108735378Y-84772989D01*
X108745322Y-84842147D01*
X108741660Y-84859095D01*
X108702900Y-84992505D01*
X108702899Y-84992511D01*
X108702704Y-84994998D01*
X108702705Y-84995000D01*
X111647295Y-84995000D01*
X111647295Y-84994998D01*
X111647100Y-84992511D01*
X111647099Y-84992505D01*
X111608340Y-84859095D01*
X111608539Y-84789225D01*
X111646481Y-84730555D01*
X111710120Y-84701712D01*
X111727416Y-84700500D01*
X112258481Y-84700500D01*
X112325520Y-84720185D01*
X112346162Y-84736819D01*
X113398453Y-85789111D01*
X113398454Y-85789112D01*
X113398457Y-85789114D01*
X113513189Y-85865775D01*
X113640672Y-85918580D01*
X113640674Y-85918580D01*
X113643271Y-85919656D01*
X113697675Y-85963496D01*
X113719740Y-86029790D01*
X113702555Y-86097332D01*
X113698255Y-86104602D01*
X113698254Y-86104606D01*
X113652402Y-86262426D01*
X113652401Y-86262432D01*
X113649500Y-86299298D01*
X113649500Y-86730702D01*
X113652731Y-86771754D01*
X113638366Y-86840132D01*
X113589314Y-86889888D01*
X113521149Y-86905226D01*
X113455512Y-86881276D01*
X113441432Y-86869163D01*
X112543158Y-85970888D01*
X112543157Y-85970887D01*
X112428419Y-85894222D01*
X112300944Y-85841421D01*
X112300934Y-85841418D01*
X112165608Y-85814500D01*
X112165606Y-85814500D01*
X112165605Y-85814500D01*
X111720153Y-85814500D01*
X111653114Y-85794815D01*
X111607359Y-85742011D01*
X111597415Y-85672853D01*
X111601077Y-85655905D01*
X111647099Y-85497494D01*
X111647100Y-85497488D01*
X111647295Y-85495001D01*
X111647295Y-85495000D01*
X108702705Y-85495000D01*
X108702704Y-85495001D01*
X108702899Y-85497486D01*
X108748718Y-85655198D01*
X108834282Y-85799879D01*
X108851465Y-85867603D01*
X108829305Y-85933866D01*
X108774839Y-85977629D01*
X108727550Y-85987000D01*
X107449730Y-85987000D01*
X107382691Y-85967315D01*
X107362049Y-85950681D01*
X107243657Y-85832289D01*
X107243656Y-85832288D01*
X107094334Y-85740186D01*
X106927797Y-85685001D01*
X106927795Y-85685000D01*
X106825010Y-85674500D01*
X105774998Y-85674500D01*
X105774980Y-85674501D01*
X105672203Y-85685000D01*
X105672200Y-85685001D01*
X105505668Y-85740185D01*
X105505663Y-85740187D01*
X105356342Y-85832289D01*
X105232289Y-85956342D01*
X105140187Y-86105663D01*
X105140186Y-86105666D01*
X105085001Y-86272203D01*
X105085001Y-86272204D01*
X105085000Y-86272204D01*
X105074500Y-86374983D01*
X105074500Y-87150001D01*
X105074501Y-87150019D01*
X105085000Y-87252796D01*
X105085001Y-87252799D01*
X105125195Y-87374095D01*
X105140186Y-87419334D01*
X105232288Y-87568656D01*
X105356344Y-87692712D01*
X105359628Y-87694737D01*
X105359653Y-87694753D01*
X105361445Y-87696746D01*
X105362011Y-87697193D01*
X105361934Y-87697289D01*
X105406379Y-87746699D01*
X105417603Y-87815661D01*
X105389761Y-87879744D01*
X105359665Y-87905826D01*
X105356660Y-87907679D01*
X105356655Y-87907683D01*
X105232684Y-88031654D01*
X105140643Y-88180875D01*
X105140641Y-88180880D01*
X105085494Y-88347302D01*
X105085493Y-88347309D01*
X105075000Y-88450013D01*
X105075000Y-88587500D01*
X107524999Y-88587500D01*
X107524999Y-88543720D01*
X107544684Y-88476681D01*
X107597488Y-88430926D01*
X107666646Y-88420982D01*
X107717890Y-88440618D01*
X107820814Y-88509390D01*
X107820827Y-88509397D01*
X107966498Y-88569735D01*
X107966503Y-88569737D01*
X108121153Y-88600499D01*
X108121156Y-88600500D01*
X108121158Y-88600500D01*
X108278844Y-88600500D01*
X108278845Y-88600499D01*
X108433497Y-88569737D01*
X108577470Y-88510101D01*
X108646938Y-88502633D01*
X108709417Y-88533908D01*
X108745069Y-88593997D01*
X108743997Y-88659258D01*
X108702402Y-88802426D01*
X108702401Y-88802432D01*
X108699500Y-88839298D01*
X108699500Y-89258480D01*
X108679815Y-89325519D01*
X108663181Y-89346161D01*
X105746162Y-92263181D01*
X105684839Y-92296666D01*
X105658481Y-92299500D01*
X104003116Y-92299500D01*
X103936077Y-92279815D01*
X103892632Y-92231797D01*
X103883342Y-92213566D01*
X103744517Y-92022490D01*
X103636819Y-91914792D01*
X103603334Y-91853469D01*
X103600500Y-91827111D01*
X103600500Y-89224986D01*
X105075001Y-89224986D01*
X105085494Y-89327697D01*
X105140641Y-89494119D01*
X105140643Y-89494124D01*
X105232684Y-89643345D01*
X105356654Y-89767315D01*
X105505875Y-89859356D01*
X105505880Y-89859358D01*
X105672302Y-89914505D01*
X105672309Y-89914506D01*
X105775019Y-89924999D01*
X106049999Y-89924999D01*
X106550000Y-89924999D01*
X106824972Y-89924999D01*
X106824986Y-89924998D01*
X106927697Y-89914505D01*
X107094119Y-89859358D01*
X107094124Y-89859356D01*
X107243345Y-89767315D01*
X107367315Y-89643345D01*
X107459356Y-89494124D01*
X107459358Y-89494119D01*
X107514505Y-89327697D01*
X107514506Y-89327690D01*
X107524999Y-89224986D01*
X107525000Y-89224973D01*
X107525000Y-89087500D01*
X106550000Y-89087500D01*
X106550000Y-89924999D01*
X106049999Y-89924999D01*
X106050000Y-89924998D01*
X106050000Y-89087500D01*
X105075001Y-89087500D01*
X105075001Y-89224986D01*
X103600500Y-89224986D01*
X103600500Y-87672889D01*
X103620185Y-87605850D01*
X103636819Y-87585208D01*
X103689601Y-87532426D01*
X103744517Y-87477510D01*
X103883343Y-87286433D01*
X103990568Y-87075992D01*
X104063553Y-86851368D01*
X104068257Y-86821666D01*
X104100500Y-86618097D01*
X104100500Y-86381902D01*
X104063553Y-86148631D01*
X104011035Y-85987000D01*
X103990568Y-85924008D01*
X103990566Y-85924005D01*
X103990566Y-85924003D01*
X103921835Y-85789112D01*
X103883343Y-85713567D01*
X103744517Y-85522490D01*
X103577510Y-85355483D01*
X103386433Y-85216657D01*
X103386432Y-85216656D01*
X103386430Y-85216655D01*
X103368201Y-85207366D01*
X103357138Y-85196917D01*
X103343297Y-85190596D01*
X103332255Y-85173414D01*
X103317407Y-85159390D01*
X103313166Y-85143711D01*
X103305523Y-85131818D01*
X103300500Y-85096883D01*
X103300500Y-85041518D01*
X103320185Y-84974479D01*
X103336819Y-84953837D01*
X103553837Y-84736819D01*
X103615160Y-84703334D01*
X103641518Y-84700500D01*
X108622584Y-84700500D01*
X108689623Y-84720185D01*
G37*
%TD.AperFunction*%
%TA.AperFunction,Conductor*%
G36*
X111822132Y-87235185D02*
G01*
X111842774Y-87251819D01*
X112920065Y-88329111D01*
X112920066Y-88329112D01*
X113034802Y-88405776D01*
X113118919Y-88440618D01*
X113162283Y-88458580D01*
X113162284Y-88458580D01*
X113162289Y-88458582D01*
X113189157Y-88463925D01*
X113189163Y-88463926D01*
X113189203Y-88463934D01*
X113279549Y-88481905D01*
X113297618Y-88485500D01*
X113297619Y-88485500D01*
X113579327Y-88485500D01*
X113646366Y-88505185D01*
X113692121Y-88557989D01*
X113702065Y-88627147D01*
X113698403Y-88644095D01*
X113652402Y-88802426D01*
X113652401Y-88802432D01*
X113649500Y-88839298D01*
X113649500Y-89270701D01*
X113652401Y-89307567D01*
X113652402Y-89307573D01*
X113698254Y-89465393D01*
X113698255Y-89465396D01*
X113698256Y-89465398D01*
X113735681Y-89528681D01*
X113781917Y-89606862D01*
X113781923Y-89606870D01*
X113898129Y-89723076D01*
X113898133Y-89723079D01*
X113898135Y-89723081D01*
X114039602Y-89806744D01*
X114060278Y-89812751D01*
X114197426Y-89852597D01*
X114197429Y-89852597D01*
X114197431Y-89852598D01*
X114234306Y-89855500D01*
X114234314Y-89855500D01*
X115754480Y-89855500D01*
X115821519Y-89875185D01*
X115867274Y-89927989D01*
X115877218Y-89997147D01*
X115848193Y-90060703D01*
X115842161Y-90067181D01*
X114073036Y-91836306D01*
X114011713Y-91869791D01*
X113942021Y-91864807D01*
X113897674Y-91836306D01*
X113768657Y-91707289D01*
X113768656Y-91707288D01*
X113619334Y-91615186D01*
X113452797Y-91560001D01*
X113452795Y-91560000D01*
X113350010Y-91549500D01*
X112549998Y-91549500D01*
X112549980Y-91549501D01*
X112447203Y-91560000D01*
X112447200Y-91560001D01*
X112280668Y-91615185D01*
X112280663Y-91615187D01*
X112131342Y-91707289D01*
X112037681Y-91800951D01*
X111976358Y-91834436D01*
X111906666Y-91829452D01*
X111862319Y-91800951D01*
X111768657Y-91707289D01*
X111768656Y-91707288D01*
X111619334Y-91615186D01*
X111452797Y-91560001D01*
X111452795Y-91560000D01*
X111350010Y-91549500D01*
X110549998Y-91549500D01*
X110549980Y-91549501D01*
X110447203Y-91560000D01*
X110447200Y-91560001D01*
X110280668Y-91615185D01*
X110280663Y-91615187D01*
X110131342Y-91707289D01*
X110007289Y-91831342D01*
X109993641Y-91853469D01*
X109917362Y-91977139D01*
X109911395Y-91986813D01*
X109909600Y-91985706D01*
X109870313Y-92030337D01*
X109804092Y-92049500D01*
X108240518Y-92049500D01*
X108173479Y-92029815D01*
X108127724Y-91977011D01*
X108117780Y-91907853D01*
X108146805Y-91844297D01*
X108152837Y-91837819D01*
X110098838Y-89891819D01*
X110160161Y-89858334D01*
X110186519Y-89855500D01*
X111065686Y-89855500D01*
X111065694Y-89855500D01*
X111102569Y-89852598D01*
X111102571Y-89852597D01*
X111102573Y-89852597D01*
X111144191Y-89840505D01*
X111260398Y-89806744D01*
X111401865Y-89723081D01*
X111518081Y-89606865D01*
X111601744Y-89465398D01*
X111642383Y-89325519D01*
X111647597Y-89307573D01*
X111647598Y-89307567D01*
X111650499Y-89270701D01*
X111650500Y-89270694D01*
X111650500Y-88839306D01*
X111647598Y-88802431D01*
X111639187Y-88773481D01*
X111608656Y-88668392D01*
X111601744Y-88644602D01*
X111518081Y-88503135D01*
X111518078Y-88503132D01*
X111513298Y-88496969D01*
X111515750Y-88495066D01*
X111489155Y-88446421D01*
X111494104Y-88376726D01*
X111514940Y-88344304D01*
X111513298Y-88343031D01*
X111518075Y-88336870D01*
X111518081Y-88336865D01*
X111601744Y-88195398D01*
X111647598Y-88037569D01*
X111650500Y-88000694D01*
X111650500Y-87569306D01*
X111647598Y-87532431D01*
X111631642Y-87477512D01*
X111601597Y-87374095D01*
X111601671Y-87347841D01*
X111597935Y-87321853D01*
X111601769Y-87313456D01*
X111601796Y-87304226D01*
X111616052Y-87282180D01*
X111626960Y-87258297D01*
X111634725Y-87253306D01*
X111639738Y-87245556D01*
X111663650Y-87234717D01*
X111685738Y-87220523D01*
X111699256Y-87218579D01*
X111703376Y-87216712D01*
X111720673Y-87215500D01*
X111755093Y-87215500D01*
X111822132Y-87235185D01*
G37*
%TD.AperFunction*%
%TA.AperFunction,Conductor*%
G36*
X126442539Y-74520185D02*
G01*
X126488294Y-74572989D01*
X126499500Y-74624500D01*
X126499500Y-98375500D01*
X126479815Y-98442539D01*
X126427011Y-98488294D01*
X126375500Y-98499500D01*
X68624500Y-98499500D01*
X68557461Y-98479815D01*
X68511706Y-98427011D01*
X68500500Y-98375500D01*
X68500500Y-95974986D01*
X117250001Y-95974986D01*
X117260494Y-96077696D01*
X117260494Y-96077698D01*
X117315640Y-96244119D01*
X117315645Y-96244130D01*
X117407680Y-96393340D01*
X117407683Y-96393344D01*
X117531655Y-96517316D01*
X117531659Y-96517319D01*
X117680869Y-96609354D01*
X117680880Y-96609359D01*
X117847302Y-96664505D01*
X117950019Y-96674999D01*
X118199999Y-96674999D01*
X118700000Y-96674999D01*
X118949972Y-96674999D01*
X118949986Y-96674998D01*
X119052696Y-96664505D01*
X119052698Y-96664505D01*
X119219119Y-96609359D01*
X119219130Y-96609354D01*
X119368340Y-96517319D01*
X119368344Y-96517316D01*
X119492316Y-96393344D01*
X119492319Y-96393340D01*
X119584354Y-96244130D01*
X119584359Y-96244119D01*
X119639505Y-96077697D01*
X119649999Y-95974986D01*
X119650000Y-95974973D01*
X119650000Y-95100000D01*
X118700000Y-95100000D01*
X118700000Y-96674999D01*
X118199999Y-96674999D01*
X118200000Y-96674998D01*
X118200000Y-95100000D01*
X117250001Y-95100000D01*
X117250001Y-95974986D01*
X68500500Y-95974986D01*
X68500500Y-92816510D01*
X76337044Y-92816510D01*
X76377625Y-92857091D01*
X76839862Y-93262462D01*
X77327603Y-93636719D01*
X77838770Y-93978270D01*
X77838795Y-93978286D01*
X78371213Y-94285678D01*
X78922601Y-94557592D01*
X79490591Y-94792861D01*
X79490602Y-94792865D01*
X80072757Y-94990481D01*
X80072772Y-94990485D01*
X80666588Y-95149597D01*
X80666628Y-95149607D01*
X81269582Y-95269543D01*
X81269593Y-95269545D01*
X81879120Y-95349790D01*
X82492614Y-95390001D01*
X83107386Y-95390001D01*
X83720879Y-95349790D01*
X84330406Y-95269545D01*
X84330417Y-95269543D01*
X84933371Y-95149607D01*
X84933411Y-95149597D01*
X85527227Y-94990485D01*
X85527241Y-94990481D01*
X85701823Y-94931219D01*
X86109397Y-94792865D01*
X86109408Y-94792861D01*
X86677398Y-94557592D01*
X87228786Y-94285678D01*
X87761204Y-93978286D01*
X87761229Y-93978270D01*
X88272396Y-93636719D01*
X88760137Y-93262462D01*
X89222367Y-92857098D01*
X89262955Y-92816509D01*
X82800000Y-86353554D01*
X76337044Y-92816510D01*
X68500500Y-92816510D01*
X68500500Y-84369649D01*
X70743801Y-84369649D01*
X70743801Y-84630352D01*
X70776152Y-84834603D01*
X70784582Y-84887829D01*
X70865141Y-85135761D01*
X70865142Y-85135764D01*
X70865143Y-85135765D01*
X70879490Y-85163922D01*
X70983492Y-85368039D01*
X71136723Y-85578943D01*
X71321059Y-85763279D01*
X71348385Y-85783132D01*
X71391051Y-85838460D01*
X71399501Y-85883451D01*
X71399501Y-86216549D01*
X71379816Y-86283588D01*
X71348388Y-86316866D01*
X71321059Y-86336721D01*
X71136725Y-86521055D01*
X71136725Y-86521056D01*
X71136723Y-86521058D01*
X71109990Y-86557853D01*
X70983492Y-86731961D01*
X70865143Y-86964235D01*
X70865142Y-86964237D01*
X70865141Y-86964240D01*
X70784582Y-87212172D01*
X70784581Y-87212175D01*
X70784581Y-87212177D01*
X70743801Y-87469648D01*
X70743801Y-87730351D01*
X70771888Y-87907683D01*
X70784582Y-87987828D01*
X70865141Y-88235760D01*
X70983492Y-88468038D01*
X71136723Y-88678942D01*
X71321059Y-88863278D01*
X71531963Y-89016509D01*
X71764241Y-89134860D01*
X72012173Y-89215419D01*
X72140914Y-89235809D01*
X72269650Y-89256200D01*
X72269655Y-89256200D01*
X72530352Y-89256200D01*
X72647384Y-89237663D01*
X72787829Y-89215419D01*
X73035761Y-89134860D01*
X73268039Y-89016509D01*
X73478943Y-88863278D01*
X73619217Y-88723003D01*
X73680536Y-88689521D01*
X73750228Y-88694505D01*
X73806162Y-88736376D01*
X73824314Y-88770828D01*
X74007135Y-89309398D01*
X74007139Y-89309409D01*
X74242408Y-89877399D01*
X74514322Y-90428787D01*
X74821714Y-90961205D01*
X74821730Y-90961230D01*
X75163281Y-91472397D01*
X75537538Y-91960138D01*
X75942909Y-92422375D01*
X75983490Y-92462956D01*
X82446446Y-86000001D01*
X82446446Y-86000000D01*
X75983490Y-79537045D01*
X75983489Y-79537045D01*
X75942909Y-79577625D01*
X75537538Y-80039863D01*
X75163281Y-80527604D01*
X74821730Y-81038771D01*
X74821714Y-81038796D01*
X74514322Y-81571214D01*
X74242408Y-82122602D01*
X74007139Y-82690592D01*
X74007135Y-82690603D01*
X73809526Y-83272739D01*
X73809517Y-83272766D01*
X73802863Y-83297600D01*
X73800732Y-83301094D01*
X73800569Y-83305182D01*
X73782703Y-83330674D01*
X73766498Y-83357260D01*
X73762817Y-83359047D01*
X73760469Y-83362399D01*
X73731645Y-83374190D01*
X73703650Y-83387789D01*
X73699588Y-83387303D01*
X73695801Y-83388853D01*
X73665181Y-83383189D01*
X73634275Y-83379494D01*
X73629967Y-83376675D01*
X73627097Y-83376145D01*
X73607917Y-83362250D01*
X73598194Y-83355889D01*
X73596794Y-83354574D01*
X73478943Y-83236723D01*
X73445297Y-83212277D01*
X73439607Y-83206933D01*
X73425705Y-83183267D01*
X73408949Y-83161536D01*
X73407073Y-83151546D01*
X73404219Y-83146688D01*
X73404560Y-83138168D01*
X73400501Y-83116550D01*
X73400501Y-80265781D01*
X73420186Y-80198742D01*
X73436820Y-80178100D01*
X76478102Y-77136819D01*
X76539425Y-77103334D01*
X76565783Y-77100500D01*
X79124653Y-77100500D01*
X79191692Y-77120185D01*
X79237447Y-77172989D01*
X79247391Y-77242147D01*
X79218366Y-77305703D01*
X79172106Y-77339061D01*
X78922601Y-77442409D01*
X78371213Y-77714323D01*
X77838795Y-78021715D01*
X77838770Y-78021731D01*
X77327603Y-78363282D01*
X76839862Y-78737539D01*
X76377624Y-79142910D01*
X76337044Y-79183489D01*
X76337044Y-79183491D01*
X82800000Y-85646447D01*
X89262955Y-79183492D01*
X89262955Y-79183491D01*
X89222366Y-79142903D01*
X88760137Y-78737539D01*
X88272396Y-78363282D01*
X87761229Y-78021731D01*
X87761204Y-78021715D01*
X87228786Y-77714323D01*
X86677398Y-77442409D01*
X86427894Y-77339061D01*
X86373491Y-77295220D01*
X86351426Y-77228926D01*
X86368705Y-77161226D01*
X86419842Y-77113616D01*
X86475347Y-77100500D01*
X91234218Y-77100500D01*
X91301257Y-77120185D01*
X91321899Y-77136819D01*
X92163181Y-77978101D01*
X92196666Y-78039424D01*
X92199500Y-78065782D01*
X92199500Y-83116550D01*
X92190332Y-83147772D01*
X92182419Y-83179355D01*
X92180407Y-83181572D01*
X92179815Y-83183589D01*
X92160394Y-83206933D01*
X92154703Y-83212277D01*
X92121058Y-83236723D01*
X92003220Y-83354560D01*
X92001805Y-83355890D01*
X91972297Y-83370822D01*
X91943269Y-83386673D01*
X91941260Y-83386529D01*
X91939463Y-83387439D01*
X91906570Y-83384048D01*
X91873577Y-83381689D01*
X91871963Y-83380481D01*
X91869962Y-83380275D01*
X91844118Y-83359635D01*
X91817644Y-83339817D01*
X91816593Y-83337654D01*
X91815366Y-83336674D01*
X91813652Y-83331600D01*
X91797135Y-83297597D01*
X91790480Y-83272758D01*
X91592864Y-82690603D01*
X91592860Y-82690592D01*
X91357591Y-82122602D01*
X91085677Y-81571214D01*
X90778285Y-81038796D01*
X90778269Y-81038771D01*
X90436718Y-80527604D01*
X90062461Y-80039863D01*
X89657090Y-79577626D01*
X89616509Y-79537045D01*
X83153553Y-86000001D01*
X89616508Y-92462956D01*
X89616509Y-92462956D01*
X89657097Y-92422368D01*
X90062461Y-91960138D01*
X90436718Y-91472397D01*
X90778269Y-90961230D01*
X90778285Y-90961205D01*
X91085677Y-90428787D01*
X91357591Y-89877399D01*
X91592860Y-89309409D01*
X91592868Y-89309389D01*
X91775685Y-88770828D01*
X91815874Y-88713673D01*
X91880583Y-88687320D01*
X91949267Y-88700134D01*
X91980785Y-88723005D01*
X92121058Y-88863278D01*
X92148384Y-88883131D01*
X92191050Y-88938459D01*
X92199500Y-88983450D01*
X92199500Y-91298541D01*
X92199500Y-91298543D01*
X92199499Y-91298543D01*
X92237947Y-91491829D01*
X92237950Y-91491839D01*
X92313364Y-91673907D01*
X92313371Y-91673920D01*
X92422859Y-91837780D01*
X92422860Y-91837781D01*
X92422861Y-91837782D01*
X92562218Y-91977139D01*
X92562219Y-91977139D01*
X92569286Y-91984206D01*
X92569285Y-91984206D01*
X92569288Y-91984208D01*
X94222860Y-93637781D01*
X94222861Y-93637782D01*
X94302487Y-93717408D01*
X94362219Y-93777140D01*
X94523362Y-93884812D01*
X94526086Y-93886632D01*
X94606630Y-93919994D01*
X94708164Y-93962051D01*
X94901454Y-94000499D01*
X94901457Y-94000500D01*
X94901459Y-94000500D01*
X95098540Y-94000500D01*
X96927111Y-94000500D01*
X96994150Y-94020185D01*
X97014792Y-94036819D01*
X97122490Y-94144517D01*
X97313567Y-94283343D01*
X97412991Y-94334002D01*
X97524003Y-94390566D01*
X97524005Y-94390566D01*
X97524008Y-94390568D01*
X97644412Y-94429689D01*
X97748631Y-94463553D01*
X97981903Y-94500500D01*
X97981908Y-94500500D01*
X98218097Y-94500500D01*
X98451368Y-94463553D01*
X98451374Y-94463551D01*
X98675992Y-94390568D01*
X98886433Y-94283343D01*
X99077510Y-94144517D01*
X99244517Y-93977510D01*
X99383343Y-93786433D01*
X99490568Y-93575992D01*
X99563553Y-93351368D01*
X99570059Y-93310289D01*
X99600500Y-93118097D01*
X99600500Y-92881902D01*
X99563553Y-92648631D01*
X99490566Y-92424003D01*
X99417098Y-92279815D01*
X99383343Y-92213567D01*
X99244517Y-92022490D01*
X99136819Y-91914792D01*
X99103334Y-91853469D01*
X99100500Y-91827111D01*
X99100500Y-87672889D01*
X99120185Y-87605850D01*
X99136819Y-87585208D01*
X99189601Y-87532426D01*
X99244517Y-87477510D01*
X99383343Y-87286433D01*
X99490568Y-87075992D01*
X99563553Y-86851368D01*
X99568257Y-86821666D01*
X99600500Y-86618097D01*
X99600500Y-86381902D01*
X99563553Y-86148631D01*
X99511035Y-85987000D01*
X99490568Y-85924008D01*
X99490566Y-85924005D01*
X99490566Y-85924003D01*
X99421835Y-85789112D01*
X99383343Y-85713567D01*
X99244517Y-85522490D01*
X99077510Y-85355483D01*
X98886433Y-85216657D01*
X98886429Y-85216655D01*
X98675996Y-85109433D01*
X98451368Y-85036446D01*
X98218097Y-84999500D01*
X98218092Y-84999500D01*
X97981908Y-84999500D01*
X97981903Y-84999500D01*
X97748631Y-85036446D01*
X97524003Y-85109433D01*
X97313566Y-85216657D01*
X97204550Y-85295862D01*
X97122490Y-85355483D01*
X97122488Y-85355485D01*
X97122487Y-85355485D01*
X96955485Y-85522487D01*
X96955485Y-85522488D01*
X96955483Y-85522490D01*
X96914467Y-85578944D01*
X96816657Y-85713566D01*
X96709433Y-85924003D01*
X96636446Y-86148631D01*
X96599500Y-86381902D01*
X96599500Y-86618097D01*
X96636446Y-86851368D01*
X96709433Y-87075996D01*
X96799778Y-87253306D01*
X96816657Y-87286433D01*
X96955483Y-87477510D01*
X96955485Y-87477512D01*
X97063181Y-87585208D01*
X97096666Y-87646531D01*
X97099500Y-87672889D01*
X97099500Y-91827111D01*
X97090855Y-91856551D01*
X97084332Y-91886538D01*
X97080577Y-91891553D01*
X97079815Y-91894150D01*
X97063181Y-91914792D01*
X97014792Y-91963181D01*
X96953469Y-91996666D01*
X96927111Y-91999500D01*
X95465783Y-91999500D01*
X95398744Y-91979815D01*
X95378102Y-91963181D01*
X94236819Y-90821898D01*
X94203334Y-90760575D01*
X94200500Y-90734217D01*
X94200500Y-88983450D01*
X94220185Y-88916411D01*
X94251615Y-88883131D01*
X94278942Y-88863278D01*
X94463278Y-88678942D01*
X94616509Y-88468038D01*
X94734860Y-88235760D01*
X94815419Y-87987828D01*
X94838833Y-87839999D01*
X94856200Y-87730351D01*
X94856200Y-87469648D01*
X94829999Y-87304226D01*
X94815419Y-87212172D01*
X94734860Y-86964240D01*
X94616509Y-86731962D01*
X94463278Y-86521058D01*
X94278942Y-86336722D01*
X94251613Y-86316866D01*
X94208948Y-86261535D01*
X94200500Y-86216549D01*
X94200500Y-85883451D01*
X94220185Y-85816412D01*
X94251615Y-85783132D01*
X94278942Y-85763279D01*
X94463278Y-85578943D01*
X94616509Y-85368039D01*
X94734860Y-85135761D01*
X94815419Y-84887829D01*
X94846255Y-84693137D01*
X94856200Y-84630352D01*
X94856200Y-84369649D01*
X94816107Y-84116519D01*
X94815419Y-84112173D01*
X94734860Y-83864241D01*
X94616509Y-83631963D01*
X94463278Y-83421059D01*
X94278942Y-83236723D01*
X94251613Y-83216867D01*
X94208948Y-83161536D01*
X94200500Y-83116550D01*
X94200500Y-77501458D01*
X94200499Y-77501457D01*
X94188886Y-77443070D01*
X94162051Y-77308164D01*
X94117694Y-77201078D01*
X94106059Y-77172989D01*
X94100677Y-77159994D01*
X95105432Y-77159994D01*
X95117077Y-78920408D01*
X95128720Y-80680824D01*
X95137513Y-80771417D01*
X95184095Y-80907547D01*
X95222811Y-80962319D01*
X95267146Y-81025041D01*
X95379933Y-81114376D01*
X96850460Y-81970247D01*
X96850475Y-81970256D01*
X96891590Y-81994184D01*
X96908359Y-82003943D01*
X96908577Y-82004070D01*
X97233718Y-82193163D01*
X97233679Y-82193229D01*
X97233870Y-82193296D01*
X97233890Y-82193263D01*
X97233943Y-82193294D01*
X97244627Y-82199500D01*
X97532635Y-82366799D01*
X97532682Y-82366826D01*
X97532944Y-82366978D01*
X97796949Y-82520122D01*
X97797168Y-82520249D01*
X97797269Y-82520354D01*
X97797290Y-82520319D01*
X98018107Y-82648181D01*
X98018643Y-82648491D01*
X98187817Y-82746173D01*
X98188952Y-82746827D01*
X98290916Y-82805350D01*
X98298114Y-82809481D01*
X98303027Y-82812263D01*
X98303147Y-82812330D01*
X98303177Y-82812347D01*
X98343705Y-82834982D01*
X98343700Y-82834991D01*
X98343716Y-82834999D01*
X98343764Y-82835015D01*
X98343832Y-82835053D01*
X98478169Y-82886580D01*
X98621581Y-82898173D01*
X98762451Y-82868893D01*
X98766101Y-82867570D01*
X98831011Y-82838735D01*
X98837940Y-82835054D01*
X98890823Y-82806958D01*
X98899929Y-82801998D01*
X98899931Y-82801996D01*
X98899962Y-82801980D01*
X99026230Y-82731512D01*
X99028955Y-82729980D01*
X99213367Y-82625562D01*
X99214781Y-82624758D01*
X99214780Y-82624758D01*
X99214906Y-82624687D01*
X99448973Y-82491156D01*
X99450034Y-82490550D01*
X99574732Y-82419055D01*
X99650229Y-82375769D01*
X99718178Y-82359502D01*
X99784136Y-82382553D01*
X99821462Y-82425263D01*
X99862379Y-82502446D01*
X99899991Y-82554003D01*
X99911323Y-82569537D01*
X99911328Y-82569543D01*
X99911338Y-82569555D01*
X99983573Y-82649172D01*
X99992955Y-82657525D01*
X100091846Y-82726340D01*
X100091852Y-82726344D01*
X100107861Y-82734852D01*
X100107866Y-82734854D01*
X100107868Y-82734855D01*
X100135089Y-82746173D01*
X100195896Y-82771456D01*
X100221231Y-82779282D01*
X100276971Y-82793086D01*
X100315102Y-82800259D01*
X100348140Y-82805350D01*
X100402535Y-82811898D01*
X100422500Y-82813900D01*
X100496631Y-82819851D01*
X100509168Y-82820701D01*
X100606503Y-82826084D01*
X100614689Y-82826470D01*
X100738697Y-82831313D01*
X100738826Y-82831317D01*
X100738843Y-82831318D01*
X100739614Y-82831343D01*
X100744224Y-82831499D01*
X100891947Y-82835650D01*
X100898337Y-82835830D01*
X100898346Y-82835830D01*
X100898374Y-82835831D01*
X100902214Y-82835924D01*
X101089977Y-82839773D01*
X101092706Y-82839821D01*
X101092761Y-82839822D01*
X101317671Y-82843218D01*
X101317670Y-82843218D01*
X101319415Y-82843241D01*
X101418948Y-82844353D01*
X101584925Y-82846210D01*
X101585717Y-82846218D01*
X101586252Y-82846224D01*
X101586253Y-82846224D01*
X101895907Y-82848797D01*
X101895906Y-82848797D01*
X101896855Y-82848803D01*
X101896856Y-82848803D01*
X102235935Y-82850894D01*
X102253781Y-82851005D01*
X102254594Y-82851010D01*
X102662459Y-82852871D01*
X102662842Y-82852872D01*
X102663070Y-82852939D01*
X102663071Y-82852873D01*
X103125248Y-82854421D01*
X103125258Y-82854424D01*
X103125259Y-82854422D01*
X103125476Y-82854422D01*
X103125829Y-82854424D01*
X103646022Y-82855690D01*
X103646173Y-82855690D01*
X103646375Y-82855690D01*
X104227934Y-82856699D01*
X104228199Y-82856700D01*
X104874596Y-82857483D01*
X104874671Y-82857483D01*
X104874794Y-82857483D01*
X105589497Y-82858068D01*
X105589547Y-82858068D01*
X105589645Y-82858068D01*
X106376124Y-82858482D01*
X106376156Y-82858482D01*
X106376230Y-82858482D01*
X107237953Y-82858755D01*
X107237972Y-82858755D01*
X107238027Y-82858755D01*
X108178466Y-82858915D01*
X108178476Y-82858915D01*
X108178515Y-82858915D01*
X109201137Y-82858990D01*
X109201141Y-82858990D01*
X109201166Y-82858990D01*
X110309442Y-82859008D01*
X110309443Y-82859008D01*
X110309461Y-82859008D01*
X110309462Y-82859008D01*
X111248264Y-82858985D01*
X111248301Y-82858985D01*
X112287607Y-82858884D01*
X112287667Y-82858884D01*
X113244185Y-82858678D01*
X113244270Y-82858678D01*
X114121445Y-82858341D01*
X114121562Y-82858341D01*
X114751950Y-82857953D01*
X114819001Y-82877596D01*
X114864789Y-82930372D01*
X114874775Y-82999524D01*
X114845789Y-83063098D01*
X114839707Y-83069634D01*
X114580887Y-83328454D01*
X114504222Y-83443192D01*
X114451421Y-83570667D01*
X114451418Y-83570679D01*
X114432023Y-83668187D01*
X114432023Y-83668190D01*
X114424500Y-83706006D01*
X114424500Y-84320500D01*
X114424109Y-84321831D01*
X114424471Y-84323170D01*
X114414292Y-84355260D01*
X114404815Y-84387539D01*
X114403767Y-84388446D01*
X114403348Y-84389770D01*
X114377424Y-84411273D01*
X114352011Y-84433294D01*
X114350292Y-84433778D01*
X114349571Y-84434377D01*
X114344351Y-84435453D01*
X114315500Y-84443589D01*
X114308024Y-84444500D01*
X114234306Y-84444500D01*
X114197431Y-84447402D01*
X114134728Y-84465618D01*
X114124763Y-84466833D01*
X114099795Y-84462692D01*
X114074487Y-84462620D01*
X114064883Y-84456903D01*
X114055835Y-84455403D01*
X114043285Y-84444046D01*
X114022082Y-84431425D01*
X113046546Y-83455888D01*
X113046545Y-83455887D01*
X112931807Y-83379222D01*
X112804332Y-83326421D01*
X112804322Y-83326418D01*
X112668996Y-83299500D01*
X112668994Y-83299500D01*
X112668993Y-83299500D01*
X103231007Y-83299500D01*
X103231003Y-83299500D01*
X103122590Y-83321065D01*
X103122589Y-83321065D01*
X103095671Y-83326420D01*
X103047093Y-83346542D01*
X103047092Y-83346542D01*
X102968193Y-83379222D01*
X102968191Y-83379223D01*
X102872461Y-83443189D01*
X102872460Y-83443190D01*
X102853454Y-83455888D01*
X102853453Y-83455889D01*
X102055890Y-84253451D01*
X102055884Y-84253458D01*
X102012016Y-84319113D01*
X102012016Y-84319114D01*
X102010201Y-84321831D01*
X101979225Y-84368188D01*
X101979221Y-84368195D01*
X101926421Y-84495667D01*
X101926418Y-84495677D01*
X101899500Y-84631004D01*
X101899500Y-85096883D01*
X101879815Y-85163922D01*
X101831799Y-85207366D01*
X101813569Y-85216655D01*
X101718028Y-85286070D01*
X101622490Y-85355483D01*
X101622488Y-85355485D01*
X101622487Y-85355485D01*
X101455485Y-85522487D01*
X101455485Y-85522488D01*
X101455483Y-85522490D01*
X101414467Y-85578944D01*
X101316657Y-85713566D01*
X101209433Y-85924003D01*
X101136446Y-86148631D01*
X101099500Y-86381902D01*
X101099500Y-86618097D01*
X101136446Y-86851368D01*
X101209433Y-87075996D01*
X101299778Y-87253306D01*
X101316657Y-87286433D01*
X101455483Y-87477510D01*
X101455485Y-87477512D01*
X101563181Y-87585208D01*
X101596666Y-87646531D01*
X101599500Y-87672889D01*
X101599500Y-91827111D01*
X101579815Y-91894150D01*
X101563181Y-91914792D01*
X101455485Y-92022487D01*
X101455485Y-92022488D01*
X101455483Y-92022490D01*
X101449836Y-92030263D01*
X101316657Y-92213566D01*
X101209433Y-92424003D01*
X101136446Y-92648631D01*
X101099500Y-92881902D01*
X101099500Y-93118097D01*
X101136446Y-93351368D01*
X101209433Y-93575996D01*
X101307368Y-93768203D01*
X101316657Y-93786433D01*
X101455483Y-93977510D01*
X101622490Y-94144517D01*
X101813567Y-94283343D01*
X101912991Y-94334002D01*
X102024003Y-94390566D01*
X102024005Y-94390566D01*
X102024008Y-94390568D01*
X102144412Y-94429689D01*
X102248631Y-94463553D01*
X102481903Y-94500500D01*
X102481908Y-94500500D01*
X102718097Y-94500500D01*
X102951368Y-94463553D01*
X102951374Y-94463551D01*
X103175992Y-94390568D01*
X103386433Y-94283343D01*
X103577510Y-94144517D01*
X103744517Y-93977510D01*
X103883343Y-93786433D01*
X103892632Y-93768203D01*
X103940608Y-93717408D01*
X104003116Y-93700500D01*
X106068996Y-93700500D01*
X106160040Y-93682389D01*
X106204328Y-93673580D01*
X106276540Y-93643669D01*
X106331807Y-93620777D01*
X106331808Y-93620776D01*
X106331811Y-93620775D01*
X106446543Y-93544114D01*
X106948340Y-93042315D01*
X107009660Y-93008833D01*
X107079351Y-93013817D01*
X107135285Y-93055688D01*
X107150579Y-93082546D01*
X107190604Y-93179175D01*
X107190609Y-93179185D01*
X107278210Y-93310288D01*
X107278213Y-93310292D01*
X107389707Y-93421786D01*
X107389711Y-93421789D01*
X107520814Y-93509390D01*
X107520827Y-93509397D01*
X107666498Y-93569735D01*
X107666503Y-93569737D01*
X107821153Y-93600499D01*
X107821156Y-93600500D01*
X107821158Y-93600500D01*
X107978844Y-93600500D01*
X107978845Y-93600499D01*
X108133497Y-93569737D01*
X108270022Y-93513187D01*
X108279172Y-93509397D01*
X108279172Y-93509396D01*
X108279179Y-93509394D01*
X108336044Y-93471397D01*
X108402721Y-93450520D01*
X108404935Y-93450500D01*
X109804092Y-93450500D01*
X109871131Y-93470185D01*
X109909636Y-93514271D01*
X109911395Y-93513187D01*
X109915185Y-93519332D01*
X109915186Y-93519334D01*
X110007288Y-93668656D01*
X110131344Y-93792712D01*
X110280666Y-93884814D01*
X110447203Y-93939999D01*
X110549991Y-93950500D01*
X111108480Y-93950499D01*
X111175519Y-93970183D01*
X111196161Y-93986818D01*
X111604453Y-94395111D01*
X111604457Y-94395114D01*
X111706884Y-94463553D01*
X111719189Y-94471775D01*
X111719191Y-94471776D01*
X111719193Y-94471777D01*
X111846667Y-94524578D01*
X111846672Y-94524580D01*
X111846676Y-94524580D01*
X111846677Y-94524581D01*
X111982004Y-94551500D01*
X111982007Y-94551500D01*
X115817996Y-94551500D01*
X115909040Y-94533389D01*
X115953328Y-94524580D01*
X116017069Y-94498177D01*
X116080807Y-94471777D01*
X116080808Y-94471776D01*
X116080811Y-94471775D01*
X116195543Y-94395114D01*
X117047272Y-93543385D01*
X117108595Y-93509900D01*
X117178286Y-93514884D01*
X117234220Y-93556756D01*
X117258637Y-93622220D01*
X117258311Y-93643669D01*
X117250000Y-93725013D01*
X117250000Y-94600000D01*
X118200000Y-94600000D01*
X118700000Y-94600000D01*
X119649999Y-94600000D01*
X119649999Y-93725028D01*
X119649998Y-93725013D01*
X119639505Y-93622303D01*
X119639505Y-93622301D01*
X119584359Y-93455880D01*
X119584354Y-93455869D01*
X119492319Y-93306659D01*
X119492316Y-93306655D01*
X119368344Y-93182683D01*
X119368340Y-93182680D01*
X119219130Y-93090645D01*
X119219119Y-93090640D01*
X119052697Y-93035494D01*
X118949986Y-93025000D01*
X118700000Y-93025000D01*
X118700000Y-94600000D01*
X118200000Y-94600000D01*
X118200000Y-93025000D01*
X117950029Y-93025000D01*
X117950010Y-93025001D01*
X117868667Y-93033311D01*
X117799974Y-93020541D01*
X117749090Y-92972660D01*
X117732170Y-92904870D01*
X117754586Y-92838694D01*
X117768385Y-92822272D01*
X120478838Y-90111819D01*
X120540161Y-90078334D01*
X120566519Y-90075500D01*
X121031006Y-90075500D01*
X121031007Y-90075500D01*
X121306007Y-90075500D01*
X121443993Y-90075500D01*
X121631006Y-90075500D01*
X121631007Y-90075500D01*
X122431792Y-90075500D01*
X122462000Y-90084370D01*
X122492681Y-90091479D01*
X122496064Y-90094372D01*
X122498831Y-90095185D01*
X122520648Y-90113009D01*
X122527837Y-90120394D01*
X122529660Y-90123350D01*
X122569255Y-90162945D01*
X122569804Y-90163509D01*
X122585779Y-90193728D01*
X122602114Y-90223642D01*
X122602052Y-90224508D01*
X122602459Y-90225278D01*
X122599563Y-90259302D01*
X122597130Y-90293334D01*
X122596597Y-90294162D01*
X122596535Y-90294896D01*
X122594059Y-90298111D01*
X122568629Y-90337681D01*
X122529661Y-90376648D01*
X122439093Y-90523481D01*
X122439092Y-90523484D01*
X122384826Y-90687247D01*
X122384826Y-90687248D01*
X122384825Y-90687248D01*
X122374500Y-90788315D01*
X122374500Y-91461669D01*
X122374501Y-91461687D01*
X122384825Y-91562752D01*
X122402201Y-91615187D01*
X122439092Y-91726516D01*
X122519298Y-91856551D01*
X122529661Y-91873351D01*
X122613181Y-91956871D01*
X122646666Y-92018194D01*
X122649500Y-92044552D01*
X122649500Y-92944698D01*
X122629815Y-93011737D01*
X122577011Y-93057492D01*
X122564505Y-93062404D01*
X122480665Y-93090186D01*
X122480662Y-93090187D01*
X122331342Y-93182289D01*
X122207289Y-93306342D01*
X122115187Y-93455662D01*
X122115185Y-93455667D01*
X122097383Y-93509390D01*
X122060001Y-93622202D01*
X122060001Y-93622203D01*
X122060000Y-93622203D01*
X122049500Y-93724982D01*
X122049500Y-95975017D01*
X122060000Y-96077796D01*
X122060001Y-96077798D01*
X122115186Y-96244335D01*
X122207288Y-96393656D01*
X122331344Y-96517712D01*
X122480665Y-96609814D01*
X122647202Y-96664999D01*
X122749990Y-96675500D01*
X122749995Y-96675500D01*
X123750005Y-96675500D01*
X123750010Y-96675500D01*
X123852798Y-96664999D01*
X124019335Y-96609814D01*
X124168656Y-96517712D01*
X124292712Y-96393656D01*
X124384814Y-96244335D01*
X124439999Y-96077798D01*
X124450500Y-95975010D01*
X124450500Y-93724990D01*
X124439999Y-93622202D01*
X124384814Y-93455665D01*
X124292712Y-93306344D01*
X124168656Y-93182288D01*
X124168655Y-93182287D01*
X124109402Y-93145739D01*
X124062678Y-93093791D01*
X124050500Y-93040201D01*
X124050500Y-92044552D01*
X124070185Y-91977513D01*
X124086819Y-91956871D01*
X124119467Y-91924223D01*
X124170340Y-91873350D01*
X124260908Y-91726516D01*
X124315174Y-91562753D01*
X124325500Y-91461677D01*
X124325499Y-90788324D01*
X124322664Y-90760575D01*
X124315174Y-90687247D01*
X124260908Y-90523484D01*
X124170340Y-90376650D01*
X124131371Y-90337681D01*
X124097886Y-90276358D01*
X124102870Y-90206666D01*
X124131371Y-90162319D01*
X124170340Y-90123350D01*
X124260908Y-89976516D01*
X124315174Y-89812753D01*
X124325500Y-89711677D01*
X124325499Y-89038324D01*
X124323270Y-89016508D01*
X124315174Y-88937247D01*
X124309548Y-88920269D01*
X124260908Y-88773484D01*
X124170340Y-88626650D01*
X124048350Y-88504660D01*
X123953930Y-88446421D01*
X123901518Y-88414093D01*
X123901513Y-88414091D01*
X123829297Y-88390161D01*
X123737753Y-88359826D01*
X123737751Y-88359825D01*
X123636678Y-88349500D01*
X123063330Y-88349500D01*
X123063312Y-88349501D01*
X122962247Y-88359825D01*
X122798484Y-88414092D01*
X122798481Y-88414093D01*
X122651648Y-88504661D01*
X122529655Y-88626654D01*
X122529055Y-88627414D01*
X122528510Y-88627799D01*
X122526259Y-88630050D01*
X122525505Y-88631703D01*
X122498354Y-88649151D01*
X122472032Y-88667789D01*
X122468414Y-88668392D01*
X122466727Y-88669477D01*
X122431792Y-88674500D01*
X122199500Y-88674500D01*
X122132461Y-88654815D01*
X122086706Y-88602011D01*
X122075500Y-88550500D01*
X122075500Y-88006004D01*
X122075499Y-88006002D01*
X122055941Y-87907679D01*
X122048580Y-87870672D01*
X122041671Y-87853993D01*
X122013016Y-87784814D01*
X121995778Y-87743196D01*
X121995777Y-87743195D01*
X121995775Y-87743189D01*
X121919114Y-87628457D01*
X121919112Y-87628454D01*
X121146545Y-86855887D01*
X121031807Y-86779222D01*
X120904332Y-86726421D01*
X120904322Y-86726418D01*
X120768996Y-86699500D01*
X120768994Y-86699500D01*
X120768993Y-86699500D01*
X119749601Y-86699500D01*
X119682562Y-86679815D01*
X119636807Y-86627011D01*
X119626863Y-86557853D01*
X119644063Y-86510403D01*
X119684809Y-86444343D01*
X119684808Y-86444343D01*
X119684814Y-86444335D01*
X119739999Y-86277798D01*
X119750500Y-86175010D01*
X119750500Y-83924990D01*
X119739999Y-83822202D01*
X119720547Y-83763502D01*
X119718146Y-83693676D01*
X119753878Y-83633634D01*
X119816398Y-83602441D01*
X119838254Y-83600500D01*
X121268996Y-83600500D01*
X121360040Y-83582389D01*
X121404328Y-83573580D01*
X121468069Y-83547177D01*
X121531807Y-83520777D01*
X121531808Y-83520776D01*
X121531811Y-83520775D01*
X121646543Y-83444114D01*
X122385804Y-82704852D01*
X122447125Y-82671369D01*
X122516816Y-82676353D01*
X122561164Y-82704854D01*
X122651650Y-82795340D01*
X122798484Y-82885908D01*
X122962247Y-82940174D01*
X123063323Y-82950500D01*
X123636676Y-82950499D01*
X123636684Y-82950498D01*
X123636687Y-82950498D01*
X123692030Y-82944844D01*
X123737753Y-82940174D01*
X123901516Y-82885908D01*
X124048350Y-82795340D01*
X124170340Y-82673350D01*
X124170343Y-82673344D01*
X124174821Y-82667683D01*
X124175951Y-82668577D01*
X124221903Y-82627241D01*
X124290865Y-82616016D01*
X124354949Y-82643856D01*
X124393808Y-82701922D01*
X124399500Y-82739060D01*
X124399500Y-83240818D01*
X124379815Y-83307857D01*
X124327011Y-83353612D01*
X124257853Y-83363556D01*
X124210404Y-83346357D01*
X124119341Y-83290189D01*
X124119336Y-83290187D01*
X124119335Y-83290186D01*
X123952798Y-83235001D01*
X123952796Y-83235000D01*
X123850017Y-83224500D01*
X123850010Y-83224500D01*
X122849990Y-83224500D01*
X122849982Y-83224500D01*
X122747203Y-83235000D01*
X122747202Y-83235001D01*
X122664669Y-83262349D01*
X122580667Y-83290185D01*
X122580662Y-83290187D01*
X122431342Y-83382289D01*
X122307289Y-83506342D01*
X122215187Y-83655662D01*
X122215185Y-83655667D01*
X122198504Y-83706007D01*
X122160001Y-83822202D01*
X122160001Y-83822203D01*
X122160000Y-83822203D01*
X122149500Y-83924982D01*
X122149500Y-86175017D01*
X122160000Y-86277796D01*
X122194498Y-86381902D01*
X122215186Y-86444335D01*
X122307288Y-86593656D01*
X122431344Y-86717712D01*
X122580665Y-86809814D01*
X122747202Y-86864999D01*
X122849990Y-86875500D01*
X122849995Y-86875500D01*
X123850005Y-86875500D01*
X123850010Y-86875500D01*
X123952798Y-86864999D01*
X124119335Y-86809814D01*
X124268656Y-86717712D01*
X124392712Y-86593656D01*
X124484814Y-86444335D01*
X124539999Y-86277798D01*
X124550500Y-86175010D01*
X124550500Y-85874500D01*
X124570185Y-85807461D01*
X124622989Y-85761706D01*
X124674500Y-85750500D01*
X124718996Y-85750500D01*
X124810040Y-85732389D01*
X124854328Y-85723580D01*
X124918069Y-85697177D01*
X124981807Y-85670777D01*
X124981808Y-85670776D01*
X124981811Y-85670775D01*
X125096543Y-85594114D01*
X125644114Y-85046543D01*
X125720775Y-84931811D01*
X125773580Y-84804328D01*
X125788255Y-84730555D01*
X125800500Y-84668996D01*
X125800500Y-80731004D01*
X125800499Y-80731002D01*
X125773583Y-80595682D01*
X125773579Y-80595670D01*
X125772111Y-80592126D01*
X125772110Y-80592123D01*
X125738788Y-80511676D01*
X125720776Y-80468191D01*
X125720771Y-80468182D01*
X125644115Y-80353459D01*
X125622178Y-80331522D01*
X125546542Y-80255886D01*
X125468756Y-80178100D01*
X124921546Y-79630888D01*
X124921545Y-79630887D01*
X124806807Y-79554222D01*
X124679332Y-79501421D01*
X124679322Y-79501418D01*
X124543996Y-79474500D01*
X124543994Y-79474500D01*
X124543993Y-79474500D01*
X124268208Y-79474500D01*
X124201169Y-79454815D01*
X124175584Y-79431619D01*
X124175447Y-79431757D01*
X124172647Y-79428957D01*
X124170945Y-79427414D01*
X124170344Y-79426654D01*
X124048351Y-79304661D01*
X124048350Y-79304660D01*
X123901516Y-79214092D01*
X123737753Y-79159826D01*
X123737751Y-79159825D01*
X123636678Y-79149500D01*
X123063330Y-79149500D01*
X123063312Y-79149501D01*
X122962247Y-79159825D01*
X122798484Y-79214092D01*
X122798481Y-79214093D01*
X122651648Y-79304661D01*
X122529661Y-79426648D01*
X122439093Y-79573481D01*
X122439091Y-79573486D01*
X122437719Y-79577626D01*
X122384826Y-79737247D01*
X122384826Y-79737248D01*
X122384825Y-79737248D01*
X122374500Y-79838315D01*
X122374500Y-80511669D01*
X122374501Y-80511675D01*
X122384825Y-80612752D01*
X122407384Y-80680829D01*
X122439092Y-80776516D01*
X122528428Y-80921353D01*
X122529661Y-80923351D01*
X122568629Y-80962319D01*
X122572564Y-80969525D01*
X122579204Y-80974358D01*
X122589064Y-80999743D01*
X122602114Y-81023642D01*
X122601528Y-81031831D01*
X122604502Y-81039487D01*
X122599072Y-81066174D01*
X122597130Y-81093334D01*
X122591849Y-81101673D01*
X122590572Y-81107954D01*
X122571593Y-81133665D01*
X122569804Y-81136491D01*
X122569255Y-81137054D01*
X122529660Y-81176650D01*
X122527837Y-81179605D01*
X122520648Y-81186991D01*
X122495542Y-81201142D01*
X122472032Y-81217789D01*
X122463480Y-81219215D01*
X122459782Y-81221300D01*
X122453250Y-81220921D01*
X122431792Y-81224500D01*
X122106003Y-81224500D01*
X121997590Y-81246065D01*
X121997589Y-81246065D01*
X121970671Y-81251420D01*
X121843190Y-81304224D01*
X121728454Y-81380887D01*
X121728453Y-81380888D01*
X121043788Y-82065554D01*
X120982465Y-82099039D01*
X120912773Y-82094055D01*
X120856840Y-82052183D01*
X120843595Y-82027568D01*
X120843549Y-82027593D01*
X120839515Y-82019984D01*
X120839399Y-82019768D01*
X120839395Y-82019757D01*
X120772003Y-81892635D01*
X120772002Y-81892633D01*
X120723063Y-81825549D01*
X120723059Y-81825544D01*
X120650810Y-81745913D01*
X120650802Y-81745905D01*
X120641429Y-81737561D01*
X120542539Y-81668746D01*
X120542537Y-81668745D01*
X120542534Y-81668743D01*
X120526525Y-81660235D01*
X120526522Y-81660233D01*
X120526515Y-81660230D01*
X120438512Y-81623637D01*
X120438498Y-81623632D01*
X120425935Y-81619751D01*
X120367694Y-81581153D01*
X120339566Y-81517195D01*
X120349770Y-81449712D01*
X120398575Y-81342985D01*
X120427770Y-81261206D01*
X120476494Y-81075737D01*
X120481647Y-81054218D01*
X120487826Y-81025666D01*
X120494447Y-80988359D01*
X120512756Y-80856675D01*
X120514595Y-80732281D01*
X120502508Y-80621401D01*
X120502506Y-80621386D01*
X120497661Y-80587583D01*
X120497657Y-80587570D01*
X120487342Y-80556339D01*
X120485007Y-80486509D01*
X120506389Y-80442381D01*
X120514210Y-80432099D01*
X120521559Y-80418880D01*
X120559831Y-80331522D01*
X120588222Y-80245400D01*
X120597713Y-80213011D01*
X120634313Y-80070660D01*
X120634321Y-80070627D01*
X120638388Y-80053590D01*
X120677142Y-79877762D01*
X120677144Y-79877755D01*
X120678685Y-79870511D01*
X120690901Y-79810949D01*
X120690903Y-79810941D01*
X120690945Y-79810949D01*
X120690964Y-79810641D01*
X120728192Y-79631431D01*
X120758982Y-79486370D01*
X120759145Y-79485623D01*
X120777256Y-79403949D01*
X120777631Y-79402318D01*
X120799236Y-79311471D01*
X120800392Y-79306612D01*
X120800764Y-79304661D01*
X120808964Y-79261589D01*
X120808964Y-79117709D01*
X120768428Y-78979657D01*
X120709414Y-78887830D01*
X120690641Y-78858618D01*
X120690637Y-78858614D01*
X120581908Y-78764399D01*
X120581906Y-78764397D01*
X120581903Y-78764395D01*
X120581899Y-78764393D01*
X120451028Y-78704625D01*
X120451023Y-78704624D01*
X120308609Y-78684149D01*
X119444746Y-78684149D01*
X119444093Y-78684150D01*
X119442767Y-78684152D01*
X119442766Y-78684151D01*
X119146247Y-78685227D01*
X119139564Y-78685297D01*
X118899956Y-78689335D01*
X118885706Y-78689777D01*
X118885674Y-78689778D01*
X118885656Y-78689779D01*
X118754283Y-78695713D01*
X118711513Y-78697646D01*
X118682080Y-78699838D01*
X118561338Y-78712392D01*
X118561305Y-78712396D01*
X118501436Y-78722285D01*
X118501414Y-78722289D01*
X118421869Y-78740394D01*
X118421855Y-78740398D01*
X118310675Y-78779473D01*
X118240901Y-78783131D01*
X118211074Y-78769971D01*
X118210640Y-78770860D01*
X118202675Y-78766962D01*
X118065761Y-78722766D01*
X118007554Y-78712807D01*
X118007550Y-78712806D01*
X117955395Y-78706650D01*
X117955364Y-78706647D01*
X117823990Y-78698030D01*
X117808817Y-78697264D01*
X117617652Y-78690489D01*
X117609052Y-78690256D01*
X117371569Y-78685827D01*
X117364956Y-78685746D01*
X117102823Y-78684208D01*
X117094195Y-78684158D01*
X117094185Y-78684157D01*
X117094020Y-78684157D01*
X117094020Y-78684156D01*
X117091378Y-78684149D01*
X117091229Y-78684149D01*
X116200704Y-78684149D01*
X116181188Y-78685746D01*
X116118522Y-78690873D01*
X115981326Y-78734233D01*
X115981323Y-78734234D01*
X115925430Y-78771796D01*
X115858809Y-78792851D01*
X115791380Y-78774545D01*
X115790246Y-78773840D01*
X115734561Y-78738814D01*
X115596132Y-78699626D01*
X115554673Y-78694076D01*
X115554668Y-78694075D01*
X115554664Y-78694075D01*
X115537498Y-78692613D01*
X115506202Y-78689948D01*
X115398866Y-78685995D01*
X115388398Y-78685750D01*
X115385337Y-78685679D01*
X115307651Y-78684901D01*
X115234798Y-78684172D01*
X115229980Y-78684149D01*
X115229879Y-78684149D01*
X114928881Y-78684149D01*
X114839941Y-78694050D01*
X114817705Y-78696526D01*
X114817704Y-78696526D01*
X114754272Y-78720731D01*
X114684620Y-78726239D01*
X114676618Y-78724282D01*
X114654508Y-78718088D01*
X114654509Y-78718088D01*
X114582270Y-78708618D01*
X114545234Y-78705145D01*
X114518729Y-78703641D01*
X114401574Y-78696993D01*
X114401561Y-78696992D01*
X114401536Y-78696991D01*
X114388886Y-78696432D01*
X114186811Y-78690052D01*
X114179276Y-78689869D01*
X113931457Y-78685706D01*
X113926289Y-78685649D01*
X113925665Y-78685643D01*
X113925647Y-78685642D01*
X113925564Y-78685642D01*
X113645316Y-78684156D01*
X113645154Y-78684156D01*
X113642460Y-78684149D01*
X113642295Y-78684149D01*
X113642294Y-78684149D01*
X113502170Y-78684152D01*
X113502082Y-78684153D01*
X113501354Y-78684154D01*
X113500383Y-78684156D01*
X113500382Y-78684155D01*
X113206690Y-78685089D01*
X113198063Y-78685188D01*
X112977608Y-78689600D01*
X112954015Y-78690625D01*
X112950308Y-78690873D01*
X112795591Y-78701222D01*
X112795585Y-78701222D01*
X112795581Y-78701223D01*
X112795559Y-78701225D01*
X112739264Y-78708183D01*
X112739246Y-78708186D01*
X112631685Y-78727669D01*
X112511996Y-78765217D01*
X112442138Y-78766501D01*
X112438278Y-78765377D01*
X112332307Y-78732638D01*
X112234866Y-78717228D01*
X112212991Y-78714659D01*
X112194768Y-78712519D01*
X112152892Y-78709289D01*
X112035656Y-78700248D01*
X112018962Y-78699238D01*
X111813892Y-78690217D01*
X111803868Y-78689876D01*
X111568468Y-78684210D01*
X111561530Y-78684097D01*
X111494821Y-78663319D01*
X111449936Y-78609774D01*
X111439867Y-78568872D01*
X111432065Y-78458687D01*
X111432065Y-78458686D01*
X111388095Y-78340544D01*
X111381879Y-78323843D01*
X111341434Y-78249648D01*
X111326631Y-78181369D01*
X111351094Y-78115922D01*
X111365659Y-78099691D01*
X111441505Y-78028834D01*
X111483480Y-77984584D01*
X111559402Y-77862366D01*
X111593933Y-77783578D01*
X111612960Y-77732958D01*
X111659765Y-77584822D01*
X111666382Y-77562034D01*
X111717623Y-77368703D01*
X111721828Y-77351644D01*
X111771280Y-77134910D01*
X111772866Y-77127717D01*
X111816863Y-76921045D01*
X111856858Y-76738175D01*
X111856988Y-76737595D01*
X111886664Y-76606957D01*
X111887286Y-76604349D01*
X111903789Y-76538380D01*
X111903791Y-76538374D01*
X111903795Y-76538352D01*
X111903799Y-76538336D01*
X111913654Y-76488345D01*
X111913658Y-76488325D01*
X111916685Y-76467474D01*
X111921929Y-76394476D01*
X111921927Y-76394464D01*
X111921853Y-76392382D01*
X111922168Y-76391143D01*
X111922408Y-76387813D01*
X111923006Y-76387856D01*
X111939113Y-76324678D01*
X111990237Y-76277053D01*
X112045773Y-76263921D01*
X120295810Y-76263921D01*
X120295812Y-76263921D01*
X120407414Y-76251448D01*
X120541795Y-76200035D01*
X120656248Y-76112845D01*
X120741500Y-75996942D01*
X120764753Y-75953492D01*
X120780950Y-75923227D01*
X120787439Y-75912452D01*
X120789619Y-75909218D01*
X120794970Y-75901106D01*
X120808715Y-75879829D01*
X120846971Y-75808727D01*
X120855549Y-75789187D01*
X120877285Y-75729845D01*
X120898184Y-75587491D01*
X120898237Y-75569613D01*
X120897419Y-75539335D01*
X120868868Y-75398316D01*
X120801744Y-75271053D01*
X120789914Y-75254765D01*
X120756441Y-75215578D01*
X120738259Y-75194292D01*
X120738257Y-75194290D01*
X120721635Y-75181854D01*
X120633839Y-75116166D01*
X120623050Y-75108094D01*
X120623038Y-75108087D01*
X120595991Y-75093327D01*
X120595989Y-75093326D01*
X120495491Y-75051807D01*
X120495475Y-75051801D01*
X120449829Y-75038477D01*
X120449802Y-75038470D01*
X120396230Y-75025953D01*
X120396221Y-75025951D01*
X120396216Y-75025950D01*
X120396205Y-75025948D01*
X120328611Y-75013991D01*
X120298171Y-75009556D01*
X120205267Y-74998893D01*
X120205261Y-74998892D01*
X120205240Y-74998890D01*
X120186742Y-74997111D01*
X120065125Y-74987665D01*
X120064689Y-74987636D01*
X120053303Y-74986886D01*
X120005377Y-74984297D01*
X119899595Y-74978584D01*
X119899557Y-74978582D01*
X119899497Y-74978579D01*
X119891734Y-74978220D01*
X119813659Y-74975236D01*
X119702598Y-74970991D01*
X119700065Y-74970908D01*
X119697142Y-74970812D01*
X119579737Y-74967603D01*
X119469310Y-74964586D01*
X119469264Y-74964584D01*
X119469121Y-74964581D01*
X119465513Y-74964495D01*
X119195582Y-74959195D01*
X119192877Y-74959150D01*
X119005481Y-74956507D01*
X118877370Y-74954701D01*
X118877356Y-74954700D01*
X118877226Y-74954699D01*
X118877226Y-74954698D01*
X118875439Y-74954677D01*
X118875439Y-74954678D01*
X118511186Y-74951010D01*
X118510520Y-74951004D01*
X118509653Y-74950997D01*
X118509599Y-74950996D01*
X118237711Y-74949062D01*
X118093286Y-74948035D01*
X118093240Y-74948034D01*
X118092120Y-74948027D01*
X117620403Y-74945696D01*
X117619497Y-74945694D01*
X117619493Y-74945694D01*
X117088669Y-74943922D01*
X117088622Y-74943908D01*
X117088528Y-74943921D01*
X117088338Y-74943920D01*
X117088018Y-74943919D01*
X116495033Y-74942632D01*
X116495032Y-74942631D01*
X116494586Y-74942631D01*
X116494560Y-74942630D01*
X115902755Y-74941843D01*
X115835908Y-74941754D01*
X115835826Y-74941754D01*
X115835610Y-74941754D01*
X115107959Y-74941214D01*
X115107913Y-74941214D01*
X115107759Y-74941214D01*
X114307777Y-74940937D01*
X114307755Y-74940937D01*
X114307652Y-74940937D01*
X113431980Y-74940850D01*
X113431915Y-74940850D01*
X112477195Y-74940879D01*
X112477175Y-74940879D01*
X111440049Y-74940951D01*
X111440044Y-74940951D01*
X110317190Y-74940989D01*
X110317183Y-74940989D01*
X109558858Y-74940971D01*
X109558853Y-74940971D01*
X108489627Y-74940901D01*
X108488796Y-74940901D01*
X108488792Y-74940901D01*
X108488789Y-74940901D01*
X107507357Y-74940850D01*
X107507308Y-74940850D01*
X106606028Y-74940891D01*
X106605925Y-74940891D01*
X105781439Y-74941097D01*
X105781265Y-74941097D01*
X105030213Y-74941543D01*
X105029950Y-74941543D01*
X104979996Y-74941598D01*
X104349003Y-74942300D01*
X104348975Y-74942301D01*
X104348858Y-74942301D01*
X104348531Y-74942302D01*
X104348500Y-74942302D01*
X103734339Y-74943447D01*
X103734316Y-74943447D01*
X103733720Y-74943448D01*
X103733719Y-74943447D01*
X103182932Y-74945052D01*
X103182914Y-74945053D01*
X103182876Y-74945053D01*
X103182198Y-74945055D01*
X103182184Y-74945056D01*
X103053001Y-74945618D01*
X102691248Y-74947195D01*
X102691247Y-74947194D01*
X102690376Y-74947199D01*
X102690297Y-74947200D01*
X102256047Y-74949946D01*
X102255979Y-74949946D01*
X102254873Y-74949954D01*
X102254695Y-74949956D01*
X102254624Y-74949956D01*
X102254578Y-74949957D01*
X102254577Y-74949956D01*
X101873614Y-74953385D01*
X101873613Y-74953384D01*
X101872001Y-74953402D01*
X101871894Y-74953404D01*
X101706375Y-74955495D01*
X101540749Y-74957587D01*
X101538494Y-74957620D01*
X101538495Y-74957621D01*
X101253787Y-74962636D01*
X101250473Y-74962706D01*
X101009144Y-74968621D01*
X101005587Y-74968725D01*
X101004239Y-74968765D01*
X100875957Y-74973152D01*
X100802740Y-74975656D01*
X100795909Y-74975938D01*
X100630830Y-74983884D01*
X100620562Y-74984484D01*
X100488719Y-74993550D01*
X100472891Y-74994890D01*
X100370836Y-75005154D01*
X100345196Y-75008397D01*
X100269627Y-75019924D01*
X100225519Y-75028677D01*
X100225514Y-75028678D01*
X100225505Y-75028680D01*
X100208392Y-75032875D01*
X100172989Y-75041553D01*
X100091495Y-75069064D01*
X100091491Y-75069066D01*
X100058681Y-75083355D01*
X100027741Y-75098097D01*
X99910757Y-75181854D01*
X99910751Y-75181859D01*
X99894292Y-75197634D01*
X99880909Y-75210947D01*
X99880902Y-75210956D01*
X99796547Y-75327507D01*
X99786673Y-75355343D01*
X99745708Y-75411944D01*
X99680646Y-75437412D01*
X99612142Y-75423661D01*
X99608364Y-75421591D01*
X99406535Y-75306448D01*
X99406535Y-75306449D01*
X99406451Y-75306401D01*
X99405856Y-75306063D01*
X99404530Y-75305310D01*
X99187463Y-75182816D01*
X99184596Y-75181212D01*
X99014638Y-75086837D01*
X99008571Y-75083522D01*
X99008554Y-75083513D01*
X99008514Y-75083491D01*
X98895470Y-75022738D01*
X98869852Y-75009893D01*
X98859690Y-75005153D01*
X98823773Y-74988399D01*
X98823740Y-74988385D01*
X98742795Y-74958742D01*
X98599999Y-74941107D01*
X98458019Y-74964418D01*
X98446526Y-74968043D01*
X98377091Y-74995738D01*
X98300916Y-75032870D01*
X98284001Y-75041512D01*
X98151429Y-75112415D01*
X98144482Y-75116199D01*
X97970198Y-75212911D01*
X97965471Y-75215568D01*
X97764001Y-75330219D01*
X97761954Y-75331390D01*
X97761825Y-75331465D01*
X97533111Y-75463107D01*
X97200552Y-75654519D01*
X97187225Y-75662599D01*
X97180911Y-75666428D01*
X97180908Y-75666429D01*
X97180907Y-75666431D01*
X97071847Y-75760268D01*
X97071845Y-75760270D01*
X97040465Y-75808727D01*
X97037788Y-75812860D01*
X97035159Y-75815730D01*
X97034452Y-75817751D01*
X97025810Y-75825940D01*
X97010003Y-75843205D01*
X97005400Y-75846797D01*
X97001767Y-75849120D01*
X97000370Y-75850723D01*
X96993076Y-75856417D01*
X96979372Y-75861845D01*
X96944104Y-75879620D01*
X96913144Y-75886613D01*
X96913142Y-75886614D01*
X96802638Y-75923227D01*
X96783919Y-75929429D01*
X96760069Y-75939054D01*
X96724286Y-75953495D01*
X96569275Y-76027844D01*
X96543082Y-76041361D01*
X96344897Y-76151055D01*
X96337553Y-76155199D01*
X96078902Y-76303999D01*
X96078691Y-76304120D01*
X96078464Y-76304250D01*
X95358739Y-76718541D01*
X95277372Y-76776808D01*
X95277370Y-76776810D01*
X95183869Y-76886171D01*
X95124966Y-77017442D01*
X95105432Y-77159994D01*
X94100677Y-77159994D01*
X94086635Y-77126093D01*
X94086634Y-77126092D01*
X94086632Y-77126086D01*
X94069536Y-77100500D01*
X93977140Y-76962219D01*
X93935742Y-76920821D01*
X93837782Y-76822861D01*
X93837781Y-76822860D01*
X92484208Y-75469288D01*
X92484206Y-75469285D01*
X92484206Y-75469286D01*
X92477139Y-75462219D01*
X92477139Y-75462218D01*
X92337782Y-75322861D01*
X92337781Y-75322860D01*
X92337780Y-75322859D01*
X92173920Y-75213371D01*
X92173911Y-75213366D01*
X92096235Y-75181192D01*
X92045165Y-75160038D01*
X91991836Y-75137949D01*
X91882326Y-75116166D01*
X91863469Y-75112415D01*
X91798543Y-75099500D01*
X91798541Y-75099500D01*
X76001459Y-75099500D01*
X76001457Y-75099500D01*
X75958254Y-75108094D01*
X75917674Y-75116166D01*
X75808167Y-75137947D01*
X75808159Y-75137950D01*
X75754834Y-75160037D01*
X75754834Y-75160038D01*
X75711918Y-75177814D01*
X75626084Y-75213368D01*
X75626083Y-75213368D01*
X75503045Y-75295579D01*
X75503046Y-75295580D01*
X75462218Y-75322859D01*
X75462215Y-75322862D01*
X72685388Y-78099691D01*
X71762221Y-79022858D01*
X71762219Y-79022860D01*
X71692539Y-79092539D01*
X71622860Y-79162218D01*
X71513370Y-79326081D01*
X71473255Y-79422928D01*
X71473251Y-79422937D01*
X71471714Y-79426650D01*
X71437950Y-79508163D01*
X71430598Y-79545126D01*
X71429009Y-79553111D01*
X71429007Y-79553119D01*
X71399501Y-79701455D01*
X71399501Y-83116550D01*
X71379816Y-83183589D01*
X71348388Y-83216867D01*
X71321059Y-83236722D01*
X71136725Y-83421056D01*
X71136725Y-83421057D01*
X71136723Y-83421059D01*
X71074761Y-83506342D01*
X70983492Y-83631962D01*
X70865143Y-83864236D01*
X70865142Y-83864238D01*
X70865141Y-83864241D01*
X70784582Y-84112173D01*
X70784581Y-84112176D01*
X70784581Y-84112178D01*
X70743801Y-84369649D01*
X68500500Y-84369649D01*
X68500500Y-74624500D01*
X68520185Y-74557461D01*
X68572989Y-74511706D01*
X68624500Y-74500500D01*
X126375500Y-74500500D01*
X126442539Y-74520185D01*
G37*
%TD.AperFunction*%
%TD*%
M02*
