%TF.GenerationSoftware,KiCad,Pcbnew,9.0.7*%
%TF.CreationDate,2026-01-25T21:44:07-05:00*%
%TF.ProjectId,advanced_soldering_practice,61647661-6e63-4656-945f-736f6c646572,rev?*%
%TF.SameCoordinates,Original*%
%TF.FileFunction,Soldermask,Top*%
%TF.FilePolarity,Negative*%
%FSLAX46Y46*%
G04 Gerber Fmt 4.6, Leading zero omitted, Abs format (unit mm)*
G04 Created by KiCad (PCBNEW 9.0.7) date 2026-01-25 21:44:07*
%MOMM*%
%LPD*%
G01*
G04 APERTURE LIST*
G04 Aperture macros list*
%AMRoundRect*
0 Rectangle with rounded corners*
0 $1 Rounding radius*
0 $2 $3 $4 $5 $6 $7 $8 $9 X,Y pos of 4 corners*
0 Add a 4 corners polygon primitive as box body*
4,1,4,$2,$3,$4,$5,$6,$7,$8,$9,$2,$3,0*
0 Add four circle primitives for the rounded corners*
1,1,$1+$1,$2,$3*
1,1,$1+$1,$4,$5*
1,1,$1+$1,$6,$7*
1,1,$1+$1,$8,$9*
0 Add four rect primitives between the rounded corners*
20,1,$1+$1,$2,$3,$4,$5,0*
20,1,$1+$1,$4,$5,$6,$7,0*
20,1,$1+$1,$6,$7,$8,$9,0*
20,1,$1+$1,$8,$9,$2,$3,0*%
%AMFreePoly0*
4,1,78,0.522776,0.439856,0.679044,0.411024,0.879156,0.365973,0.905204,0.360052,1.149181,0.304725,-0.608772,-0.716714,-0.608772,-3.500768,-0.174298,-3.754280,0.000115,-3.856290,0.143862,-3.940819,0.240888,-3.998397,0.274926,-4.019290,0.268069,-4.061900,0.238695,-4.126048,0.213597,-4.208011,0.224371,-4.315512,0.262248,-4.445715,0.310918,-4.576453,0.353541,-4.638600,0.405442,-4.650085,
0.432164,-4.644528,0.558994,-4.622782,0.629935,-4.618327,0.731519,-4.586322,0.831916,-4.510258,0.931507,-4.402798,1.353385,-4.644228,1.529591,-4.741452,1.679992,-4.817738,1.786464,-4.864300,1.827888,-4.874233,1.878466,-4.849842,1.996161,-4.786348,2.170987,-4.689347,2.392959,-4.564436,2.652091,-4.417212,2.938398,-4.253274,3.040741,-4.194385,4.200969,-3.525964,4.202414,-2.512192,
4.204227,-2.222573,4.208517,-1.965474,4.214856,-1.753352,4.222814,-1.598664,4.231960,-1.513866,4.237281,-1.501524,4.279168,-1.534448,4.364202,-1.620328,4.477893,-1.744140,4.548810,-1.824595,4.826919,-2.144561,4.827719,-3.849279,3.316419,-4.723674,2.982914,-4.916309,2.674159,-5.094028,2.398505,-5.252071,2.164297,-5.385682,1.979885,-5.490100,1.853617,-5.560568,1.793841,-5.592326,
1.790191,-5.593649,1.749663,-5.571014,1.640585,-5.508408,1.471411,-5.410726,1.250594,-5.282864,0.986589,-5.129720,0.687850,-4.956188,0.362831,-4.767166,0.304737,-4.733357,-1.165790,-3.877486,-1.189078,-0.356645,-0.469232,0.057716,-0.210358,0.206644,-0.012117,0.316369,0.142905,0.390723,0.272119,0.433535,0.392938,0.448636,0.522776,0.439856,0.522776,0.439856,$1*%
%AMFreePoly1*
4,1,201,1.543144,0.919651,1.495475,0.804413,1.412287,0.638424,1.299447,0.434091,1.275818,0.393126,1.162568,0.195026,1.067572,0.023119,0.999003,-0.107362,0.965034,-0.181183,0.962807,-0.190290,0.997232,-0.247196,1.018509,-0.260497,1.047891,-0.292534,1.024828,-0.310378,0.950462,-0.354853,0.892826,-0.394679,0.837285,-0.450722,0.855210,-0.508225,0.872008,-0.529558,0.907514,-0.581541,
0.875953,-0.588278,0.825764,-0.576972,0.755482,-0.571580,0.698439,-0.608613,0.633760,-0.704892,0.606613,-0.753575,0.535360,-0.873205,0.478461,-0.928823,0.413633,-0.937661,0.376908,-0.931181,0.269934,-0.928536,0.226444,-0.970806,0.257614,-1.044353,0.271696,-1.059540,0.334314,-1.145660,0.317624,-1.193437,0.224632,-1.196816,0.205263,-1.193315,0.107741,-1.185131,0.072779,-1.218465,
0.071579,-1.233534,0.103251,-1.316690,0.138421,-1.355964,0.200027,-1.427147,0.180724,-1.464942,0.084485,-1.463124,0.071579,-1.460684,-0.031809,-1.459255,-0.062667,-1.506142,-0.018683,-1.594781,0.011643,-1.630964,0.055943,-1.687901,0.034827,-1.709305,-0.047772,-1.712456,-0.172439,-1.725473,-0.214601,-1.767108,-0.177369,-1.841234,-0.163819,-1.856847,-0.123545,-1.909754,-0.115639,-1.963705,
-0.143763,-2.044647,-0.208353,-2.172393,-0.347121,-2.427439,-0.452587,-2.600876,-0.525314,-2.693534,-0.565865,-2.706241,-0.568150,-2.703180,-0.560271,-2.646259,-0.515066,-2.532942,-0.441070,-2.383255,-0.399444,-2.307225,-0.306193,-2.137368,-0.253942,-2.025881,-0.237092,-1.955165,-0.250044,-1.907621,-0.265807,-1.887193,-0.324556,-1.775980,-0.301974,-1.675905,-0.239103,-1.622665,-0.178515,-1.570370,
-0.173886,-1.533600,-0.164184,-1.476594,-0.108292,-1.402151,-0.040769,-1.304423,-0.017544,-1.220882,0.011493,-1.135194,0.049298,-1.104711,0.107685,-1.043476,0.116140,-1.003618,0.154836,-0.893964,0.259329,-0.830692,0.336719,-0.820884,0.420832,-0.791000,0.504824,-0.717211,0.573449,-0.622602,0.611462,-0.530254,0.603619,-0.463250,0.582877,-0.448178,0.522146,-0.401309,0.528487,-0.357402,
0.593657,-0.349818,0.606316,-0.353333,0.666688,-0.360461,0.691398,-0.315441,0.695438,-0.230254,0.704951,-0.126350,0.744029,-0.086090,0.791192,-0.082426,0.882529,-0.069073,0.896181,-0.022851,0.834999,0.050944,0.701835,0.147017,0.651001,0.177798,0.511760,0.256777,0.402613,0.313838,0.346003,0.337286,0.344765,0.337369,0.304474,0.302013,0.242185,0.212735,0.212528,0.162523,
0.142588,0.052900,0.081909,-0.017743,0.064749,-0.028826,0.045514,-0.075306,0.086838,-0.183764,0.089114,-0.188191,0.162990,-0.331052,0.001114,-0.331052,-0.103721,-0.337546,-0.138663,-0.364539,-0.128659,-0.409035,-0.079649,-0.540599,-0.074945,-0.610850,-0.119924,-0.638644,-0.195360,-0.642982,-0.279748,-0.645521,-0.313647,-0.667321,-0.303035,-0.729656,-0.254305,-0.852783,-0.274107,-0.902550,
-0.340244,-0.933724,-0.425989,-0.987697,-0.529132,-1.114389,-0.632762,-1.280941,-0.726385,-1.435905,-0.785620,-1.514852,-0.814314,-1.522274,-0.818467,-1.497791,-0.797435,-1.407353,-0.741732,-1.277942,-0.664627,-1.132322,-0.579386,-0.993254,-0.499279,-0.883501,-0.437571,-0.825826,-0.424612,-0.822081,-0.391349,-0.806147,-0.413015,-0.747903,-0.437604,-0.708565,-0.486830,-0.599491,-0.459235,-0.534628,
-0.352491,-0.509828,-0.325817,-0.509298,-0.236498,-0.505147,-0.220646,-0.476400,-0.266256,-0.398618,-0.269221,-0.394091,-0.316317,-0.308434,-0.308778,-0.260611,-0.281389,-0.238809,-0.186537,-0.205890,-0.115280,-0.198050,-0.045503,-0.191379,-0.044050,-0.156432,-0.081859,-0.098330,-0.141292,0.003310,-0.135456,0.055221,-0.062792,0.069997,-0.061008,0.070001,0.028695,0.113195,0.131624,0.240508,
0.150334,0.270527,0.224609,0.383352,0.284257,0.456090,0.306569,0.471053,0.359296,0.450435,0.468243,0.395664,0.612569,0.317361,0.656234,0.292808,0.803432,0.210276,0.917427,0.148018,0.979001,0.116475,0.984362,0.114562,1.010406,0.150821,1.071063,0.249406,1.157140,0.395033,1.253982,0.562847,1.363467,0.745786,1.455022,0.881828,1.520482,0.959675,1.549427,0.971731,
1.543144,0.919651,1.543144,0.919651,$1*%
%AMFreePoly2*
4,1,38,0.149385,0.626572,0.246220,0.600842,0.370240,0.565085,0.492573,0.527797,0.584345,0.497471,0.615261,0.484734,0.599684,0.444745,0.545671,0.341187,0.460686,0.186879,0.352195,-0.005355,0.227665,-0.222695,0.094561,-0.452318,-0.039650,-0.681404,-0.167504,-0.897129,-0.281533,-1.086672,-0.374272,-1.237213,-0.438256,-1.335928,-0.464428,-1.369493,-0.541964,-1.393308,-0.649645,-1.402914,
-0.749172,-1.388563,-0.808532,-1.327212,-0.839364,-1.254687,-0.855288,-1.203872,-0.860342,-1.153234,-0.849672,-1.091691,-0.818428,-1.008164,-0.761757,-0.891572,-0.674808,-0.730835,-0.552727,-0.514871,-0.395450,-0.240915,-0.251616,0.008950,-0.123517,0.231392,-0.017545,0.415316,0.059907,0.549629,0.102445,0.623235,0.108608,0.633784,0.149385,0.626572,0.149385,0.626572,$1*%
%AMFreePoly3*
4,1,9,0.035372,0.010038,0.036667,-0.000614,0.002756,-0.043880,-0.007895,-0.045175,-0.051161,-0.011265,-0.052456,-0.000614,-0.018546,0.042653,-0.007895,0.043948,0.035372,0.010038,0.035372,0.010038,$1*%
%AMFreePoly4*
4,1,57,-0.043831,0.331992,0.069213,0.271239,0.239158,0.176871,0.455961,0.054526,0.709575,-0.090160,0.989956,-0.251550,1.046389,-0.284195,1.354207,-0.462224,1.658190,-0.637709,1.943576,-0.802152,2.195603,-0.947054,2.399508,-1.063919,2.536560,-1.142002,2.925225,-1.362105,2.926472,-2.019385,2.926198,-2.249910,2.924610,-2.445077,2.921941,-2.589360,2.918426,-2.667231,2.916579,-2.676475,
2.892717,-2.639645,2.838483,-2.541419,2.763761,-2.399914,2.728992,-2.332611,2.558210,-2.033328,2.358707,-1.737749,2.147172,-1.467777,1.940293,-1.245314,1.819715,-1.139298,1.695415,-1.035790,1.630756,-0.961030,1.611501,-0.893917,1.617529,-0.839618,1.622535,-0.763640,1.590218,-0.701920,1.504343,-0.632338,1.429485,-0.583390,1.272959,-0.492646,1.163182,-0.455566,1.078392,-0.468808,
1.007999,-0.518678,0.944047,-0.562576,0.876759,-0.557010,0.801988,-0.522272,0.583674,-0.429536,0.331281,-0.363005,0.029835,-0.320208,-0.335637,-0.298672,-0.574605,-0.294975,-1.247279,-0.292631,-0.686008,0.030423,-0.484528,0.145080,-0.310182,0.241826,-0.177602,0.312733,-0.101417,0.349869,-0.089927,0.353493,-0.043831,0.331992,-0.043831,0.331992,$1*%
%AMFreePoly5*
4,1,29,0.279454,0.462409,0.364783,0.363729,0.464768,0.307178,0.505581,0.293480,0.523165,0.270517,0.511254,0.227580,0.463579,0.153965,0.373871,0.038963,0.235864,-0.128132,0.149559,-0.231256,-0.067578,-0.482107,-0.242778,-0.664883,-0.383277,-0.785842,-0.496312,-0.851238,-0.586384,-0.867514,-0.655824,-0.843149,-0.767535,-0.785026,-0.833684,-0.745473,-0.942249,-0.672820,-1.010762,-0.617988,
-1.023070,-0.601194,-0.992238,-0.563968,-0.906411,-0.475662,-0.775592,-0.346171,-0.609785,-0.185391,-0.418995,-0.003217,-0.408257,0.006960,0.206557,0.589426,0.279454,0.462409,0.279454,0.462409,$1*%
%AMFreePoly6*
4,1,38,0.123850,0.510790,0.149814,0.430943,0.171748,0.333767,0.221943,0.099716,-0.056645,-0.181370,-0.204507,-0.325321,-0.317414,-0.411230,-0.420954,-0.446459,-0.540711,-0.438369,-0.702274,-0.394323,-0.747332,-0.380104,-0.897068,-0.330163,-0.984593,-0.285421,-1.032488,-0.223637,-1.063336,-0.122568,-1.078683,-0.053732,-1.110311,0.084012,-1.138090,0.194313,-1.144571,0.217106,-1.138542,0.283094,
-1.101895,0.295088,-1.045933,0.254695,-1.006442,0.150264,-0.970177,-0.007575,-0.927941,-0.102812,-0.860240,-0.160939,-0.747578,-0.207444,-0.727625,-0.214302,-0.519616,-0.285178,-0.261606,-0.029861,-0.140077,0.100892,-0.049047,0.218836,-0.004288,0.302947,-0.002179,0.315974,0.025634,0.425738,0.060395,0.487155,0.097259,0.525098,0.123850,0.510790,0.123850,0.510790,$1*%
%AMFreePoly7*
4,1,14,0.142875,0.096512,0.369697,-0.207543,0.238516,-0.242368,0.124863,-0.296020,0.052554,-0.364912,0.001282,-0.433198,-0.024930,-0.452255,-0.055222,-0.415698,-0.114298,-0.319517,-0.190203,-0.183353,-0.201791,-0.161657,-0.355949,0.128565,-0.083947,0.400568,0.142875,0.096512,0.142875,0.096512,$1*%
%AMFreePoly8*
4,1,94,-0.824745,0.681060,-0.346759,0.569286,-0.104935,0.480253,0.013196,0.432871,0.079779,0.421917,0.124902,0.448057,0.157621,0.486052,0.208873,0.540022,0.260489,0.548515,0.346753,0.512962,0.381607,0.495399,0.525385,0.417926,0.600594,0.360465,0.620284,0.307239,0.597507,0.242470,0.594896,0.237536,0.573871,0.174549,0.597926,0.116831,0.679830,0.040895,0.718376,0.010441,
0.991478,-0.232135,1.256812,-0.522274,1.447711,-0.774561,1.556704,-0.947400,1.678686,-1.160708,1.799080,-1.386910,1.903306,-1.598436,1.976787,-1.767713,1.986037,-1.792731,2.027928,-1.910877,1.927560,-1.794212,1.698010,-1.531189,1.507730,-1.323044,1.341295,-1.154288,1.183280,-1.009434,1.018260,-0.872993,0.980864,-0.843642,0.780059,-0.688091,0.635687,-0.582441,0.533681,-0.522073,
0.459973,-0.502367,0.400496,-0.518703,0.341182,-0.566463,0.291197,-0.617180,0.195151,-0.702736,0.117957,-0.748054,0.095055,-0.750089,0.057379,-0.780936,-0.014573,-0.877474,-0.112449,-1.027125,-0.227897,-1.217314,-0.311754,-1.362633,-0.501576,-1.691366,-0.654764,-1.941546,-0.772709,-2.115226,-0.856797,-2.214459,-0.906154,-2.241697,-0.963931,-2.225602,-1.068557,-2.190277,-1.091579,-2.182050,
-1.197669,-2.127188,-1.258049,-2.064544,-1.261526,-2.053967,-1.244441,-1.993980,-1.188449,-1.871157,-1.100482,-1.699095,-0.987472,-1.491389,-0.865936,-1.278087,-0.714017,-1.013653,-0.602978,-0.810956,-0.526477,-0.656149,-0.478172,-0.535384,-0.451720,-0.434814,-0.441431,-0.351228,-0.430083,-0.202575,-0.418380,-0.080310,-0.413688,-0.042950,-0.446999,0.019959,-0.554846,0.097438,-0.724877,0.184223,
-0.944742,0.275045,-1.202089,0.364639,-1.484567,0.447738,-1.678797,0.496474,-1.947977,0.560200,-2.133606,0.607919,-2.239166,0.642806,-2.268140,0.668037,-2.224011,0.686787,-2.110262,0.702231,-1.930375,0.717543,-1.921989,0.718188,-1.353192,0.731135,-0.824745,0.681060,-0.824745,0.681060,$1*%
%AMFreePoly9*
4,1,14,0.122123,0.310219,0.222759,0.229518,0.271869,0.094576,0.273509,0.061070,0.236557,-0.062723,0.143721,-0.145659,0.022032,-0.179566,-0.101482,-0.156269,-0.191859,-0.079646,-0.254395,0.054435,-0.232441,0.169100,-0.142823,0.264477,-0.007313,0.325572,0.122123,0.310219,0.122123,0.310219,$1*%
%AMFreePoly10*
4,1,60,12.432602,0.203563,13.232584,0.203286,13.960235,0.202746,14.618913,0.201869,15.211976,0.200581,15.742782,0.198809,16.214690,0.196478,16.631057,0.193516,16.995243,0.189849,17.310605,0.185402,17.580501,0.180103,17.808290,0.173878,17.997331,0.166652,18.150981,0.158353,18.272598,0.148907,18.365542,0.138239,18.433169,0.126277,18.478839,0.112946,18.505909,0.098174,18.517739,0.081886,
18.517686,0.064008,18.509108,0.044468,18.495363,0.023191,18.479811,0.000103,18.470033,-0.016449,18.420812,-0.108421,-1.536426,-0.108421,-1.585647,-0.016449,-1.600529,0.007895,-1.615858,0.030379,-1.628275,0.051077,-1.634422,0.070063,-1.630940,0.087410,-1.614473,0.103192,-1.581660,0.117483,-1.529145,0.130356,-1.453568,0.141884,-1.351571,0.152142,-1.219797,0.161204,-1.054887,0.169142,
-0.853483,0.176030,-0.612226,0.181943,-0.327758,0.186954,0.003279,0.191136,0.384243,0.194564,0.818493,0.197310,1.309387,0.199449,1.860282,0.201054,2.474538,0.202199,3.155513,0.202957,3.906565,0.203403,4.731051,0.203609,5.632331,0.203650,6.613763,0.203599,7.678704,0.203529,8.442193,0.203509,9.565084,0.203549,10.602210,0.203621,11.556930,0.203650,12.432602,0.203563,
12.432602,0.203563,$1*%
%AMFreePoly11*
4,1,105,9.008211,0.133403,10.030834,0.133328,10.971272,0.133168,11.832996,0.132896,12.619475,0.132481,13.334178,0.131897,13.980574,0.131114,14.562134,0.130104,15.082326,0.128839,15.544620,0.127290,15.952486,0.125429,16.309392,0.123227,16.618808,0.120656,16.884204,0.117687,17.109048,0.114293,17.296811,0.110444,17.450962,0.106112,17.574970,0.101268,17.672305,0.095886,17.746435,0.089934,
17.800831,0.083387,17.838962,0.076214,17.864297,0.068387,17.880306,0.059879,17.889682,0.051532,17.938624,-0.015556,17.920702,-0.066832,17.881940,-0.104433,17.868321,-0.112736,17.844246,-0.120398,17.806270,-0.127445,17.750948,-0.133902,17.674836,-0.139795,17.574490,-0.145150,17.446466,-0.149991,17.287319,-0.154344,17.093604,-0.158236,16.861879,-0.161691,16.588698,-0.164734,16.270616,-0.167393,
15.904191,-0.169691,15.485977,-0.171654,15.012530,-0.173309,14.480406,-0.174680,13.886160,-0.175794,13.226348,-0.176674,12.497527,-0.177348,11.696251,-0.177841,10.819076,-0.178178,9.862558,-0.178384,8.823252,-0.178485,7.884450,-0.178508,6.776174,-0.178490,5.753552,-0.178415,4.813113,-0.178255,3.951390,-0.177982,3.164911,-0.177568,2.450208,-0.176983,1.803811,-0.176200,1.222252,-0.175191,
0.702059,-0.173925,0.239765,-0.172376,-0.168100,-0.170515,-0.525006,-0.168313,-0.834422,-0.165742,-1.099818,-0.162774,-1.324663,-0.159379,-1.512426,-0.155530,-1.666576,-0.151198,-1.790584,-0.146355,-1.887919,-0.140972,-1.962050,-0.135021,-2.016445,-0.128473,-2.054576,-0.121300,-2.079911,-0.113474,-2.095920,-0.104966,-2.105297,-0.096618,-2.154238,-0.029531,-2.136316,0.021745,-2.097554,0.059347,
-2.083935,0.067649,-2.059860,0.075312,-2.021884,0.082358,-1.966562,0.088816,-1.890450,0.094709,-1.790104,0.100063,-1.662080,0.104904,-1.502933,0.109258,-1.309219,0.113149,-1.077493,0.116604,-0.804312,0.119648,-0.486231,0.122306,-0.119805,0.124604,0.298409,0.126568,0.771856,0.128222,1.303980,0.129594,1.898226,0.130707,2.558037,0.131588,3.286859,0.132262,4.088135,0.132754,
4.965310,0.133091,5.921828,0.133297,6.961134,0.133399,7.899936,0.133422,9.008211,0.133403,9.008211,0.133403,$1*%
%AMFreePoly12*
4,1,47,0.332267,0.083246,0.289852,-0.113437,0.255486,-0.277420,0.233135,-0.389477,0.226553,-0.429210,0.266873,-0.445313,0.374413,-0.457163,0.527292,-0.462525,0.553483,-0.462631,0.881527,-0.462631,1.094833,0.540001,1.401163,0.553308,1.561698,0.558845,1.651057,0.554203,1.687067,0.533837,1.687553,0.492199,1.681229,0.466182,1.664856,0.394950,1.633328,0.250206,1.589577,0.045705,
1.536537,-0.204797,1.477141,-0.487544,1.443201,-0.650021,1.231437,-1.665789,0.972127,-1.665789,0.810861,-1.658654,0.720509,-1.634460,0.686258,-1.596579,0.679998,-1.516663,0.691951,-1.383980,0.709938,-1.277217,0.737599,-1.129595,0.755846,-1.013271,0.760175,-0.967655,0.741526,-0.943062,0.677987,-0.925918,0.558174,-0.915133,0.370700,-0.909613,0.140725,-0.908245,-0.478725,-0.908245,
-0.399272,-0.540614,-0.348059,-0.303071,-0.290872,-0.036939,-0.241270,0.194650,-0.162722,0.562281,0.436868,0.562281,0.332267,0.083246,0.332267,0.083246,$1*%
%AMFreePoly13*
4,1,52,1.879634,0.334829,1.812728,0.032329,1.754380,-0.194759,1.699331,-0.359067,1.642324,-0.473227,1.578100,-0.549874,1.501400,-0.601638,1.486834,-0.608829,1.360716,-0.656867,1.252347,-0.679482,1.243879,-0.679736,1.169023,-0.690974,1.150351,-0.707671,1.170509,-0.756951,1.224216,-0.863944,1.301315,-1.008692,1.331718,-1.064163,1.513085,-1.392719,0.857737,-1.392719,0.596457,-0.864299,
0.501768,-0.664582,0.427283,-0.491454,0.379510,-0.361322,0.364960,-0.290595,0.366622,-0.285001,0.428413,-0.257863,0.566772,-0.240395,0.769518,-0.234123,0.772491,-0.234122,1.146916,-0.234122,1.190474,-0.067017,1.229580,0.098009,1.263421,0.264016,1.263993,0.267193,1.293954,0.434299,0.405057,0.434299,0.313053,-0.000175,0.261503,-0.244329,0.201706,-0.528624,0.143564,-0.805946,
0.121045,-0.913684,0.021041,-1.392719,-0.577731,-1.392719,-0.424005,-0.668596,-0.365012,-0.389783,-0.305636,-0.107539,-0.251375,0.151896,-0.207726,0.362282,-0.192942,0.434299,-0.115605,0.813071,1.985967,0.836938,1.879634,0.334829,1.879634,0.334829,$1*%
%AMFreePoly14*
4,1,83,1.647696,0.587018,1.631876,0.514709,1.600534,0.369727,1.556786,0.166551,1.503749,-0.080338,1.444539,-0.356462,1.425326,-0.446157,1.356006,-0.757912,1.291595,-1.024618,1.234942,-1.235673,1.188894,-1.380475,1.156301,-1.448421,1.155942,-1.448788,1.116376,-1.474150,1.047105,-1.493493,0.936201,-1.507905,0.771733,-1.518478,0.541773,-1.526299,0.241147,-1.532349,-0.053100,-1.536673,
-0.269949,-1.537991,-0.421100,-1.535379,-0.518252,-1.527908,-0.573106,-1.514652,-0.597361,-1.494685,-0.602719,-1.467080,-0.602701,-1.465507,-0.593049,-1.389757,-0.568064,-1.249429,-0.531915,-1.066910,-0.502291,-0.926441,-0.403215,-0.468058,-0.202836,-0.613091,-0.063621,-0.717525,0.016274,-0.793402,0.051499,-0.861880,0.056704,-0.944118,0.053823,-0.983771,0.042105,-1.117456,0.365175,-1.130548,
0.529769,-1.131741,0.643651,-1.121573,0.688171,-1.101764,0.688246,-1.100772,0.703037,-1.022497,0.711897,-0.996268,0.685984,-0.941957,0.584656,-0.844341,0.409566,-0.704871,0.224728,-0.569301,0.037357,-0.430437,-0.123467,-0.302086,-0.243508,-0.196300,-0.308528,-0.125131,-0.315205,-0.112245,-0.333363,0.053572,-0.319137,0.155164,0.287193,0.155164,0.326076,0.076942,0.437888,-0.032721,
0.565702,-0.131439,0.844210,-0.331539,0.899053,-0.122918,0.932057,0.017598,0.952081,0.131605,0.954754,0.163685,0.943945,0.203900,0.898529,0.227520,0.800676,0.238717,0.632554,0.241662,0.621403,0.241667,0.450273,0.239452,0.349844,0.229635,0.301739,0.207459,0.287581,0.168169,0.287193,0.155164,-0.319137,0.155164,-0.306126,0.248082,-0.242715,0.432098,-0.156454,0.562420,
-0.031593,0.687281,1.670294,0.687281,1.647696,0.587018,1.647696,0.587018,$1*%
%AMFreePoly15*
4,1,80,1.895655,0.660088,1.879292,0.586136,1.847858,0.440516,1.804679,0.238765,1.753079,-0.003582,1.696384,-0.270988,1.695085,-0.277127,1.628868,-0.587417,1.576295,-0.823067,1.533167,-0.996758,1.495289,-1.121168,1.458462,-1.208978,1.418491,-1.272868,1.371178,-1.325516,1.337707,-1.356814,1.298591,-1.386688,1.247739,-1.409376,1.172689,-1.426124,1.060977,-1.438179,0.900141,-1.446790,
0.677718,-1.453203,0.381245,-1.458666,0.308668,-1.459805,-0.005508,-1.463942,-0.241356,-1.464931,-0.409634,-1.462160,-0.521100,-1.455014,-0.586513,-1.442881,-0.616631,-1.425148,-0.622544,-1.406725,-0.613506,-1.344579,-0.588245,-1.209243,-0.549538,-1.014601,-0.544208,-0.988684,0.048106,-0.988684,0.088534,-1.002718,0.199319,-1.013849,0.361706,-1.020662,0.490642,-1.022105,0.693368,-1.020991,
0.824120,-1.015202,0.900045,-1.001065,0.938286,-0.974908,0.955987,-0.933059,0.958721,-0.921842,0.999990,-0.738658,1.045662,-0.526791,1.091863,-0.305400,1.134717,-0.093644,1.170351,0.089317,1.194889,0.224325,1.204457,0.292221,1.204474,0.293313,1.192220,0.325273,1.145188,0.344484,1.047975,0.352950,0.885176,0.352676,0.770451,0.349772,0.336428,0.337018,0.193382,-0.309122,
0.142962,-0.538364,0.100024,-0.736438,0.068023,-0.887177,0.050415,-0.974417,0.048106,-0.988684,-0.544208,-0.988684,-0.500166,-0.774537,-0.442907,-0.502934,-0.423454,-0.412008,-0.356262,-0.102101,-0.302966,0.132959,-0.259588,0.305639,-0.222152,0.428405,-0.186681,0.513724,-0.149198,0.574061,-0.105726,0.621883,-0.088541,0.637808,0.047283,0.760351,1.919154,0.760351,1.895655,0.660088,
1.895655,0.660088,$1*%
%AMFreePoly16*
4,1,94,1.309789,1.935688,1.562054,1.931228,1.769078,1.924378,1.918142,1.915615,1.996526,1.905416,2.005351,1.900487,1.996247,1.841081,1.971957,1.718281,1.937013,1.552495,1.895948,1.364133,1.853293,1.173604,1.813582,1.001316,1.781346,0.867680,1.761117,0.793103,1.757519,0.784492,1.716803,0.800059,1.625679,0.856932,1.515323,0.934541,1.392446,1.027535,1.327157,1.094381,
1.305049,1.161466,1.311714,1.255176,1.317762,1.296365,1.347049,1.491667,0.544743,1.491667,0.515127,1.324562,0.489409,1.192683,0.465291,1.089021,0.462604,1.079474,0.460499,1.036202,0.498475,1.012583,0.594515,1.002949,0.710067,1.001492,0.871828,0.995753,0.957549,0.969418,0.980043,0.908812,0.952125,0.800257,0.936980,0.759305,0.903071,0.693318,0.848895,0.659105,
0.748514,0.646471,0.646228,0.645001,0.505975,0.639836,0.416477,0.612625,0.360889,0.545790,0.322369,0.421754,0.293954,0.277369,0.263418,0.110264,0.661722,0.110264,0.858805,0.111369,0.985205,0.123156,1.059338,0.158331,1.099620,0.229599,1.124468,0.349666,1.137878,0.438777,1.164429,0.560115,1.196754,0.634239,1.212161,0.645001,1.270129,0.620760,1.372579,0.558488,
1.452189,0.503762,1.562244,0.416577,1.624556,0.334304,1.645413,0.232814,1.631101,0.087975,1.600606,-0.065789,1.552352,-0.290789,0.575693,-0.290789,0.249515,-0.289946,0.002395,-0.286987,-0.175722,-0.281263,-0.294887,-0.272127,-0.365153,-0.258931,-0.396575,-0.241029,-0.400965,-0.227878,-0.391884,-0.168038,-0.366396,-0.034089,-0.327138,0.161011,-0.276742,0.404306,-0.217845,0.682839,
-0.178158,0.867808,-0.115584,1.158598,-0.059801,1.419251,-0.013407,1.637506,0.020999,1.801107,0.040819,1.897792,0.044649,1.918932,0.087090,1.924263,0.205934,1.928984,0.388462,1.932859,0.621954,1.935649,0.893691,1.937116,1.025000,1.937281,1.309789,1.935688,1.309789,1.935688,$1*%
%AMFreePoly17*
4,1,96,1.128872,0.884791,1.384661,0.883221,1.595490,0.880807,1.748782,0.877716,1.831961,0.874112,1.843333,0.872125,1.833786,0.815477,1.808762,0.695914,1.773681,0.537160,1.733969,0.362938,1.695047,0.196970,1.662340,0.062980,1.641268,-0.015310,1.638845,-0.022413,1.577089,-0.088848,1.499786,-0.123605,1.388876,-0.151442,1.511825,-0.249479,1.578162,-0.308248,1.611843,-0.367604,
1.619672,-0.455292,1.608451,-0.599053,1.605217,-0.630312,1.555556,-0.902300,1.472258,-1.113320,1.360105,-1.252797,1.308596,-1.286008,1.231704,-1.303666,1.088453,-1.318283,0.894476,-1.329762,0.665408,-1.338005,0.416882,-1.342914,0.164532,-1.344390,-0.076007,-1.342336,-0.289102,-1.336655,-0.459118,-1.327247,-0.570422,-1.314015,-0.607544,-1.298015,-0.598681,-1.243561,-0.573786,-1.114475,
-0.535395,-0.923290,-0.530028,-0.897105,0.063105,-0.897105,0.948670,-0.897105,0.997570,-0.715503,1.032465,-0.571121,1.035788,-0.476326,0.994968,-0.420701,0.897430,-0.393831,0.730603,-0.385299,0.598210,-0.384649,0.399517,-0.384493,0.271064,-0.393099,0.194099,-0.424074,0.149870,-0.491024,0.119627,-0.607557,0.091595,-0.752280,0.063105,-0.897105,-0.530028,-0.897105,-0.486047,-0.682541,
-0.428279,-0.404762,-0.384737,-0.197586,-0.344352,-0.005877,0.273565,-0.005877,0.629659,-0.005877,0.834578,-0.000032,0.964861,0.018964,1.034321,0.053304,1.039778,0.059218,1.080362,0.143950,1.112905,0.271919,1.117943,0.304306,1.142085,0.484299,0.760076,0.484299,0.584929,0.480656,0.446824,0.470938,0.367620,0.456959,0.357495,0.450878,0.339219,0.390132,0.316252,0.274043,
0.305244,0.205790,0.273565,-0.005877,-0.344352,-0.005877,-0.322817,0.096348,-0.267512,0.359911,-0.221336,0.581039,-0.186802,0.747667,-0.166425,0.847729,-0.161930,0.871746,-0.119465,0.875656,-0.000455,0.879127,0.182524,0.881988,0.416893,0.884068,0.690075,0.885197,0.840702,0.885351,1.128872,0.884791,1.128872,0.884791,$1*%
%AMFreePoly18*
4,1,84,1.281351,0.985434,1.516687,0.979770,1.721776,0.970748,1.880902,0.958477,1.978348,0.943067,2.001505,0.929650,1.990159,0.837952,1.961297,0.680325,1.918692,0.472929,1.866116,0.231922,1.807343,-0.026538,1.746144,-0.286290,1.686293,-0.531176,1.631562,-0.745036,1.585724,-0.911713,1.552552,-1.015047,1.542261,-1.037365,1.447758,-1.126151,1.314861,-1.191713,1.301474,-1.195698,
1.221628,-1.206961,1.076543,-1.217294,0.882176,-1.226422,0.654483,-1.234073,0.409420,-1.239973,0.162945,-1.243851,-0.068987,-1.245433,-0.270418,-1.244446,-0.425392,-1.240616,-0.517952,-1.233672,-0.537105,-1.227148,-0.527123,-1.150962,-0.499605,-1.006284,-0.458199,-0.808747,-0.455638,-0.797105,0.146927,-0.797105,0.582106,-0.797105,0.769697,-0.793834,0.921291,-0.785034,1.016551,-0.772223,
1.038325,-0.763060,1.055020,-0.708729,1.085483,-0.584827,1.125557,-0.409085,1.171086,-0.199234,1.176715,-0.172621,1.223510,0.047842,1.265687,0.243971,1.298796,0.395250,1.318390,0.481165,1.319100,0.484036,1.327196,0.530376,1.313001,0.559654,1.260871,0.575785,1.155162,0.582686,0.980232,0.584273,0.918601,0.584299,0.684190,0.578887,0.533379,0.562258,0.461283,0.533823,
0.457016,0.528597,0.435138,0.466881,0.399477,0.335052,0.354331,0.150266,0.304000,-0.070320,0.283946,-0.162105,0.146927,-0.797105,-0.455638,-0.797105,-0.406548,-0.573986,-0.348300,-0.317634,-0.287099,-0.055327,-0.226591,0.197302,-0.170422,0.424620,-0.122236,0.610991,-0.085681,0.740781,-0.064994,0.797515,0.028766,0.892998,0.114266,0.942779,0.201039,0.959559,0.351864,0.972324,
0.551024,0.981185,0.782803,0.986251,1.031484,0.987631,1.281351,0.985434,1.281351,0.985434,$1*%
%AMFreePoly19*
4,1,68,-0.254781,0.661894,-0.001324,0.660214,0.183503,0.656462,0.309946,0.649859,0.388251,0.639625,0.428663,0.624982,0.441429,0.605150,0.438402,0.584299,0.420238,0.511688,0.388518,0.372049,0.347745,0.185625,0.303446,-0.022461,0.253994,-0.239195,0.202753,-0.432526,0.155948,-0.580662,0.121417,-0.659450,-0.007648,-0.780026,-0.188256,-0.845059,-0.281936,-0.852807,-0.364079,-0.864531,
-0.389812,-0.886228,-0.369508,-0.938371,-0.316052,-1.047691,-0.239689,-1.193521,-0.213072,-1.242719,-0.036959,-1.565789,-0.681881,-1.565789,-0.937213,-1.052842,-1.033366,-0.856412,-1.112971,-0.687577,-1.168438,-0.562889,-1.192183,-0.498900,-1.192544,-0.495824,-1.150861,-0.474584,-1.037145,-0.459334,-0.868400,-0.452082,-0.819228,-0.451754,-0.595364,-0.444454,-0.453233,-0.422869,-0.401100,-0.396052,
-0.370582,-0.327622,-0.332689,-0.203840,-0.295621,-0.057103,-0.267579,0.080190,-0.256754,0.174299,-0.298379,0.192753,-0.411577,0.206968,-0.578835,0.215250,-0.694715,0.216667,-1.132676,0.216667,-1.180238,0.005001,-1.206443,-0.113901,-1.246492,-0.298398,-1.295724,-0.526903,-1.349480,-0.777829,-1.372609,-0.886228,-1.517419,-1.565789,-2.113867,-1.565789,-1.898828,-0.552017,-1.836345,-0.257924,
-1.778931,0.011423,-1.729530,0.242272,-1.691091,0.420872,-1.666559,0.533470,-1.660125,0.562018,-1.636460,0.662281,-0.587113,0.662281,-0.254781,0.661894,-0.254781,0.661894,$1*%
%AMFreePoly20*
4,1,52,0.397985,0.758864,0.645771,0.754702,0.847935,0.748319,0.991577,0.740168,1.063800,0.730700,1.069839,0.726930,1.058680,0.665683,1.031384,0.556403,1.023693,0.528250,0.977795,0.362991,0.296313,0.337018,0.127506,-0.465087,0.072115,-0.727443,0.021607,-0.965096,-0.020597,-1.162069,-0.051072,-1.302380,-0.065753,-1.367456,-0.087374,-1.421872,-0.133200,-1.452064,-0.225057,-1.465017,
-0.379007,-1.467719,-0.526243,-1.463016,-0.630224,-1.450715,-0.667627,-1.434298,-0.658701,-1.382190,-0.633952,-1.256965,-0.596253,-1.072647,-0.548472,-0.843258,-0.493481,-0.582823,-0.489382,-0.563536,-0.433935,-0.300668,-0.385531,-0.067110,-0.347048,0.122915,-0.321363,0.255181,-0.311355,0.315465,-0.311316,0.316552,-0.352225,0.337014,-0.460412,0.352137,-0.614072,0.359122,-0.644412,0.359299,
-0.977509,0.359299,-0.950072,0.504123,-0.933339,0.586161,-0.910791,0.648506,-0.871170,0.693860,-0.803217,0.724925,-0.695672,0.744405,-0.537277,0.755000,-0.316774,0.759413,-0.022904,0.760347,0.117474,0.760351,0.397985,0.758864,0.397985,0.758864,$1*%
%AMFreePoly21*
4,1,26,0.355279,1.208846,0.462594,1.204894,0.504054,1.199344,0.504054,1.199211,0.494614,1.154445,0.469013,1.034349,0.429778,0.850736,0.379434,0.615419,0.320507,0.340209,0.268251,0.096316,0.034272,-0.995438,-0.270426,-1.008746,-0.430448,-1.014345,-0.519302,-1.009718,-0.554830,-0.989141,-0.554871,-0.946889,-0.548157,-0.919623,-0.531523,-0.847780,-0.499667,-0.702491,-0.455550,-0.497558,
-0.402134,-0.246781,-0.342379,0.036037,-0.308654,0.196579,-0.096119,1.210351,0.204879,1.210351,0.355279,1.208846,0.355279,1.208846,$1*%
%AMFreePoly22*
4,1,70,1.287024,1.158762,1.524703,1.154329,1.715913,1.147553,1.847299,1.138934,1.905509,1.128975,1.907195,1.126930,1.898210,1.054070,1.873627,0.921843,1.838425,0.752362,1.797580,0.567740,1.756071,0.390090,1.718873,0.241525,1.690966,0.144158,1.680312,0.118962,1.629087,0.121551,1.531807,0.168528,1.442435,0.226779,1.324711,0.317393,1.263784,0.391090,1.241204,0.478714,
1.238333,0.567999,1.238333,0.762643,0.413947,0.737018,0.294828,0.202281,0.245756,-0.019674,0.201432,-0.223183,0.166875,-0.385014,0.147676,-0.478922,0.119644,-0.625388,0.986390,-0.599824,1.046365,-0.335323,1.080371,-0.193377,1.108221,-0.091410,1.121861,-0.055302,1.161695,-0.072723,1.251037,-0.133348,1.368240,-0.222266,1.510473,-0.348090,1.574934,-0.440125,1.577750,-0.480006,
1.557635,-0.563671,1.528237,-0.700197,1.505611,-0.811491,1.454822,-1.067719,0.455349,-1.067719,0.131329,-1.067263,-0.114297,-1.065336,-0.292256,-1.061101,-0.413273,-1.053720,-0.488076,-1.042355,-0.527391,-1.026169,-0.541945,-1.004325,-0.543282,-0.989736,-0.533873,-0.924192,-0.508072,-0.785827,-0.468733,-0.588843,-0.418710,-0.347440,-0.360855,-0.075819,-0.344067,0.001755,-0.276603,0.309263,
-0.223104,0.542066,-0.179517,0.712739,-0.141786,0.833859,-0.105855,0.918002,-0.067670,0.977745,-0.023175,1.025663,-0.009994,1.037808,0.125704,1.160351,1.016229,1.160351,1.287024,1.158762,1.287024,1.158762,$1*%
%AMFreePoly23*
4,1,94,1.959766,1.710088,1.940046,1.621158,1.908466,1.472379,1.870840,1.291253,1.858493,1.231053,1.819736,1.055216,1.783136,0.912865,1.754745,0.826743,1.747396,0.813524,1.696233,0.816112,1.598998,0.863084,1.509628,0.921341,1.390545,1.014024,1.329363,1.089808,1.307512,1.177562,1.305526,1.238607,1.305526,1.409299,0.953803,1.409299,0.764193,1.405004,0.647828,1.390319,
0.589160,1.362538,0.576924,1.343746,0.568317,1.307071,0.578838,1.268962,0.618210,1.220566,0.696156,1.153029,0.822397,1.057496,1.006656,0.925115,1.141051,0.830001,1.365535,0.666986,1.523298,0.537308,1.623420,0.427431,1.674985,0.323819,1.687072,0.212939,1.668763,0.081255,1.662584,0.052703,1.613860,-0.132766,1.559797,-0.250993,1.486448,-0.323443,1.388940,-0.368470,
1.306048,-0.383177,1.159112,-0.395498,0.964329,-0.405290,0.737900,-0.412409,0.496022,-0.416708,0.254895,-0.418046,0.030717,-0.416276,-0.160313,-0.411255,-0.301995,-0.402838,-0.378132,-0.390881,-0.386693,-0.384298,-0.376765,-0.321508,-0.351872,-0.197688,-0.316832,-0.034233,-0.276466,0.147462,-0.235594,0.326002,-0.199035,0.479991,-0.171609,0.588033,-0.158536,0.628512,-0.116688,0.613700,
-0.025428,0.558045,0.069482,0.492178,0.192083,0.395650,0.255844,0.317856,0.278796,0.232429,0.280614,0.183427,0.280614,0.027895,0.681667,0.027895,0.883855,0.032530,1.015413,0.050227,1.075453,0.086677,1.063085,0.147570,0.977421,0.238595,0.817571,0.365444,0.605084,0.518071,0.418773,0.650528,0.253394,0.771092,0.125795,0.867276,0.052826,0.926592,0.048926,0.930264,
-0.010103,1.042205,-0.029720,1.203346,-0.013802,1.384983,0.033775,1.558411,0.109133,1.694927,0.158577,1.742195,0.209050,1.766711,0.288592,1.784815,0.409350,1.797370,0.583469,1.805236,0.823095,1.809275,1.119746,1.810351,1.983609,1.810351,1.959766,1.710088,1.959766,1.710088,$1*%
G04 Aperture macros list end*
%ADD10RoundRect,0.250000X-0.350000X-0.450000X0.350000X-0.450000X0.350000X0.450000X-0.350000X0.450000X0*%
%ADD11FreePoly0,0.000000*%
%ADD12FreePoly1,0.000000*%
%ADD13FreePoly2,0.000000*%
%ADD14FreePoly3,0.000000*%
%ADD15FreePoly4,0.000000*%
%ADD16FreePoly5,0.000000*%
%ADD17FreePoly6,0.000000*%
%ADD18FreePoly7,0.000000*%
%ADD19FreePoly8,0.000000*%
%ADD20FreePoly9,0.000000*%
%ADD21R,0.100000X0.100000*%
%ADD22FreePoly10,0.000000*%
%ADD23FreePoly11,0.000000*%
%ADD24FreePoly12,0.000000*%
%ADD25FreePoly13,0.000000*%
%ADD26FreePoly14,0.000000*%
%ADD27FreePoly15,0.000000*%
%ADD28FreePoly16,0.000000*%
%ADD29FreePoly17,0.000000*%
%ADD30FreePoly18,0.000000*%
%ADD31FreePoly19,0.000000*%
%ADD32FreePoly20,0.000000*%
%ADD33FreePoly21,0.000000*%
%ADD34FreePoly22,0.000000*%
%ADD35FreePoly23,0.000000*%
%ADD36C,2.311400*%
%ADD37C,17.780001*%
%ADD38RoundRect,0.237500X0.237500X-0.287500X0.237500X0.287500X-0.237500X0.287500X-0.237500X-0.287500X0*%
%ADD39C,2.000000*%
%ADD40RoundRect,0.150000X-0.825000X-0.150000X0.825000X-0.150000X0.825000X0.150000X-0.825000X0.150000X0*%
%ADD41RoundRect,0.249999X0.450001X1.075001X-0.450001X1.075001X-0.450001X-1.075001X0.450001X-1.075001X0*%
%ADD42RoundRect,0.237500X-0.237500X0.287500X-0.237500X-0.287500X0.237500X-0.287500X0.237500X0.287500X0*%
%ADD43RoundRect,0.250000X-0.475000X0.337500X-0.475000X-0.337500X0.475000X-0.337500X0.475000X0.337500X0*%
G04 APERTURE END LIST*
D10*
%TO.C,R3*%
X110950000Y-92750000D03*
X112950000Y-92750000D03*
%TD*%
D11*
%TO.C,G\u002A\u002A\u002A*%
X96800000Y-76800000D03*
D12*
X97100000Y-77700000D03*
D13*
X97975000Y-79925000D03*
D14*
X98650000Y-78075000D03*
D15*
X98700000Y-75800000D03*
D16*
X99175000Y-80725000D03*
D17*
X99225000Y-78950000D03*
D18*
X99425000Y-79450000D03*
D19*
X99600000Y-76900000D03*
D20*
X99750000Y-80125000D03*
D21*
X101000000Y-80675000D03*
X101225000Y-77300000D03*
D22*
X101875000Y-75650000D03*
D23*
X102425000Y-82175000D03*
D24*
X102650000Y-76900000D03*
D25*
X102750000Y-80025000D03*
D26*
X104950000Y-77025000D03*
D27*
X105325000Y-79950000D03*
D28*
X106975000Y-78275000D03*
D29*
X107850000Y-80075000D03*
D30*
X110275000Y-80175000D03*
D31*
X110975000Y-77000000D03*
D32*
X113525000Y-79950000D03*
D33*
X115025000Y-80400000D03*
D34*
X116075000Y-80350000D03*
D35*
X118325000Y-81000000D03*
%TD*%
D36*
%TO.C,BT1*%
X72400001Y-84500001D03*
X72400001Y-87600000D03*
X93200000Y-84500001D03*
X93200000Y-87600000D03*
D37*
X82800000Y-86000001D03*
%TD*%
D38*
%TO.C,D2*%
X123350000Y-91125000D03*
X123350000Y-89375000D03*
%TD*%
D39*
%TO.C,SW1*%
X98100000Y-93000000D03*
X98100000Y-86500000D03*
X102600000Y-93000000D03*
X102600000Y-86500000D03*
%TD*%
D40*
%TO.C,U1*%
X110175000Y-85245000D03*
X110175000Y-86515000D03*
X110175000Y-87785000D03*
X110175000Y-89055000D03*
X115125000Y-89055000D03*
X115125000Y-87785000D03*
X115125000Y-86515000D03*
X115125000Y-85245000D03*
%TD*%
D41*
%TO.C,R1*%
X123350000Y-85050000D03*
X118550000Y-85050000D03*
%TD*%
%TO.C,R2*%
X123250000Y-94850000D03*
X118450000Y-94850000D03*
%TD*%
D42*
%TO.C,D1*%
X123350000Y-80175000D03*
X123350000Y-81925000D03*
%TD*%
D43*
%TO.C,C1*%
X106300000Y-86762500D03*
X106300000Y-88837500D03*
%TD*%
M02*
